M48
METRIC,LZ,000.000
;FILE_FORMAT=3:3
;TYPE=PLATED
;Layer: PTH_Through
;EasyEDA v6.5.42, 2024-05-17 21:31:13
;769aaf71c92945059be5244369ba5b2e,402e7a3c64b14fc3a01af8f95a806a1f,10
;Gerber Generator version 0.2
;Holesize 1 = 0.600 mm
T01C0.600
;Holesize 2 = 0.701 mm
T02C0.701
;Holesize 3 = 0.800 mm
T03C0.800
;Holesize 4 = 1.000 mm
T04C1.000
;Holesize 5 = 1.040 mm
T05C1.040
;Holesize 6 = 1.101 mm
T06C1.101
;Holesize 7 = 1.200 mm
T07C1.200
;Holesize 8 = 1.301 mm
T08C1.301
;Holesize 9 = 1.501 mm
T09C1.501
%
G05
G90
T01
X091002Y058647
X051121Y044323
X037825Y043253
T02
X044958Y042715
X044958Y032215
X052705Y061892
X052705Y051392
T03
X096504Y074549
X094504Y074549
X074676Y074946
X074676Y076946
T04
X015631Y012446
X023231Y012446
X089535Y060738
X089535Y052038
X093599Y066294
X098679Y066294
X067564Y076962
X067564Y071882
X052705Y048457
X052705Y038157
T05
X040129Y021463G85X040135Y021463
X040129Y024003G85X040135Y024003
X040129Y026543G85X040135Y026543
X040129Y029083G85X040135Y029083
X040129Y031623G85X040135Y031623
X040129Y034163G85X040135Y034163
X040129Y036703G85X040135Y036703
X040129Y039243G85X040135Y039243
X040129Y041783G85X040135Y041783
X040129Y044323G85X040135Y044323
X040129Y046863G85X040135Y046863
X040129Y049403G85X040135Y049403
X040129Y051943G85X040135Y051943
X040129Y054483G85X040135Y054483
X040129Y057023G85X040135Y057023
X040129Y059563G85X040135Y059563
X040129Y062103G85X040135Y062103
X040129Y064643G85X040135Y064643
X040129Y067183G85X040135Y067183
X014729Y024003G85X014735Y024003
X014729Y026543G85X014735Y026543
X014729Y029083G85X014735Y029083
X014729Y031623G85X014735Y031623
X014729Y034163G85X014735Y034163
X014729Y036703G85X014735Y036703
X014729Y039243G85X014735Y039243
X014729Y041783G85X014735Y041783
X014729Y044323G85X014735Y044323
X014729Y046863G85X014735Y046863
X014729Y049403G85X014735Y049403
X014729Y051943G85X014735Y051943
X014729Y054483G85X014735Y054483
X014729Y057023G85X014735Y057023
X014729Y059563G85X014735Y059563
X014729Y062103G85X014735Y062103
X014729Y021463G85X014735Y021463
X014729Y064643G85X014735Y064643
X014729Y067183G85X014735Y067183
X083563Y011176G85X083569Y011176
X083563Y013716G85X083569Y013716
X083563Y016256G85X083569Y016256
X083563Y018796G85X083569Y018796
X083563Y021336G85X083569Y021336
X083563Y023876G85X083569Y023876
X083563Y026416G85X083569Y026416
X083563Y028956G85X083569Y028956
X083563Y031496G85X083569Y031496
X083563Y034036G85X083569Y034036
X083563Y036576G85X083569Y036576
X083563Y039116G85X083569Y039116
X083563Y041656G85X083569Y041656
X083563Y044196G85X083569Y044196
X083563Y046736G85X083569Y046736
X083563Y049276G85X083569Y049276
X083563Y051816G85X083569Y051816
X083563Y054356G85X083569Y054356
X083563Y056896G85X083569Y056896
X058163Y013716G85X058169Y013716
X058163Y016256G85X058169Y016256
X058163Y018796G85X058169Y018796
X058163Y021336G85X058169Y021336
X058163Y023876G85X058169Y023876
X058163Y026416G85X058169Y026416
X058163Y028956G85X058169Y028956
X058163Y031496G85X058169Y031496
X058163Y034036G85X058169Y034036
X058163Y036576G85X058169Y036576
X058163Y039116G85X058169Y039116
X058163Y041656G85X058169Y041656
X058163Y044196G85X058169Y044196
X058163Y046736G85X058169Y046736
X058163Y049276G85X058169Y049276
X058163Y051816G85X058169Y051816
X058163Y011176G85X058169Y011176
X058163Y054356G85X058169Y054356
X058163Y056896G85X058169Y056896
T06
X045339Y073533
X047879Y073533
X050419Y073533
X052959Y073533
X055499Y073533
X058039Y073533
X060579Y073533
X010287Y049276
X010287Y046736
X010287Y044196
X010287Y041656
X010287Y039116
X010287Y036576
X010287Y034036
X088900Y022860
X088900Y020320
X088900Y017780
X088900Y015240
X088900Y012700
X088900Y010160
X048387Y067691
X048387Y065151
X048387Y062611
X048387Y060071
T07
X083312Y075951
X085852Y075941
X080772Y075951
X095377Y009779
X097917Y009779
X050038Y011811
X050038Y009271
T08
X097536Y051217
X097536Y056225
X050292Y032131
X050292Y027051
X050292Y029591
T09
X094361Y040719
X094361Y034719
M30
