G04 Layer: BottomSolderMaskLayer*
G04 EasyEDA v6.5.42, 2024-05-17 21:31:13*
G04 769aaf71c92945059be5244369ba5b2e,402e7a3c64b14fc3a01af8f95a806a1f,10*
G04 Gerber Generator version 0.2*
G04 Scale: 100 percent, Rotated: No, Reflected: No *
G04 Dimensions in millimeters *
G04 leading zeros omitted , absolute positions ,4 integer and 5 decimal *
%FSLAX45Y45*%
%MOMM*%

%AMMACRO1*1,1,$1,$2,$3*1,1,$1,$4,$5*1,1,$1,0-$2,0-$3*1,1,$1,0-$4,0-$5*20,1,$1,$2,$3,$4,$5,0*20,1,$1,$4,$5,0-$2,0-$3,0*20,1,$1,0-$2,0-$3,0-$4,0-$5,0*20,1,$1,0-$4,0-$5,$2,$3,0*4,1,4,$2,$3,$4,$5,0-$2,0-$3,0-$4,0-$5,$2,$3,0*%
%ADD10O,1.9015964X2.7015948*%
%ADD11MACRO1,0.1016X-0.9X1.3X0.9X1.3*%
%ADD12C,1.9016*%
%ADD13C,2.6000*%
%ADD14MACRO1,0.1016X-0.85X0.85X0.85X0.85*%
%ADD15C,1.8016*%
%ADD16MACRO1,0.1016X0.85X0.85X0.85X-0.85*%
%ADD17MACRO1,0.1016X-1X1X1X1*%
%ADD18C,2.1016*%
%ADD19MACRO1,0.1016X1.2497X1.0008X1.2497X-1.0008*%
%ADD20O,2.601595X2.101596*%
%ADD21C,1.4016*%
%ADD22C,1.7016*%
%ADD23MACRO1,0.1016X1X1X1X-1*%
%ADD24C,1.5016*%
%ADD25C,1.6256*%
%ADD26C,1.6617*%
%ADD27MACRO1,0.1016X-0.78X0.78X0.78X0.78*%

%LPD*%
D10*
G01*
X8331187Y7595095D03*
G01*
X8585212Y7594104D03*
D11*
G01*
X8077187Y7595095D03*
D12*
G01*
X1563103Y1244600D03*
G01*
X2323096Y1244600D03*
D13*
G01*
X9436100Y4071899D03*
G01*
X9436100Y3471900D03*
D12*
G01*
X8953500Y6073800D03*
G01*
X8953500Y5203799D03*
D14*
G01*
X4533900Y7353300D03*
D15*
G01*
X4787900Y7353300D03*
G01*
X5041900Y7353300D03*
G01*
X5295900Y7353300D03*
G01*
X5549900Y7353300D03*
G01*
X5803900Y7353300D03*
G01*
X6057900Y7353300D03*
D16*
G01*
X1028700Y4927600D03*
D15*
G01*
X1028700Y4673600D03*
G01*
X1028700Y4419600D03*
G01*
X1028700Y4165600D03*
G01*
X1028700Y3911600D03*
G01*
X1028700Y3657600D03*
G01*
X1028700Y3403600D03*
D17*
G01*
X9537700Y977900D03*
D18*
G01*
X9791700Y977900D03*
D16*
G01*
X8890000Y2286000D03*
D15*
G01*
X8890000Y2032000D03*
G01*
X8890000Y1778000D03*
G01*
X8890000Y1524000D03*
G01*
X8890000Y1270000D03*
G01*
X8890000Y1016000D03*
D18*
G01*
X9753600Y5121655D03*
G01*
X9753600Y5622544D03*
D19*
G01*
X5029200Y3213100D03*
D20*
G01*
X5029200Y2705100D03*
G01*
X5029200Y2959100D03*
D21*
G01*
X9650399Y7454900D03*
G01*
X9450400Y7454900D03*
G01*
X7467600Y7494600D03*
G01*
X7467600Y7694599D03*
D22*
G01*
X9359900Y6629400D03*
G01*
X9867900Y6629400D03*
G01*
X6756400Y7696200D03*
G01*
X6756400Y7188200D03*
D23*
G01*
X5003800Y1181100D03*
D18*
G01*
X5003800Y927100D03*
D16*
G01*
X4838700Y6769100D03*
D15*
G01*
X4838700Y6515100D03*
G01*
X4838700Y6261100D03*
G01*
X4838700Y6007100D03*
D24*
G01*
X4495800Y4271492D03*
G01*
X4495800Y3221507D03*
D25*
G01*
X5270500Y4845710D03*
G01*
X5270500Y3815689D03*
D26*
G01*
X4013200Y2146300D03*
G01*
X4013200Y2400300D03*
G01*
X4013200Y2654300D03*
G01*
X4013200Y2908300D03*
G01*
X4013200Y3162300D03*
G01*
X4013200Y3416300D03*
G01*
X4013200Y3670300D03*
G01*
X4013200Y3924300D03*
G01*
X4013200Y4178300D03*
G01*
X4013200Y4432300D03*
G01*
X4013200Y4686300D03*
G01*
X4013200Y4940300D03*
G01*
X4013200Y5194300D03*
G01*
X4013200Y5448300D03*
G01*
X4013200Y5702300D03*
G01*
X4013200Y5956300D03*
G01*
X4013200Y6210300D03*
G01*
X4013200Y6464300D03*
G01*
X4013200Y6718300D03*
G01*
X1473200Y2400300D03*
G01*
X1473200Y2654300D03*
G01*
X1473200Y2908300D03*
G01*
X1473200Y3162300D03*
G01*
X1473200Y3416300D03*
G01*
X1473200Y3670300D03*
G01*
X1473200Y3924300D03*
G01*
X1473200Y4178300D03*
G01*
X1473200Y4432300D03*
G01*
X1473200Y4686300D03*
G01*
X1473200Y4940300D03*
G01*
X1473200Y5194300D03*
G01*
X1473200Y5448300D03*
G01*
X1473200Y5702300D03*
G01*
X1473200Y5956300D03*
G01*
X1473200Y6210300D03*
G01*
X1473200Y2146300D03*
G01*
X1473200Y6464300D03*
D27*
G01*
X1473200Y6718300D03*
D26*
G01*
X8356600Y1117600D03*
G01*
X8356600Y1371600D03*
G01*
X8356600Y1625600D03*
G01*
X8356600Y1879600D03*
G01*
X8356600Y2133600D03*
G01*
X8356600Y2387600D03*
G01*
X8356600Y2641600D03*
G01*
X8356600Y2895600D03*
G01*
X8356600Y3149600D03*
G01*
X8356600Y3403600D03*
G01*
X8356600Y3657600D03*
G01*
X8356600Y3911600D03*
G01*
X8356600Y4165600D03*
G01*
X8356600Y4419600D03*
G01*
X8356600Y4673600D03*
G01*
X8356600Y4927600D03*
G01*
X8356600Y5181600D03*
G01*
X8356600Y5435600D03*
G01*
X8356600Y5689600D03*
G01*
X5816600Y1371600D03*
G01*
X5816600Y1625600D03*
G01*
X5816600Y1879600D03*
G01*
X5816600Y2133600D03*
G01*
X5816600Y2387600D03*
G01*
X5816600Y2641600D03*
G01*
X5816600Y2895600D03*
G01*
X5816600Y3149600D03*
G01*
X5816600Y3403600D03*
G01*
X5816600Y3657600D03*
G01*
X5816600Y3911600D03*
G01*
X5816600Y4165600D03*
G01*
X5816600Y4419600D03*
G01*
X5816600Y4673600D03*
G01*
X5816600Y4927600D03*
G01*
X5816600Y5181600D03*
G01*
X5816600Y1117600D03*
G01*
X5816600Y5435600D03*
D27*
G01*
X5816600Y5689600D03*
D24*
G01*
X5270500Y6189192D03*
G01*
X5270500Y5139207D03*
M02*
