G04 Layer: TopLayer*
G04 EasyEDA v6.5.42, 2024-05-17 21:31:13*
G04 769aaf71c92945059be5244369ba5b2e,402e7a3c64b14fc3a01af8f95a806a1f,10*
G04 Gerber Generator version 0.2*
G04 Scale: 100 percent, Rotated: No, Reflected: No *
G04 Dimensions in millimeters *
G04 leading zeros omitted , absolute positions ,4 integer and 5 decimal *
%FSLAX45Y45*%
%MOMM*%

%AMMACRO1*21,1,$1,$2,0,0,$3*%
%ADD10C,1.0000*%
%ADD11C,0.4000*%
%ADD12C,1.5000*%
%ADD13O,1.7999964X2.5999948*%
%ADD14R,1.8000X2.6000*%
%ADD15C,1.8000*%
%ADD16C,2.5000*%
%ADD17R,1.7000X1.7000*%
%ADD18C,1.7000*%
%ADD19R,2.0000X2.0000*%
%ADD20C,2.0000*%
%ADD21MACRO1,2.0015X2.4994X-90.0000*%
%ADD22O,2.4999949999999997X1.9999959999999999*%
%ADD23C,1.3000*%
%ADD24C,1.6000*%
%ADD25C,1.4000*%
%ADD26C,1.5240*%
%ADD27C,1.5601*%
%ADD28R,1.5601X1.5601*%
%ADD29C,0.8000*%
%ADD30C,0.0155*%

%LPD*%
G36*
X875690Y469595D02*
G01*
X871219Y469696D01*
X867257Y471678D01*
X864514Y475183D01*
X863549Y479501D01*
X850900Y7965440D01*
X851662Y7969300D01*
X853897Y7972602D01*
X857199Y7974838D01*
X861060Y7975600D01*
X10099040Y7975600D01*
X10102951Y7974838D01*
X10106202Y7972602D01*
X10108438Y7969351D01*
X10109200Y7965440D01*
X10109200Y509016D01*
X10109911Y507288D01*
X10129977Y487222D01*
X10132161Y483971D01*
X10132923Y480059D01*
X10132161Y476148D01*
X10129977Y472897D01*
X10126675Y470662D01*
X10122763Y469900D01*
X877316Y469900D01*
G37*

%LPC*%
G36*
X4947462Y809599D02*
G01*
X4947462Y870762D01*
X4886350Y870762D01*
X4889550Y864108D01*
X4897780Y851001D01*
X4907534Y839012D01*
X4918608Y828243D01*
X4930902Y818896D01*
X4944211Y811022D01*
G37*
G36*
X5060137Y809599D02*
G01*
X5063388Y811022D01*
X5076698Y818896D01*
X5088991Y828243D01*
X5100066Y839012D01*
X5109819Y851001D01*
X5118100Y864108D01*
X5121249Y870762D01*
X5060137Y870762D01*
G37*
G36*
X9438182Y847394D02*
G01*
X9637217Y847394D01*
X9643618Y848004D01*
X9649358Y849782D01*
X9654641Y852576D01*
X9659213Y856386D01*
X9663023Y860958D01*
X9665817Y866241D01*
X9667595Y871982D01*
X9668205Y878382D01*
X9668205Y894791D01*
X9669119Y899007D01*
X9671659Y902411D01*
X9675418Y904494D01*
X9679686Y904900D01*
X9683699Y903427D01*
X9686798Y900480D01*
X9687966Y898702D01*
X9698075Y887018D01*
X9709454Y876553D01*
X9722053Y867562D01*
X9735362Y860196D01*
X9735362Y921562D01*
X9678365Y921562D01*
X9674504Y922324D01*
X9671202Y924509D01*
X9668967Y927811D01*
X9668205Y931722D01*
X9668205Y1024077D01*
X9668967Y1027988D01*
X9671202Y1031290D01*
X9674504Y1033475D01*
X9678365Y1034237D01*
X9735362Y1034237D01*
X9735362Y1095603D01*
X9722053Y1088237D01*
X9709454Y1079246D01*
X9698075Y1068781D01*
X9687966Y1057097D01*
X9686798Y1055319D01*
X9683699Y1052372D01*
X9679686Y1050899D01*
X9675418Y1051255D01*
X9671659Y1053388D01*
X9669119Y1056792D01*
X9668205Y1061008D01*
X9668205Y1077417D01*
X9667595Y1083818D01*
X9665817Y1089558D01*
X9663023Y1094841D01*
X9659213Y1099413D01*
X9654641Y1103223D01*
X9649358Y1106017D01*
X9643618Y1107795D01*
X9637217Y1108405D01*
X9438182Y1108405D01*
X9431782Y1107795D01*
X9426041Y1106017D01*
X9420758Y1103223D01*
X9416186Y1099413D01*
X9412376Y1094841D01*
X9409582Y1089558D01*
X9407804Y1083818D01*
X9407194Y1077417D01*
X9407194Y1038555D01*
X9406432Y1034694D01*
X9404197Y1031392D01*
X9400895Y1029157D01*
X9397034Y1028395D01*
X9107982Y1028395D01*
X9104122Y1029157D01*
X9100820Y1031392D01*
X9080652Y1051560D01*
X9077198Y1054658D01*
X9073743Y1057351D01*
X9070035Y1059738D01*
X9066123Y1061770D01*
X9062008Y1063447D01*
X9057843Y1064768D01*
X9053525Y1065733D01*
X9049156Y1066292D01*
X9044533Y1066495D01*
X8999778Y1066495D01*
X8996222Y1067155D01*
X8993124Y1068984D01*
X8990888Y1071778D01*
X8987485Y1077874D01*
X8979001Y1089609D01*
X8969044Y1100175D01*
X8957868Y1109421D01*
X8945626Y1117193D01*
X8932519Y1123391D01*
X8918702Y1127861D01*
X8904478Y1130554D01*
X8890000Y1131468D01*
X8875522Y1130554D01*
X8861298Y1127861D01*
X8847480Y1123391D01*
X8834374Y1117193D01*
X8822131Y1109421D01*
X8810955Y1100175D01*
X8800998Y1089609D01*
X8792514Y1077874D01*
X8785504Y1065174D01*
X8780170Y1051712D01*
X8776563Y1037640D01*
X8774734Y1023264D01*
X8774734Y1008735D01*
X8776563Y994359D01*
X8780170Y980287D01*
X8785504Y966825D01*
X8792514Y954125D01*
X8800998Y942390D01*
X8810955Y931824D01*
X8822131Y922578D01*
X8834374Y914806D01*
X8847480Y908608D01*
X8861298Y904138D01*
X8875522Y901446D01*
X8890000Y900531D01*
X8904478Y901446D01*
X8918702Y904138D01*
X8932519Y908608D01*
X8945626Y914806D01*
X8957868Y922578D01*
X8969044Y931824D01*
X8979001Y942390D01*
X8987485Y954125D01*
X8990888Y960221D01*
X8993124Y963015D01*
X8996222Y964844D01*
X8999778Y965504D01*
X9019641Y965504D01*
X9023502Y964742D01*
X9026804Y962507D01*
X9046972Y942340D01*
X9050375Y939241D01*
X9053880Y936548D01*
X9057589Y934161D01*
X9061500Y932129D01*
X9065564Y930452D01*
X9069781Y929132D01*
X9074099Y928166D01*
X9078468Y927608D01*
X9083090Y927404D01*
X9397034Y927404D01*
X9400895Y926642D01*
X9404197Y924407D01*
X9406432Y921105D01*
X9407194Y917244D01*
X9407194Y878382D01*
X9407804Y871982D01*
X9409582Y866241D01*
X9412376Y860958D01*
X9416186Y856386D01*
X9420758Y852576D01*
X9426041Y849782D01*
X9431782Y848004D01*
G37*
G36*
X9848037Y860450D02*
G01*
X9854692Y863600D01*
X9867798Y871880D01*
X9879787Y881634D01*
X9890556Y892708D01*
X9899904Y905002D01*
X9907778Y918311D01*
X9909200Y921562D01*
X9848037Y921562D01*
G37*
G36*
X4886096Y983437D02*
G01*
X4947462Y983437D01*
X4947462Y1040434D01*
X4948224Y1044295D01*
X4950409Y1047597D01*
X4953711Y1049832D01*
X4957622Y1050594D01*
X5049977Y1050594D01*
X5053888Y1049832D01*
X5057190Y1047597D01*
X5059375Y1044295D01*
X5060137Y1040434D01*
X5060137Y983437D01*
X5121503Y983437D01*
X5114137Y996746D01*
X5105146Y1009345D01*
X5094681Y1020724D01*
X5082997Y1030833D01*
X5081219Y1032002D01*
X5078272Y1035100D01*
X5076799Y1039114D01*
X5077206Y1043381D01*
X5079288Y1047140D01*
X5082692Y1049680D01*
X5086908Y1050594D01*
X5103317Y1050594D01*
X5109718Y1051204D01*
X5115458Y1052982D01*
X5120741Y1055776D01*
X5125313Y1059586D01*
X5129123Y1064158D01*
X5131917Y1069441D01*
X5133695Y1075182D01*
X5134305Y1081582D01*
X5134305Y1280617D01*
X5133695Y1287018D01*
X5131917Y1292758D01*
X5129123Y1298041D01*
X5125313Y1302613D01*
X5120741Y1306423D01*
X5115458Y1309217D01*
X5109718Y1310995D01*
X5103317Y1311605D01*
X4904282Y1311605D01*
X4897882Y1310995D01*
X4892141Y1309217D01*
X4886858Y1306423D01*
X4882286Y1302613D01*
X4878476Y1298041D01*
X4875682Y1292758D01*
X4873904Y1287018D01*
X4873294Y1280617D01*
X4873294Y1081582D01*
X4873904Y1075182D01*
X4875682Y1069441D01*
X4878476Y1064158D01*
X4882286Y1059586D01*
X4886858Y1055776D01*
X4892141Y1052982D01*
X4897882Y1051204D01*
X4904282Y1050594D01*
X4920691Y1050594D01*
X4924907Y1049680D01*
X4928311Y1047140D01*
X4930444Y1043381D01*
X4930800Y1039114D01*
X4929327Y1035100D01*
X4926380Y1032002D01*
X4924602Y1030833D01*
X4912918Y1020724D01*
X4902454Y1009345D01*
X4893462Y996746D01*
G37*
G36*
X8360054Y1009142D02*
G01*
X8373922Y1010513D01*
X8387486Y1013612D01*
X8400491Y1018387D01*
X8412835Y1024839D01*
X8424265Y1032764D01*
X8434527Y1042111D01*
X8443569Y1052728D01*
X8451138Y1064361D01*
X8457184Y1076909D01*
X8461552Y1090066D01*
X8464194Y1103731D01*
X8465108Y1117600D01*
X8464194Y1131468D01*
X8461552Y1145133D01*
X8457184Y1158290D01*
X8451138Y1170838D01*
X8443569Y1182471D01*
X8434527Y1193088D01*
X8424265Y1202436D01*
X8412835Y1210360D01*
X8400491Y1216812D01*
X8387486Y1221587D01*
X8373922Y1224686D01*
X8360054Y1226058D01*
X8346186Y1225600D01*
X8332470Y1223365D01*
X8319109Y1219403D01*
X8306409Y1213764D01*
X8294522Y1206601D01*
X8283651Y1197914D01*
X8273999Y1187907D01*
X8265668Y1176782D01*
X8258860Y1164691D01*
X8253628Y1151788D01*
X8250123Y1138326D01*
X8248345Y1124559D01*
X8248345Y1110640D01*
X8250123Y1096873D01*
X8253628Y1083411D01*
X8258860Y1070508D01*
X8265668Y1058418D01*
X8273999Y1047292D01*
X8283651Y1037285D01*
X8294522Y1028598D01*
X8306409Y1021435D01*
X8319109Y1015796D01*
X8332470Y1011834D01*
X8346186Y1009599D01*
G37*
G36*
X5820054Y1009142D02*
G01*
X5833922Y1010513D01*
X5847486Y1013612D01*
X5860491Y1018387D01*
X5872835Y1024839D01*
X5884265Y1032764D01*
X5894527Y1042111D01*
X5903569Y1052728D01*
X5911138Y1064361D01*
X5917184Y1076909D01*
X5921552Y1090066D01*
X5924194Y1103731D01*
X5925108Y1117600D01*
X5924194Y1131468D01*
X5921552Y1145133D01*
X5917184Y1158290D01*
X5911138Y1170838D01*
X5903569Y1182471D01*
X5894527Y1193088D01*
X5884265Y1202436D01*
X5872835Y1210360D01*
X5860491Y1216812D01*
X5847486Y1221587D01*
X5833922Y1224686D01*
X5825845Y1225499D01*
X5822492Y1226413D01*
X5819648Y1228394D01*
X5801868Y1246174D01*
X5799683Y1249527D01*
X5798921Y1253439D01*
X5799734Y1257401D01*
X5802020Y1260703D01*
X5805424Y1262837D01*
X5809386Y1263497D01*
X5820054Y1263142D01*
X5833922Y1264513D01*
X5847486Y1267612D01*
X5860491Y1272387D01*
X5872835Y1278839D01*
X5884265Y1286764D01*
X5894527Y1296111D01*
X5903569Y1306728D01*
X5911138Y1318361D01*
X5917184Y1330909D01*
X5921552Y1344066D01*
X5924194Y1357731D01*
X5925108Y1371600D01*
X5924194Y1385468D01*
X5921552Y1399133D01*
X5917184Y1412290D01*
X5911138Y1424838D01*
X5903569Y1436471D01*
X5894527Y1447088D01*
X5884265Y1456436D01*
X5872835Y1464360D01*
X5860491Y1470812D01*
X5847486Y1475587D01*
X5833922Y1478686D01*
X5820054Y1480058D01*
X5806186Y1479600D01*
X5792470Y1477365D01*
X5779109Y1473403D01*
X5766409Y1467764D01*
X5754522Y1460601D01*
X5743651Y1451914D01*
X5733999Y1441907D01*
X5725668Y1430782D01*
X5718860Y1418691D01*
X5713628Y1405788D01*
X5710123Y1392326D01*
X5708345Y1378559D01*
X5708345Y1364234D01*
X5707583Y1360373D01*
X5705348Y1357071D01*
X5702046Y1354886D01*
X5698185Y1354074D01*
X5694273Y1354886D01*
X5690971Y1357071D01*
X5438952Y1609039D01*
X5431688Y1615033D01*
X5429554Y1616557D01*
X5421477Y1621434D01*
X5419140Y1622602D01*
X5410454Y1626209D01*
X5407964Y1627022D01*
X5398820Y1629308D01*
X5386882Y1630629D01*
X2106879Y1630680D01*
X2103018Y1631442D01*
X2099716Y1633626D01*
X1584045Y2149348D01*
X1581962Y2152345D01*
X1581099Y2155850D01*
X1580794Y2160168D01*
X1578152Y2173833D01*
X1573784Y2186990D01*
X1567738Y2199538D01*
X1560169Y2211171D01*
X1551127Y2221788D01*
X1540865Y2231136D01*
X1529435Y2239060D01*
X1517091Y2245512D01*
X1504086Y2250287D01*
X1490522Y2253386D01*
X1476654Y2254758D01*
X1462786Y2254300D01*
X1449070Y2252065D01*
X1435709Y2248103D01*
X1423009Y2242464D01*
X1411122Y2235301D01*
X1400251Y2226614D01*
X1390599Y2216607D01*
X1382268Y2205482D01*
X1375460Y2193391D01*
X1370228Y2180488D01*
X1366723Y2167026D01*
X1364945Y2153259D01*
X1364945Y2139340D01*
X1366723Y2125573D01*
X1370228Y2112111D01*
X1375460Y2099208D01*
X1382268Y2087118D01*
X1390599Y2075992D01*
X1400251Y2065985D01*
X1411122Y2057298D01*
X1423009Y2050135D01*
X1435709Y2044496D01*
X1449070Y2040534D01*
X1463446Y2038299D01*
X1467205Y2037435D01*
X1470304Y2035302D01*
X2014423Y1491284D01*
X2021687Y1485290D01*
X2023821Y1483766D01*
X2031898Y1478889D01*
X2034235Y1477721D01*
X2042922Y1474114D01*
X2045411Y1473301D01*
X2054555Y1471015D01*
X2066493Y1469694D01*
X5346496Y1469644D01*
X5350357Y1468882D01*
X5353659Y1466697D01*
X5705703Y1114653D01*
X5707634Y1111961D01*
X5708548Y1108760D01*
X5710123Y1096873D01*
X5713628Y1083411D01*
X5718860Y1070508D01*
X5725668Y1058418D01*
X5733999Y1047292D01*
X5743651Y1037285D01*
X5754522Y1028598D01*
X5766409Y1021435D01*
X5779109Y1015796D01*
X5792470Y1011834D01*
X5806186Y1009599D01*
G37*
G36*
X9848037Y1034237D02*
G01*
X9909200Y1034237D01*
X9907778Y1037488D01*
X9899904Y1050798D01*
X9890556Y1063091D01*
X9879787Y1074166D01*
X9867798Y1083919D01*
X9854692Y1092149D01*
X9848037Y1095349D01*
G37*
G36*
X2326792Y1124153D02*
G01*
X2341575Y1125524D01*
X2356053Y1128725D01*
X2370074Y1133652D01*
X2383332Y1140256D01*
X2395728Y1148435D01*
X2406954Y1158087D01*
X2416962Y1169060D01*
X2425547Y1181150D01*
X2432558Y1194257D01*
X2437942Y1208074D01*
X2441549Y1222451D01*
X2443378Y1237183D01*
X2443378Y1252016D01*
X2441549Y1266748D01*
X2437942Y1281125D01*
X2432558Y1294942D01*
X2425547Y1308049D01*
X2416962Y1320139D01*
X2406954Y1331112D01*
X2395728Y1340764D01*
X2383332Y1348943D01*
X2370074Y1355547D01*
X2356053Y1360474D01*
X2341575Y1363675D01*
X2326792Y1365046D01*
X2311958Y1364589D01*
X2297328Y1362303D01*
X2283053Y1358239D01*
X2269388Y1352448D01*
X2256536Y1345031D01*
X2244699Y1336090D01*
X2234082Y1325778D01*
X2224735Y1314196D01*
X2216962Y1301597D01*
X2210765Y1288135D01*
X2206244Y1274013D01*
X2203500Y1259382D01*
X2202586Y1244600D01*
X2203500Y1229817D01*
X2206244Y1215186D01*
X2210765Y1201064D01*
X2216962Y1187602D01*
X2224735Y1175004D01*
X2234082Y1163421D01*
X2244699Y1153109D01*
X2256536Y1144168D01*
X2269388Y1136751D01*
X2283053Y1130960D01*
X2297328Y1126896D01*
X2311958Y1124610D01*
G37*
G36*
X1511757Y1135735D02*
G01*
X1511757Y1193241D01*
X1454353Y1193241D01*
X1456944Y1187602D01*
X1464767Y1175004D01*
X1474063Y1163421D01*
X1484731Y1153109D01*
X1496568Y1144168D01*
X1509369Y1136751D01*
G37*
G36*
X1614474Y1135837D02*
G01*
X1623364Y1140256D01*
X1635709Y1148435D01*
X1646986Y1158087D01*
X1656994Y1169060D01*
X1665528Y1181150D01*
X1672031Y1193241D01*
X1614474Y1193241D01*
G37*
G36*
X8890000Y1154531D02*
G01*
X8904478Y1155446D01*
X8918702Y1158138D01*
X8932519Y1162608D01*
X8945626Y1168806D01*
X8957868Y1176578D01*
X8969044Y1185824D01*
X8979001Y1196390D01*
X8987485Y1208125D01*
X8994495Y1220825D01*
X8999829Y1234287D01*
X9003436Y1248359D01*
X9005265Y1262735D01*
X9005265Y1277264D01*
X9003436Y1291640D01*
X8999829Y1305712D01*
X8994495Y1319174D01*
X8987485Y1331874D01*
X8979001Y1343609D01*
X8969044Y1354175D01*
X8957868Y1363421D01*
X8945626Y1371193D01*
X8932519Y1377391D01*
X8918702Y1381861D01*
X8904478Y1384554D01*
X8890000Y1385468D01*
X8875522Y1384554D01*
X8861298Y1381861D01*
X8847480Y1377391D01*
X8834374Y1371193D01*
X8822131Y1363421D01*
X8810955Y1354175D01*
X8800998Y1343609D01*
X8792514Y1331874D01*
X8785504Y1319174D01*
X8780170Y1305712D01*
X8776563Y1291640D01*
X8774734Y1277264D01*
X8774734Y1262735D01*
X8776563Y1248359D01*
X8780170Y1234287D01*
X8785504Y1220825D01*
X8792514Y1208125D01*
X8800998Y1196390D01*
X8810955Y1185824D01*
X8822131Y1176578D01*
X8834374Y1168806D01*
X8847480Y1162608D01*
X8861298Y1158138D01*
X8875522Y1155446D01*
G37*
G36*
X8360054Y1263142D02*
G01*
X8373922Y1264513D01*
X8387486Y1267612D01*
X8400491Y1272387D01*
X8412835Y1278839D01*
X8424265Y1286764D01*
X8434527Y1296111D01*
X8443569Y1306728D01*
X8451138Y1318361D01*
X8457184Y1330909D01*
X8461552Y1344066D01*
X8464194Y1357731D01*
X8465108Y1371600D01*
X8464194Y1385468D01*
X8461552Y1399133D01*
X8457184Y1412290D01*
X8451138Y1424838D01*
X8443569Y1436471D01*
X8434527Y1447088D01*
X8424265Y1456436D01*
X8412835Y1464360D01*
X8400491Y1470812D01*
X8387486Y1475587D01*
X8373922Y1478686D01*
X8360054Y1480058D01*
X8346186Y1479600D01*
X8332470Y1477365D01*
X8319109Y1473403D01*
X8306409Y1467764D01*
X8294522Y1460601D01*
X8283651Y1451914D01*
X8273999Y1441907D01*
X8265668Y1430782D01*
X8258860Y1418691D01*
X8253628Y1405788D01*
X8250123Y1392326D01*
X8248345Y1378559D01*
X8248345Y1364640D01*
X8250123Y1350873D01*
X8253628Y1337411D01*
X8258860Y1324508D01*
X8265668Y1312418D01*
X8273999Y1301292D01*
X8283651Y1291285D01*
X8294522Y1282598D01*
X8306409Y1275435D01*
X8319109Y1269796D01*
X8332470Y1265834D01*
X8346186Y1263599D01*
G37*
G36*
X1454353Y1295958D02*
G01*
X1511757Y1295958D01*
X1511757Y1353464D01*
X1509369Y1352448D01*
X1496568Y1345031D01*
X1484731Y1336090D01*
X1474063Y1325778D01*
X1464767Y1314196D01*
X1456944Y1301597D01*
G37*
G36*
X1614474Y1295958D02*
G01*
X1672031Y1295958D01*
X1665528Y1308049D01*
X1656994Y1320139D01*
X1646986Y1331112D01*
X1635709Y1340764D01*
X1623364Y1348943D01*
X1614474Y1353362D01*
G37*
G36*
X8890000Y1408531D02*
G01*
X8904478Y1409446D01*
X8918702Y1412138D01*
X8932519Y1416608D01*
X8945626Y1422806D01*
X8957868Y1430578D01*
X8969044Y1439824D01*
X8979001Y1450390D01*
X8987485Y1462125D01*
X8994495Y1474825D01*
X8999829Y1488287D01*
X9003436Y1502359D01*
X9005265Y1516735D01*
X9005265Y1531264D01*
X9003436Y1545640D01*
X8999829Y1559712D01*
X8994495Y1573174D01*
X8987485Y1585874D01*
X8979001Y1597609D01*
X8969044Y1608175D01*
X8957868Y1617421D01*
X8945626Y1625193D01*
X8932519Y1631391D01*
X8918702Y1635861D01*
X8904478Y1638554D01*
X8890000Y1639468D01*
X8875522Y1638554D01*
X8861298Y1635861D01*
X8858351Y1634896D01*
X8854694Y1634439D01*
X8851087Y1635302D01*
X8848039Y1637385D01*
X8826906Y1658518D01*
X8824671Y1661871D01*
X8823960Y1665833D01*
X8824823Y1669745D01*
X8827109Y1673047D01*
X8830564Y1675180D01*
X8834526Y1675841D01*
X8838438Y1674875D01*
X8847480Y1670608D01*
X8861298Y1666138D01*
X8875522Y1663446D01*
X8890000Y1662531D01*
X8904478Y1663446D01*
X8918702Y1666138D01*
X8932519Y1670608D01*
X8945626Y1676806D01*
X8957868Y1684578D01*
X8969044Y1693824D01*
X8979001Y1704390D01*
X8987485Y1716125D01*
X8994495Y1728825D01*
X8999829Y1742287D01*
X9003436Y1756359D01*
X9005265Y1770735D01*
X9005265Y1785264D01*
X9003436Y1799640D01*
X8999829Y1813712D01*
X8994495Y1827174D01*
X8987485Y1839874D01*
X8979001Y1851609D01*
X8969044Y1862175D01*
X8957868Y1871421D01*
X8945626Y1879193D01*
X8932519Y1885391D01*
X8918702Y1889861D01*
X8904478Y1892554D01*
X8890000Y1893468D01*
X8875522Y1892554D01*
X8861298Y1889861D01*
X8858351Y1888896D01*
X8854694Y1888439D01*
X8851087Y1889302D01*
X8848039Y1891385D01*
X8826906Y1912518D01*
X8824671Y1915871D01*
X8823960Y1919833D01*
X8824823Y1923745D01*
X8827109Y1927047D01*
X8830564Y1929180D01*
X8834526Y1929841D01*
X8838438Y1928875D01*
X8847480Y1924608D01*
X8861298Y1920138D01*
X8875522Y1917446D01*
X8890000Y1916531D01*
X8904478Y1917446D01*
X8918702Y1920138D01*
X8932519Y1924608D01*
X8945626Y1930806D01*
X8957868Y1938578D01*
X8969044Y1947824D01*
X8979001Y1958390D01*
X8987485Y1970125D01*
X8994495Y1982825D01*
X8999829Y1996287D01*
X9003436Y2010359D01*
X9005265Y2024735D01*
X9005265Y2039264D01*
X9003436Y2053640D01*
X8999829Y2067712D01*
X8994495Y2081174D01*
X8987485Y2093874D01*
X8979001Y2105609D01*
X8969044Y2116175D01*
X8957868Y2125421D01*
X8945626Y2133193D01*
X8932519Y2139391D01*
X8918702Y2143861D01*
X8904478Y2146554D01*
X8890000Y2147468D01*
X8875522Y2146554D01*
X8861298Y2143861D01*
X8847480Y2139391D01*
X8838438Y2135124D01*
X8834526Y2134158D01*
X8830564Y2134819D01*
X8827109Y2136952D01*
X8824823Y2140254D01*
X8823960Y2144166D01*
X8824671Y2148128D01*
X8826906Y2151481D01*
X8842959Y2167534D01*
X8846261Y2169718D01*
X8850122Y2170480D01*
X8974480Y2170480D01*
X8980932Y2171141D01*
X8986672Y2172868D01*
X8991904Y2175662D01*
X8996527Y2179472D01*
X9000337Y2184095D01*
X9003131Y2189327D01*
X9004858Y2195068D01*
X9005519Y2201519D01*
X9005519Y2370480D01*
X9004858Y2376932D01*
X9003131Y2382672D01*
X9000337Y2387904D01*
X8996527Y2392527D01*
X8991904Y2396337D01*
X8986672Y2399131D01*
X8980932Y2400858D01*
X8974480Y2401519D01*
X8805519Y2401519D01*
X8799068Y2400858D01*
X8793327Y2399131D01*
X8788095Y2396337D01*
X8783472Y2392527D01*
X8779662Y2387904D01*
X8776868Y2382672D01*
X8775141Y2376932D01*
X8774480Y2370480D01*
X8774480Y2246122D01*
X8773718Y2242261D01*
X8771534Y2238959D01*
X8715298Y2182723D01*
X8711996Y2180488D01*
X8708085Y2179726D01*
X8704224Y2180488D01*
X8700922Y2182723D01*
X8698687Y2186025D01*
X8697925Y2189886D01*
X8697925Y2858566D01*
X8697722Y2863189D01*
X8697163Y2867558D01*
X8696198Y2871825D01*
X8694877Y2876042D01*
X8693200Y2880106D01*
X8691168Y2884017D01*
X8688781Y2887726D01*
X8686088Y2891231D01*
X8682990Y2894634D01*
X8464397Y3113227D01*
X8462467Y3115919D01*
X8461502Y3119069D01*
X8461603Y3122371D01*
X8464194Y3135731D01*
X8465108Y3149600D01*
X8464194Y3163468D01*
X8461552Y3177133D01*
X8457184Y3190290D01*
X8451138Y3202838D01*
X8443569Y3214471D01*
X8434527Y3225088D01*
X8424265Y3234436D01*
X8412835Y3242360D01*
X8400491Y3248812D01*
X8387486Y3253587D01*
X8373922Y3256686D01*
X8360054Y3258058D01*
X8346186Y3257600D01*
X8332470Y3255365D01*
X8319109Y3251403D01*
X8306409Y3245764D01*
X8294522Y3238601D01*
X8283651Y3229914D01*
X8273999Y3219907D01*
X8265668Y3208782D01*
X8258860Y3196691D01*
X8253628Y3183788D01*
X8250123Y3170326D01*
X8248345Y3156559D01*
X8248345Y3142640D01*
X8250123Y3128873D01*
X8253628Y3115411D01*
X8258860Y3102508D01*
X8265668Y3090418D01*
X8273999Y3079292D01*
X8283651Y3069285D01*
X8294522Y3060598D01*
X8306409Y3053435D01*
X8319109Y3047796D01*
X8332470Y3043834D01*
X8346186Y3041599D01*
X8360054Y3041142D01*
X8373922Y3042513D01*
X8383371Y3044647D01*
X8386775Y3044850D01*
X8390077Y3043885D01*
X8392820Y3041954D01*
X8593937Y2840837D01*
X8596172Y2837535D01*
X8596934Y2833624D01*
X8596934Y1766773D01*
X8597138Y1762150D01*
X8597696Y1757781D01*
X8598662Y1753514D01*
X8599982Y1749298D01*
X8601659Y1745234D01*
X8603691Y1741322D01*
X8606078Y1737614D01*
X8608771Y1734108D01*
X8611870Y1730705D01*
X8776614Y1565960D01*
X8778646Y1563065D01*
X8779560Y1559712D01*
X8779256Y1556258D01*
X8776563Y1545640D01*
X8774734Y1531264D01*
X8774734Y1516735D01*
X8776563Y1502359D01*
X8780170Y1488287D01*
X8785504Y1474825D01*
X8792514Y1462125D01*
X8800998Y1450390D01*
X8810955Y1439824D01*
X8822131Y1430578D01*
X8834374Y1422806D01*
X8847480Y1416608D01*
X8861298Y1412138D01*
X8875522Y1409446D01*
G37*
G36*
X5820054Y1517142D02*
G01*
X5833922Y1518513D01*
X5847486Y1521612D01*
X5860491Y1526387D01*
X5872835Y1532839D01*
X5884265Y1540764D01*
X5894527Y1550111D01*
X5903569Y1560728D01*
X5911138Y1572361D01*
X5917184Y1584909D01*
X5921552Y1598066D01*
X5924194Y1611731D01*
X5925108Y1625600D01*
X5924194Y1639468D01*
X5921552Y1653133D01*
X5917184Y1666290D01*
X5911138Y1678838D01*
X5903569Y1690471D01*
X5894527Y1701088D01*
X5884265Y1710436D01*
X5872835Y1718360D01*
X5860491Y1724812D01*
X5847486Y1729587D01*
X5833922Y1732686D01*
X5820054Y1734057D01*
X5806186Y1733600D01*
X5792470Y1731365D01*
X5779109Y1727403D01*
X5766409Y1721764D01*
X5754522Y1714601D01*
X5743651Y1705914D01*
X5733999Y1695907D01*
X5725668Y1684782D01*
X5718860Y1672691D01*
X5713628Y1659788D01*
X5710123Y1646326D01*
X5708345Y1632559D01*
X5708345Y1618640D01*
X5710123Y1604873D01*
X5713628Y1591411D01*
X5718860Y1578508D01*
X5725668Y1566418D01*
X5733999Y1555292D01*
X5743651Y1545285D01*
X5754522Y1536598D01*
X5766409Y1529435D01*
X5779109Y1523796D01*
X5792470Y1519834D01*
X5806186Y1517599D01*
G37*
G36*
X8360054Y1517142D02*
G01*
X8373922Y1518513D01*
X8387486Y1521612D01*
X8400491Y1526387D01*
X8412835Y1532839D01*
X8424265Y1540764D01*
X8434527Y1550111D01*
X8443569Y1560728D01*
X8451138Y1572361D01*
X8457184Y1584909D01*
X8461552Y1598066D01*
X8464194Y1611731D01*
X8465108Y1625600D01*
X8464194Y1639468D01*
X8461552Y1653133D01*
X8457184Y1666290D01*
X8451138Y1678838D01*
X8443569Y1690471D01*
X8434527Y1701088D01*
X8424265Y1710436D01*
X8412835Y1718360D01*
X8400491Y1724812D01*
X8387486Y1729587D01*
X8373922Y1732686D01*
X8360054Y1734057D01*
X8346186Y1733600D01*
X8332470Y1731365D01*
X8319109Y1727403D01*
X8306409Y1721764D01*
X8294522Y1714601D01*
X8283651Y1705914D01*
X8273999Y1695907D01*
X8265668Y1684782D01*
X8258860Y1672691D01*
X8253628Y1659788D01*
X8250123Y1646326D01*
X8248345Y1632559D01*
X8248345Y1618640D01*
X8250123Y1604873D01*
X8253628Y1591411D01*
X8258860Y1578508D01*
X8265668Y1566418D01*
X8273999Y1555292D01*
X8283651Y1545285D01*
X8294522Y1536598D01*
X8306409Y1529435D01*
X8319109Y1523796D01*
X8332470Y1519834D01*
X8346186Y1517599D01*
G37*
G36*
X5820054Y1771142D02*
G01*
X5833922Y1772513D01*
X5847486Y1775612D01*
X5860491Y1780387D01*
X5872835Y1786839D01*
X5884265Y1794764D01*
X5894527Y1804111D01*
X5903569Y1814728D01*
X5911138Y1826361D01*
X5917184Y1838909D01*
X5921552Y1852066D01*
X5924194Y1865731D01*
X5925108Y1879600D01*
X5924194Y1893468D01*
X5921552Y1907133D01*
X5917184Y1920290D01*
X5911138Y1932838D01*
X5903569Y1944471D01*
X5894527Y1955088D01*
X5884265Y1964436D01*
X5872835Y1972360D01*
X5860491Y1978812D01*
X5847486Y1983587D01*
X5833922Y1986686D01*
X5820054Y1988057D01*
X5806186Y1987600D01*
X5792470Y1985365D01*
X5779109Y1981403D01*
X5766409Y1975764D01*
X5754522Y1968601D01*
X5743651Y1959914D01*
X5733999Y1949907D01*
X5725668Y1938782D01*
X5718860Y1926691D01*
X5713628Y1913788D01*
X5710123Y1900326D01*
X5708345Y1886559D01*
X5708345Y1872640D01*
X5710123Y1858873D01*
X5713628Y1845411D01*
X5718860Y1832508D01*
X5725668Y1820418D01*
X5733999Y1809292D01*
X5743651Y1799285D01*
X5754522Y1790598D01*
X5766409Y1783435D01*
X5779109Y1777796D01*
X5792470Y1773834D01*
X5806186Y1771599D01*
G37*
G36*
X8360054Y1771142D02*
G01*
X8373922Y1772513D01*
X8387486Y1775612D01*
X8400491Y1780387D01*
X8412835Y1786839D01*
X8424265Y1794764D01*
X8434527Y1804111D01*
X8443569Y1814728D01*
X8451138Y1826361D01*
X8457184Y1838909D01*
X8461552Y1852066D01*
X8464194Y1865731D01*
X8465108Y1879600D01*
X8464194Y1893468D01*
X8461552Y1907133D01*
X8457184Y1920290D01*
X8451138Y1932838D01*
X8443569Y1944471D01*
X8434527Y1955088D01*
X8424265Y1964436D01*
X8412835Y1972360D01*
X8400491Y1978812D01*
X8387486Y1983587D01*
X8373922Y1986686D01*
X8360054Y1988057D01*
X8346186Y1987600D01*
X8332470Y1985365D01*
X8319109Y1981403D01*
X8306409Y1975764D01*
X8294522Y1968601D01*
X8283651Y1959914D01*
X8273999Y1949907D01*
X8265668Y1938782D01*
X8258860Y1926691D01*
X8253628Y1913788D01*
X8250123Y1900326D01*
X8248345Y1886559D01*
X8248345Y1872640D01*
X8250123Y1858873D01*
X8253628Y1845411D01*
X8258860Y1832508D01*
X8265668Y1820418D01*
X8273999Y1809292D01*
X8283651Y1799285D01*
X8294522Y1790598D01*
X8306409Y1783435D01*
X8319109Y1777796D01*
X8332470Y1773834D01*
X8346186Y1771599D01*
G37*
G36*
X3968394Y1953717D02*
G01*
X4671009Y1953717D01*
X4675632Y1953920D01*
X4680000Y1954530D01*
X4684318Y1955444D01*
X4688484Y1956765D01*
X4692599Y1958492D01*
X4696510Y1960524D01*
X4700219Y1962861D01*
X4703673Y1965553D01*
X4707128Y1968703D01*
X5780328Y3041904D01*
X5783275Y3043936D01*
X5786780Y3044850D01*
X5790387Y3044444D01*
X5792470Y3043834D01*
X5806186Y3041599D01*
X5820054Y3041142D01*
X5833922Y3042513D01*
X5847486Y3045612D01*
X5860491Y3050387D01*
X5872835Y3056839D01*
X5884265Y3064764D01*
X5894527Y3074111D01*
X5903569Y3084728D01*
X5911138Y3096361D01*
X5917184Y3108909D01*
X5921552Y3122066D01*
X5924194Y3135731D01*
X5925108Y3149600D01*
X5924194Y3163468D01*
X5921552Y3177133D01*
X5917184Y3190290D01*
X5911138Y3202838D01*
X5903569Y3214471D01*
X5894527Y3225088D01*
X5884265Y3234436D01*
X5872835Y3242360D01*
X5860491Y3248812D01*
X5847486Y3253587D01*
X5833922Y3256686D01*
X5820054Y3258058D01*
X5806186Y3257600D01*
X5792470Y3255365D01*
X5779109Y3251403D01*
X5766409Y3245764D01*
X5754522Y3238601D01*
X5743651Y3229914D01*
X5733999Y3219907D01*
X5725668Y3208782D01*
X5718860Y3196691D01*
X5713628Y3183788D01*
X5710123Y3170326D01*
X5708345Y3156559D01*
X5708345Y3142640D01*
X5710123Y3128873D01*
X5711596Y3123133D01*
X5711901Y3119678D01*
X5710986Y3116275D01*
X5708954Y3113379D01*
X4653280Y2057704D01*
X4649978Y2055520D01*
X4646117Y2054758D01*
X4099458Y2054758D01*
X4095699Y2055469D01*
X4092448Y2057552D01*
X4090212Y2060651D01*
X4089298Y2064359D01*
X4089806Y2068169D01*
X4091686Y2071471D01*
X4100169Y2081428D01*
X4107738Y2093061D01*
X4113784Y2105609D01*
X4118152Y2118766D01*
X4120794Y2132431D01*
X4121708Y2146300D01*
X4120794Y2160168D01*
X4118152Y2173833D01*
X4113784Y2186990D01*
X4107738Y2199538D01*
X4100169Y2211171D01*
X4091127Y2221788D01*
X4080865Y2231136D01*
X4069435Y2239060D01*
X4057091Y2245512D01*
X4044086Y2250287D01*
X4030522Y2253386D01*
X4016654Y2254758D01*
X4002786Y2254300D01*
X3989070Y2252065D01*
X3975709Y2248103D01*
X3963009Y2242464D01*
X3951122Y2235301D01*
X3940251Y2226614D01*
X3930599Y2216607D01*
X3922268Y2205482D01*
X3915460Y2193391D01*
X3910228Y2180488D01*
X3906723Y2167026D01*
X3905961Y2161082D01*
X3904386Y2156866D01*
X3901186Y2153716D01*
X3896918Y2152243D01*
X3892499Y2152802D01*
X3888689Y2155190D01*
X2796692Y3247136D01*
X2794508Y3250438D01*
X2793746Y3254349D01*
X2793746Y4432046D01*
X2793542Y4436668D01*
X2792933Y4441037D01*
X2792018Y4445355D01*
X2790698Y4449521D01*
X2788970Y4453636D01*
X2786938Y4457547D01*
X2784602Y4461256D01*
X2781909Y4464710D01*
X2778760Y4468164D01*
X1580997Y5665927D01*
X1579067Y5668619D01*
X1578102Y5671769D01*
X1578203Y5675071D01*
X1580794Y5688431D01*
X1581708Y5702300D01*
X1580794Y5716168D01*
X1578152Y5729833D01*
X1573784Y5742990D01*
X1567738Y5755538D01*
X1560169Y5767171D01*
X1551127Y5777788D01*
X1540865Y5787136D01*
X1529435Y5795060D01*
X1517091Y5801512D01*
X1504086Y5806287D01*
X1490522Y5809386D01*
X1476654Y5810758D01*
X1462786Y5810300D01*
X1449070Y5808065D01*
X1435709Y5804103D01*
X1423009Y5798464D01*
X1411122Y5791301D01*
X1400251Y5782614D01*
X1390599Y5772607D01*
X1382268Y5761482D01*
X1375460Y5749391D01*
X1370228Y5736488D01*
X1366723Y5723026D01*
X1364945Y5709259D01*
X1364945Y5695340D01*
X1366723Y5681573D01*
X1370228Y5668111D01*
X1375460Y5655208D01*
X1382268Y5643118D01*
X1390599Y5631992D01*
X1400251Y5621985D01*
X1411122Y5613298D01*
X1423009Y5606135D01*
X1435709Y5600496D01*
X1449070Y5596534D01*
X1462786Y5594299D01*
X1476654Y5593842D01*
X1490522Y5595213D01*
X1499971Y5597347D01*
X1503375Y5597550D01*
X1506677Y5596585D01*
X1509420Y5594654D01*
X2689758Y4414316D01*
X2691942Y4411014D01*
X2692704Y4407154D01*
X2692704Y3229406D01*
X2692908Y3224784D01*
X2693517Y3220415D01*
X2694432Y3216148D01*
X2695752Y3211931D01*
X2697480Y3207867D01*
X2699512Y3203956D01*
X2701848Y3200247D01*
X2704541Y3196742D01*
X2707690Y3193338D01*
X3932326Y1968703D01*
X3935729Y1965553D01*
X3939235Y1962861D01*
X3942943Y1960524D01*
X3946855Y1958492D01*
X3950919Y1956765D01*
X3955135Y1955444D01*
X3959402Y1954530D01*
X3963771Y1953920D01*
G37*
G36*
X8360054Y2025142D02*
G01*
X8373922Y2026513D01*
X8387486Y2029612D01*
X8400491Y2034387D01*
X8412835Y2040839D01*
X8424265Y2048764D01*
X8434527Y2058111D01*
X8443569Y2068728D01*
X8451138Y2080361D01*
X8457184Y2092909D01*
X8461552Y2106066D01*
X8464194Y2119731D01*
X8465108Y2133600D01*
X8464194Y2147468D01*
X8461552Y2161133D01*
X8457184Y2174290D01*
X8451138Y2186838D01*
X8443569Y2198471D01*
X8434527Y2209088D01*
X8424265Y2218436D01*
X8412835Y2226360D01*
X8400491Y2232812D01*
X8387486Y2237587D01*
X8373922Y2240686D01*
X8360054Y2242058D01*
X8346186Y2241600D01*
X8332470Y2239365D01*
X8319109Y2235403D01*
X8306409Y2229764D01*
X8294522Y2222601D01*
X8283651Y2213914D01*
X8273999Y2203907D01*
X8265668Y2192782D01*
X8258860Y2180691D01*
X8253628Y2167788D01*
X8250123Y2154326D01*
X8248345Y2140559D01*
X8248345Y2126640D01*
X8250123Y2112873D01*
X8253628Y2099411D01*
X8258860Y2086508D01*
X8265668Y2074418D01*
X8273999Y2063292D01*
X8283651Y2053285D01*
X8294522Y2044598D01*
X8306409Y2037435D01*
X8319109Y2031796D01*
X8332470Y2027834D01*
X8346186Y2025599D01*
G37*
G36*
X5820054Y2025142D02*
G01*
X5833922Y2026513D01*
X5847486Y2029612D01*
X5860491Y2034387D01*
X5872835Y2040839D01*
X5884265Y2048764D01*
X5894527Y2058111D01*
X5903569Y2068728D01*
X5911138Y2080361D01*
X5917184Y2092909D01*
X5921552Y2106066D01*
X5924194Y2119731D01*
X5925108Y2133600D01*
X5924194Y2147468D01*
X5921552Y2161133D01*
X5917184Y2174290D01*
X5911138Y2186838D01*
X5903569Y2198471D01*
X5894527Y2209088D01*
X5884265Y2218436D01*
X5872835Y2226360D01*
X5860491Y2232812D01*
X5847486Y2237587D01*
X5833922Y2240686D01*
X5820054Y2242058D01*
X5806186Y2241600D01*
X5792470Y2239365D01*
X5779109Y2235403D01*
X5766409Y2229764D01*
X5754522Y2222601D01*
X5743651Y2213914D01*
X5733999Y2203907D01*
X5725668Y2192782D01*
X5718860Y2180691D01*
X5713628Y2167788D01*
X5710123Y2154326D01*
X5708345Y2140559D01*
X5708345Y2126640D01*
X5710123Y2112873D01*
X5713628Y2099411D01*
X5718860Y2086508D01*
X5725668Y2074418D01*
X5733999Y2063292D01*
X5743651Y2053285D01*
X5754522Y2044598D01*
X5766409Y2037435D01*
X5779109Y2031796D01*
X5792470Y2027834D01*
X5806186Y2025599D01*
G37*
G36*
X8360054Y2279142D02*
G01*
X8373922Y2280513D01*
X8387486Y2283612D01*
X8400491Y2288387D01*
X8412835Y2294839D01*
X8424265Y2302764D01*
X8434527Y2312111D01*
X8443569Y2322728D01*
X8451138Y2334361D01*
X8457184Y2346909D01*
X8461552Y2360066D01*
X8464194Y2373731D01*
X8465108Y2387600D01*
X8464194Y2401468D01*
X8461552Y2415133D01*
X8457184Y2428290D01*
X8451138Y2440838D01*
X8443569Y2452471D01*
X8434527Y2463088D01*
X8424265Y2472436D01*
X8412835Y2480360D01*
X8400491Y2486812D01*
X8387486Y2491587D01*
X8373922Y2494686D01*
X8360054Y2496058D01*
X8346186Y2495600D01*
X8332470Y2493365D01*
X8319109Y2489403D01*
X8306409Y2483764D01*
X8294522Y2476601D01*
X8283651Y2467914D01*
X8273999Y2457907D01*
X8265668Y2446782D01*
X8258860Y2434691D01*
X8253628Y2421788D01*
X8250123Y2408326D01*
X8248345Y2394559D01*
X8248345Y2380640D01*
X8250123Y2366873D01*
X8253628Y2353411D01*
X8258860Y2340508D01*
X8265668Y2328418D01*
X8273999Y2317292D01*
X8283651Y2307285D01*
X8294522Y2298598D01*
X8306409Y2291435D01*
X8319109Y2285796D01*
X8332470Y2281834D01*
X8346186Y2279599D01*
G37*
G36*
X5861964Y2289149D02*
G01*
X5872835Y2294839D01*
X5884265Y2302764D01*
X5894527Y2312111D01*
X5903569Y2322728D01*
X5911138Y2334361D01*
X5914948Y2342235D01*
X5861964Y2342235D01*
G37*
G36*
X5771235Y2289251D02*
G01*
X5771235Y2342235D01*
X5718149Y2342235D01*
X5718860Y2340508D01*
X5725668Y2328418D01*
X5733999Y2317292D01*
X5743651Y2307285D01*
X5754522Y2298598D01*
X5766409Y2291435D01*
G37*
G36*
X4016654Y2291842D02*
G01*
X4030522Y2293213D01*
X4044086Y2296312D01*
X4057091Y2301087D01*
X4069435Y2307539D01*
X4080865Y2315464D01*
X4091127Y2324811D01*
X4100169Y2335428D01*
X4107738Y2347061D01*
X4113784Y2359609D01*
X4118152Y2372766D01*
X4120794Y2386431D01*
X4121708Y2400300D01*
X4120794Y2414168D01*
X4118152Y2427833D01*
X4113784Y2440990D01*
X4107738Y2453538D01*
X4100169Y2465171D01*
X4091127Y2475788D01*
X4080865Y2485136D01*
X4069435Y2493060D01*
X4057091Y2499512D01*
X4044086Y2504287D01*
X4030522Y2507386D01*
X4016654Y2508758D01*
X4002786Y2508300D01*
X3989070Y2506065D01*
X3975709Y2502103D01*
X3963009Y2496464D01*
X3951122Y2489301D01*
X3940251Y2480614D01*
X3930599Y2470607D01*
X3922268Y2459482D01*
X3915460Y2447391D01*
X3910228Y2434488D01*
X3906723Y2421026D01*
X3904945Y2407259D01*
X3904945Y2393340D01*
X3906723Y2379573D01*
X3910228Y2366111D01*
X3915460Y2353208D01*
X3922268Y2341118D01*
X3930599Y2329992D01*
X3940251Y2319985D01*
X3951122Y2311298D01*
X3963009Y2304135D01*
X3975709Y2298496D01*
X3989070Y2294534D01*
X4002786Y2292299D01*
G37*
G36*
X1476654Y2291842D02*
G01*
X1490522Y2293213D01*
X1504086Y2296312D01*
X1517091Y2301087D01*
X1529435Y2307539D01*
X1540865Y2315464D01*
X1551127Y2324811D01*
X1560169Y2335428D01*
X1567738Y2347061D01*
X1573784Y2359609D01*
X1578152Y2372766D01*
X1580794Y2386431D01*
X1581708Y2400300D01*
X1580794Y2414168D01*
X1578152Y2427833D01*
X1573784Y2440990D01*
X1567738Y2453538D01*
X1560169Y2465171D01*
X1551127Y2475788D01*
X1540865Y2485136D01*
X1529435Y2493060D01*
X1517091Y2499512D01*
X1504086Y2504287D01*
X1490522Y2507386D01*
X1476654Y2508758D01*
X1462786Y2508300D01*
X1449070Y2506065D01*
X1435709Y2502103D01*
X1423009Y2496464D01*
X1411122Y2489301D01*
X1400251Y2480614D01*
X1390599Y2470607D01*
X1382268Y2459482D01*
X1375460Y2447391D01*
X1370228Y2434488D01*
X1366723Y2421026D01*
X1364945Y2407259D01*
X1364945Y2393340D01*
X1366723Y2379573D01*
X1370228Y2366111D01*
X1375460Y2353208D01*
X1382268Y2341118D01*
X1390599Y2329992D01*
X1400251Y2319985D01*
X1411122Y2311298D01*
X1423009Y2304135D01*
X1435709Y2298496D01*
X1449070Y2294534D01*
X1462786Y2292299D01*
G37*
G36*
X5718149Y2432964D02*
G01*
X5771235Y2432964D01*
X5771235Y2485948D01*
X5766409Y2483764D01*
X5754522Y2476601D01*
X5743651Y2467914D01*
X5733999Y2457907D01*
X5725668Y2446782D01*
X5718860Y2434691D01*
G37*
G36*
X5861964Y2432964D02*
G01*
X5914948Y2432964D01*
X5911138Y2440838D01*
X5903569Y2452471D01*
X5894527Y2463088D01*
X5884265Y2472436D01*
X5872835Y2480360D01*
X5861964Y2486050D01*
G37*
G36*
X5820054Y2533142D02*
G01*
X5833922Y2534513D01*
X5847486Y2537612D01*
X5860491Y2542387D01*
X5872835Y2548839D01*
X5884265Y2556764D01*
X5894527Y2566111D01*
X5903569Y2576728D01*
X5911138Y2588361D01*
X5917184Y2600909D01*
X5921552Y2614066D01*
X5924194Y2627731D01*
X5925108Y2641600D01*
X5924194Y2655468D01*
X5921552Y2669133D01*
X5917184Y2682290D01*
X5911138Y2694838D01*
X5903569Y2706471D01*
X5894527Y2717088D01*
X5884265Y2726436D01*
X5872835Y2734360D01*
X5860491Y2740812D01*
X5847486Y2745587D01*
X5833922Y2748686D01*
X5820054Y2750058D01*
X5806186Y2749600D01*
X5792470Y2747365D01*
X5779109Y2743403D01*
X5766409Y2737764D01*
X5754522Y2730601D01*
X5743651Y2721914D01*
X5733999Y2711907D01*
X5725668Y2700782D01*
X5718860Y2688691D01*
X5713628Y2675788D01*
X5710123Y2662326D01*
X5708345Y2648559D01*
X5708345Y2634640D01*
X5710123Y2620873D01*
X5713628Y2607411D01*
X5718860Y2594508D01*
X5725668Y2582418D01*
X5733999Y2571292D01*
X5743651Y2561285D01*
X5754522Y2552598D01*
X5766409Y2545435D01*
X5779109Y2539796D01*
X5792470Y2535834D01*
X5806186Y2533599D01*
G37*
G36*
X8360054Y2533142D02*
G01*
X8373922Y2534513D01*
X8387486Y2537612D01*
X8400491Y2542387D01*
X8412835Y2548839D01*
X8424265Y2556764D01*
X8434527Y2566111D01*
X8443569Y2576728D01*
X8451138Y2588361D01*
X8457184Y2600909D01*
X8461552Y2614066D01*
X8464194Y2627731D01*
X8465108Y2641600D01*
X8464194Y2655468D01*
X8461552Y2669133D01*
X8457184Y2682290D01*
X8451138Y2694838D01*
X8443569Y2706471D01*
X8434527Y2717088D01*
X8424265Y2726436D01*
X8412835Y2734360D01*
X8400491Y2740812D01*
X8387486Y2745587D01*
X8373922Y2748686D01*
X8360054Y2750058D01*
X8346186Y2749600D01*
X8332470Y2747365D01*
X8319109Y2743403D01*
X8306409Y2737764D01*
X8294522Y2730601D01*
X8283651Y2721914D01*
X8273999Y2711907D01*
X8265668Y2700782D01*
X8258860Y2688691D01*
X8253628Y2675788D01*
X8250123Y2662326D01*
X8248345Y2648559D01*
X8248345Y2634640D01*
X8250123Y2620873D01*
X8253628Y2607411D01*
X8258860Y2594508D01*
X8265668Y2582418D01*
X8273999Y2571292D01*
X8283651Y2561285D01*
X8294522Y2552598D01*
X8306409Y2545435D01*
X8319109Y2539796D01*
X8332470Y2535834D01*
X8346186Y2533599D01*
G37*
G36*
X4016654Y2545842D02*
G01*
X4030522Y2547213D01*
X4044086Y2550312D01*
X4057091Y2555087D01*
X4069435Y2561539D01*
X4080865Y2569464D01*
X4091127Y2578811D01*
X4100169Y2589428D01*
X4107738Y2601061D01*
X4113784Y2613609D01*
X4118152Y2626766D01*
X4120794Y2640431D01*
X4121708Y2654300D01*
X4120794Y2668168D01*
X4118152Y2681833D01*
X4113784Y2694990D01*
X4107738Y2707538D01*
X4100169Y2719171D01*
X4091127Y2729788D01*
X4080865Y2739136D01*
X4069435Y2747060D01*
X4057091Y2753512D01*
X4044086Y2758287D01*
X4030522Y2761386D01*
X4016654Y2762758D01*
X4002786Y2762300D01*
X3989070Y2760065D01*
X3975709Y2756103D01*
X3963009Y2750464D01*
X3951122Y2743301D01*
X3940251Y2734614D01*
X3930599Y2724607D01*
X3922268Y2713482D01*
X3915460Y2701391D01*
X3910228Y2688488D01*
X3906723Y2675026D01*
X3904945Y2661259D01*
X3904945Y2647340D01*
X3906723Y2633573D01*
X3910228Y2620111D01*
X3915460Y2607208D01*
X3922268Y2595118D01*
X3930599Y2583992D01*
X3940251Y2573985D01*
X3951122Y2565298D01*
X3963009Y2558135D01*
X3975709Y2552496D01*
X3989070Y2548534D01*
X4002786Y2546299D01*
G37*
G36*
X1476654Y2545842D02*
G01*
X1490522Y2547213D01*
X1504086Y2550312D01*
X1517091Y2555087D01*
X1529435Y2561539D01*
X1540865Y2569464D01*
X1551127Y2578811D01*
X1560169Y2589428D01*
X1567738Y2601061D01*
X1573784Y2613609D01*
X1578152Y2626766D01*
X1580794Y2640431D01*
X1581708Y2654300D01*
X1580794Y2668168D01*
X1578152Y2681833D01*
X1573784Y2694990D01*
X1567738Y2707538D01*
X1560169Y2719171D01*
X1551127Y2729788D01*
X1540865Y2739136D01*
X1529435Y2747060D01*
X1517091Y2753512D01*
X1504086Y2758287D01*
X1490522Y2761386D01*
X1476654Y2762758D01*
X1462786Y2762300D01*
X1449070Y2760065D01*
X1435709Y2756103D01*
X1423009Y2750464D01*
X1411122Y2743301D01*
X1400251Y2734614D01*
X1390599Y2724607D01*
X1382268Y2713482D01*
X1375460Y2701391D01*
X1370228Y2688488D01*
X1366723Y2675026D01*
X1364945Y2661259D01*
X1364945Y2647340D01*
X1366723Y2633573D01*
X1370228Y2620111D01*
X1375460Y2607208D01*
X1382268Y2595118D01*
X1390599Y2583992D01*
X1400251Y2573985D01*
X1411122Y2565298D01*
X1423009Y2558135D01*
X1435709Y2552496D01*
X1449070Y2548534D01*
X1462786Y2546299D01*
G37*
G36*
X5004511Y2574594D02*
G01*
X5053888Y2574594D01*
X5069332Y2575509D01*
X5084318Y2578150D01*
X5098846Y2582468D01*
X5112766Y2588514D01*
X5125923Y2596083D01*
X5138064Y2605125D01*
X5149138Y2615539D01*
X5158892Y2627172D01*
X5167223Y2639872D01*
X5174030Y2653436D01*
X5179212Y2667660D01*
X5182717Y2682443D01*
X5184444Y2697530D01*
X5184444Y2712669D01*
X5182717Y2727756D01*
X5179212Y2742539D01*
X5174030Y2756763D01*
X5167223Y2770327D01*
X5158892Y2783027D01*
X5149138Y2794660D01*
X5138064Y2805074D01*
X5125923Y2814116D01*
X5112766Y2821686D01*
X5110327Y2822752D01*
X5107076Y2824988D01*
X5104942Y2828239D01*
X5104180Y2832100D01*
X5104942Y2835960D01*
X5107076Y2839212D01*
X5110327Y2841447D01*
X5112766Y2842514D01*
X5125923Y2850083D01*
X5138064Y2859125D01*
X5149138Y2869539D01*
X5158892Y2881172D01*
X5167223Y2893872D01*
X5174030Y2907436D01*
X5179212Y2921660D01*
X5182717Y2936443D01*
X5184444Y2951530D01*
X5184444Y2966669D01*
X5182717Y2981756D01*
X5179212Y2996539D01*
X5174030Y3010763D01*
X5167223Y3024327D01*
X5158892Y3037027D01*
X5149138Y3048660D01*
X5138064Y3059074D01*
X5131054Y3064306D01*
X5128260Y3067456D01*
X5127040Y3071469D01*
X5127498Y3075635D01*
X5129631Y3079242D01*
X5133035Y3081731D01*
X5137150Y3082594D01*
X5153710Y3082594D01*
X5160162Y3083204D01*
X5165852Y3084982D01*
X5171135Y3087776D01*
X5175758Y3091586D01*
X5179517Y3096158D01*
X5182362Y3101441D01*
X5184089Y3107182D01*
X5184698Y3113582D01*
X5184698Y3312617D01*
X5184089Y3319018D01*
X5182362Y3324758D01*
X5179517Y3330041D01*
X5175758Y3334613D01*
X5171135Y3338423D01*
X5165852Y3341217D01*
X5160162Y3342995D01*
X5153710Y3343605D01*
X4904689Y3343605D01*
X4898237Y3342995D01*
X4892548Y3341217D01*
X4887264Y3338423D01*
X4882642Y3334613D01*
X4878882Y3330041D01*
X4876038Y3324758D01*
X4874310Y3319018D01*
X4873701Y3312617D01*
X4873701Y3279343D01*
X4872939Y3275533D01*
X4870856Y3272282D01*
X4867656Y3270097D01*
X4863896Y3269234D01*
X4854549Y3271215D01*
X4850180Y3271824D01*
X4845558Y3272028D01*
X4588256Y3272028D01*
X4585157Y3272485D01*
X4582312Y3273907D01*
X4580077Y3276142D01*
X4572558Y3286353D01*
X4563211Y3296005D01*
X4552645Y3304336D01*
X4541113Y3311194D01*
X4528769Y3316427D01*
X4515815Y3319983D01*
X4502505Y3321761D01*
X4489094Y3321761D01*
X4475784Y3319983D01*
X4462830Y3316427D01*
X4450486Y3311194D01*
X4438954Y3304336D01*
X4428388Y3296005D01*
X4419041Y3286353D01*
X4411116Y3275584D01*
X4404664Y3263798D01*
X4399838Y3251250D01*
X4396740Y3238195D01*
X4395368Y3224834D01*
X4395825Y3211423D01*
X4398060Y3198215D01*
X4402023Y3185363D01*
X4407662Y3173222D01*
X4414926Y3161893D01*
X4423562Y3151632D01*
X4433519Y3142640D01*
X4444593Y3135020D01*
X4456582Y3128975D01*
X4469231Y3124606D01*
X4482388Y3121914D01*
X4495800Y3120999D01*
X4509211Y3121914D01*
X4522368Y3124606D01*
X4535017Y3128975D01*
X4547006Y3135020D01*
X4558080Y3142640D01*
X4568037Y3151632D01*
X4576673Y3161893D01*
X4579518Y3166313D01*
X4581804Y3168802D01*
X4584750Y3170428D01*
X4588052Y3170986D01*
X4823460Y3170986D01*
X4825949Y3170682D01*
X4828235Y3169818D01*
X4832908Y3167329D01*
X4836922Y3165652D01*
X4841138Y3164332D01*
X4845405Y3163366D01*
X4849774Y3162808D01*
X4854397Y3162604D01*
X4863541Y3162604D01*
X4867402Y3161842D01*
X4870704Y3159607D01*
X4872939Y3156305D01*
X4873701Y3152444D01*
X4873701Y3113582D01*
X4874310Y3107182D01*
X4876038Y3101441D01*
X4878882Y3096158D01*
X4882642Y3091586D01*
X4887264Y3087776D01*
X4892548Y3084982D01*
X4898237Y3083204D01*
X4904689Y3082594D01*
X4921250Y3082594D01*
X4925364Y3081731D01*
X4928768Y3079242D01*
X4930902Y3075635D01*
X4931359Y3071469D01*
X4930140Y3067456D01*
X4927346Y3064306D01*
X4920335Y3059074D01*
X4909261Y3048660D01*
X4899507Y3037027D01*
X4891176Y3024327D01*
X4884369Y3010763D01*
X4879187Y2996539D01*
X4875682Y2981756D01*
X4873955Y2966669D01*
X4873955Y2951530D01*
X4875682Y2936443D01*
X4879187Y2921660D01*
X4884369Y2907436D01*
X4891176Y2893872D01*
X4899507Y2881172D01*
X4909261Y2869539D01*
X4920335Y2859125D01*
X4932476Y2850083D01*
X4945634Y2842514D01*
X4948072Y2841447D01*
X4951323Y2839212D01*
X4953457Y2835960D01*
X4954219Y2832100D01*
X4953457Y2828239D01*
X4951323Y2824988D01*
X4948072Y2822752D01*
X4945634Y2821686D01*
X4932476Y2814116D01*
X4920335Y2805074D01*
X4909261Y2794660D01*
X4899507Y2783027D01*
X4891176Y2770327D01*
X4884369Y2756763D01*
X4879187Y2742539D01*
X4875682Y2727756D01*
X4873955Y2712669D01*
X4873955Y2697530D01*
X4875682Y2682443D01*
X4879187Y2667660D01*
X4884369Y2653436D01*
X4891176Y2639872D01*
X4899507Y2627172D01*
X4909261Y2615539D01*
X4920335Y2605125D01*
X4932476Y2596083D01*
X4945634Y2588514D01*
X4959553Y2582468D01*
X4974082Y2578150D01*
X4989068Y2575509D01*
G37*
G36*
X5820054Y2787142D02*
G01*
X5833922Y2788513D01*
X5847486Y2791612D01*
X5860491Y2796387D01*
X5872835Y2802839D01*
X5884265Y2810764D01*
X5894527Y2820111D01*
X5903569Y2830728D01*
X5911138Y2842361D01*
X5917184Y2854909D01*
X5921552Y2868066D01*
X5924194Y2881731D01*
X5925108Y2895600D01*
X5924194Y2909468D01*
X5921552Y2923133D01*
X5917184Y2936290D01*
X5911138Y2948838D01*
X5903569Y2960471D01*
X5894527Y2971088D01*
X5884265Y2980436D01*
X5872835Y2988360D01*
X5860491Y2994812D01*
X5847486Y2999587D01*
X5833922Y3002686D01*
X5820054Y3004058D01*
X5806186Y3003600D01*
X5792470Y3001365D01*
X5779109Y2997403D01*
X5766409Y2991764D01*
X5754522Y2984601D01*
X5743651Y2975914D01*
X5733999Y2965907D01*
X5725668Y2954782D01*
X5718860Y2942691D01*
X5713628Y2929788D01*
X5710123Y2916326D01*
X5708345Y2902559D01*
X5708345Y2888640D01*
X5710123Y2874873D01*
X5713628Y2861411D01*
X5718860Y2848508D01*
X5725668Y2836418D01*
X5733999Y2825292D01*
X5743651Y2815285D01*
X5754522Y2806598D01*
X5766409Y2799435D01*
X5779109Y2793796D01*
X5792470Y2789834D01*
X5806186Y2787599D01*
G37*
G36*
X8360054Y2787142D02*
G01*
X8373922Y2788513D01*
X8387486Y2791612D01*
X8400491Y2796387D01*
X8412835Y2802839D01*
X8424265Y2810764D01*
X8434527Y2820111D01*
X8443569Y2830728D01*
X8451138Y2842361D01*
X8457184Y2854909D01*
X8461552Y2868066D01*
X8464194Y2881731D01*
X8465108Y2895600D01*
X8464194Y2909468D01*
X8461552Y2923133D01*
X8457184Y2936290D01*
X8451138Y2948838D01*
X8443569Y2960471D01*
X8434527Y2971088D01*
X8424265Y2980436D01*
X8412835Y2988360D01*
X8400491Y2994812D01*
X8387486Y2999587D01*
X8373922Y3002686D01*
X8360054Y3004058D01*
X8346186Y3003600D01*
X8332470Y3001365D01*
X8319109Y2997403D01*
X8306409Y2991764D01*
X8294522Y2984601D01*
X8283651Y2975914D01*
X8273999Y2965907D01*
X8265668Y2954782D01*
X8258860Y2942691D01*
X8253628Y2929788D01*
X8250123Y2916326D01*
X8248345Y2902559D01*
X8248345Y2888640D01*
X8250123Y2874873D01*
X8253628Y2861411D01*
X8258860Y2848508D01*
X8265668Y2836418D01*
X8273999Y2825292D01*
X8283651Y2815285D01*
X8294522Y2806598D01*
X8306409Y2799435D01*
X8319109Y2793796D01*
X8332470Y2789834D01*
X8346186Y2787599D01*
G37*
G36*
X4016654Y2799842D02*
G01*
X4030522Y2801213D01*
X4044086Y2804312D01*
X4057091Y2809087D01*
X4069435Y2815539D01*
X4080865Y2823464D01*
X4091127Y2832811D01*
X4100169Y2843428D01*
X4107738Y2855061D01*
X4113784Y2867609D01*
X4118152Y2880766D01*
X4120794Y2894431D01*
X4121708Y2908300D01*
X4120794Y2922168D01*
X4118152Y2935833D01*
X4113784Y2948990D01*
X4107738Y2961538D01*
X4100169Y2973171D01*
X4091127Y2983788D01*
X4080865Y2993136D01*
X4069435Y3001060D01*
X4057091Y3007512D01*
X4044086Y3012287D01*
X4030522Y3015386D01*
X4016654Y3016758D01*
X4002786Y3016300D01*
X3989070Y3014065D01*
X3975709Y3010103D01*
X3963009Y3004464D01*
X3951122Y2997301D01*
X3940251Y2988614D01*
X3930599Y2978607D01*
X3922268Y2967482D01*
X3915460Y2955391D01*
X3910228Y2942488D01*
X3906723Y2929026D01*
X3904945Y2915259D01*
X3904945Y2901340D01*
X3906723Y2887573D01*
X3910228Y2874111D01*
X3915460Y2861208D01*
X3922268Y2849118D01*
X3930599Y2837992D01*
X3940251Y2827985D01*
X3951122Y2819298D01*
X3963009Y2812135D01*
X3975709Y2806496D01*
X3989070Y2802534D01*
X4002786Y2800299D01*
G37*
G36*
X1476654Y2799842D02*
G01*
X1490522Y2801213D01*
X1504086Y2804312D01*
X1517091Y2809087D01*
X1529435Y2815539D01*
X1540865Y2823464D01*
X1551127Y2832811D01*
X1560169Y2843428D01*
X1567738Y2855061D01*
X1573784Y2867609D01*
X1578152Y2880766D01*
X1580794Y2894431D01*
X1581708Y2908300D01*
X1580794Y2922168D01*
X1578152Y2935833D01*
X1573784Y2948990D01*
X1567738Y2961538D01*
X1560169Y2973171D01*
X1551127Y2983788D01*
X1540865Y2993136D01*
X1529435Y3001060D01*
X1517091Y3007512D01*
X1504086Y3012287D01*
X1490522Y3015386D01*
X1476654Y3016758D01*
X1462786Y3016300D01*
X1449070Y3014065D01*
X1435709Y3010103D01*
X1423009Y3004464D01*
X1411122Y2997301D01*
X1400251Y2988614D01*
X1390599Y2978607D01*
X1382268Y2967482D01*
X1375460Y2955391D01*
X1370228Y2942488D01*
X1366723Y2929026D01*
X1364945Y2915259D01*
X1364945Y2901340D01*
X1366723Y2887573D01*
X1370228Y2874111D01*
X1375460Y2861208D01*
X1382268Y2849118D01*
X1390599Y2837992D01*
X1400251Y2827985D01*
X1411122Y2819298D01*
X1423009Y2812135D01*
X1435709Y2806496D01*
X1449070Y2802534D01*
X1462786Y2800299D01*
G37*
G36*
X1476654Y3053842D02*
G01*
X1490522Y3055213D01*
X1504086Y3058312D01*
X1517091Y3063087D01*
X1529435Y3069539D01*
X1540865Y3077464D01*
X1551127Y3086811D01*
X1560169Y3097428D01*
X1567738Y3109061D01*
X1573784Y3121609D01*
X1578152Y3134766D01*
X1580794Y3148431D01*
X1581708Y3162300D01*
X1580794Y3176168D01*
X1578152Y3189833D01*
X1573784Y3202990D01*
X1567738Y3215538D01*
X1560169Y3227171D01*
X1551127Y3237788D01*
X1540865Y3247136D01*
X1529435Y3255060D01*
X1517091Y3261512D01*
X1504086Y3266287D01*
X1490522Y3269386D01*
X1476654Y3270758D01*
X1462786Y3270300D01*
X1449070Y3268065D01*
X1435709Y3264103D01*
X1423009Y3258464D01*
X1411122Y3251301D01*
X1400251Y3242614D01*
X1390599Y3232607D01*
X1382268Y3221482D01*
X1380286Y3217976D01*
X1378051Y3215233D01*
X1374952Y3213455D01*
X1371447Y3212795D01*
X1295146Y3212795D01*
X1291234Y3213557D01*
X1287932Y3215792D01*
X1142085Y3361639D01*
X1140053Y3364534D01*
X1139139Y3367887D01*
X1139444Y3371342D01*
X1142136Y3381959D01*
X1143965Y3396335D01*
X1143965Y3410864D01*
X1142136Y3425240D01*
X1138529Y3439312D01*
X1133195Y3452774D01*
X1126185Y3465474D01*
X1117701Y3477209D01*
X1107744Y3487775D01*
X1096568Y3497021D01*
X1084326Y3504793D01*
X1071219Y3510991D01*
X1057402Y3515461D01*
X1043178Y3518154D01*
X1028700Y3519068D01*
X1014221Y3518154D01*
X999998Y3515461D01*
X986180Y3510991D01*
X973074Y3504793D01*
X960831Y3497021D01*
X949655Y3487775D01*
X939698Y3477209D01*
X931214Y3465474D01*
X924204Y3452774D01*
X918870Y3439312D01*
X915263Y3425240D01*
X913434Y3410864D01*
X913434Y3396335D01*
X915263Y3381959D01*
X918870Y3367887D01*
X924204Y3354425D01*
X931214Y3341725D01*
X939698Y3329990D01*
X949655Y3319424D01*
X960831Y3310178D01*
X973074Y3302406D01*
X986180Y3296208D01*
X999998Y3291738D01*
X1014221Y3289046D01*
X1028700Y3288131D01*
X1043178Y3289046D01*
X1057402Y3291738D01*
X1060348Y3292703D01*
X1064006Y3293160D01*
X1067612Y3292297D01*
X1070660Y3290214D01*
X1234135Y3126740D01*
X1237538Y3123641D01*
X1241044Y3120948D01*
X1244752Y3118561D01*
X1248664Y3116529D01*
X1252728Y3114852D01*
X1256944Y3113532D01*
X1261211Y3112566D01*
X1265580Y3112008D01*
X1270203Y3111804D01*
X1371447Y3111804D01*
X1374952Y3111144D01*
X1378051Y3109366D01*
X1380286Y3106623D01*
X1382268Y3103118D01*
X1390599Y3091992D01*
X1400251Y3081985D01*
X1411122Y3073298D01*
X1423009Y3066135D01*
X1435709Y3060496D01*
X1449070Y3056534D01*
X1462786Y3054299D01*
G37*
G36*
X4016654Y3053842D02*
G01*
X4030522Y3055213D01*
X4044086Y3058312D01*
X4057091Y3063087D01*
X4069435Y3069539D01*
X4080865Y3077464D01*
X4091127Y3086811D01*
X4100169Y3097428D01*
X4107738Y3109061D01*
X4113784Y3121609D01*
X4118152Y3134766D01*
X4120794Y3148431D01*
X4121708Y3162300D01*
X4120794Y3176168D01*
X4118203Y3189528D01*
X4118101Y3192830D01*
X4119067Y3195980D01*
X4120997Y3198672D01*
X4526432Y3604107D01*
X4529734Y3606342D01*
X4533646Y3607104D01*
X5714847Y3607104D01*
X5718352Y3606444D01*
X5721451Y3604666D01*
X5723686Y3601923D01*
X5725668Y3598418D01*
X5733999Y3587292D01*
X5743651Y3577285D01*
X5754522Y3568598D01*
X5766409Y3561435D01*
X5779109Y3555796D01*
X5792470Y3551834D01*
X5806186Y3549599D01*
X5820054Y3549142D01*
X5833922Y3550513D01*
X5847486Y3553612D01*
X5860491Y3558387D01*
X5872835Y3564839D01*
X5884265Y3572764D01*
X5894527Y3582111D01*
X5903569Y3592728D01*
X5911138Y3604361D01*
X5917184Y3616909D01*
X5921552Y3630066D01*
X5924194Y3643731D01*
X5925108Y3657600D01*
X5924194Y3671468D01*
X5921552Y3685133D01*
X5917184Y3698290D01*
X5911138Y3710838D01*
X5903569Y3722471D01*
X5894527Y3733088D01*
X5884265Y3742436D01*
X5872835Y3750360D01*
X5860491Y3756812D01*
X5847486Y3761587D01*
X5833922Y3764686D01*
X5820054Y3766058D01*
X5806186Y3765600D01*
X5792470Y3763365D01*
X5779109Y3759403D01*
X5766409Y3753764D01*
X5754522Y3746601D01*
X5743651Y3737914D01*
X5733999Y3727907D01*
X5725668Y3716782D01*
X5723686Y3713276D01*
X5721451Y3710533D01*
X5718352Y3708755D01*
X5714847Y3708095D01*
X5334609Y3708095D01*
X5330393Y3709009D01*
X5326938Y3711549D01*
X5324856Y3715308D01*
X5324500Y3719576D01*
X5325973Y3723640D01*
X5328920Y3726738D01*
X5335422Y3731056D01*
X5345938Y3740251D01*
X5355132Y3750767D01*
X5362905Y3762349D01*
X5369052Y3774897D01*
X5373573Y3788105D01*
X5376265Y3801770D01*
X5377180Y3815689D01*
X5376265Y3829608D01*
X5373573Y3843324D01*
X5369052Y3856532D01*
X5362905Y3869029D01*
X5355132Y3880662D01*
X5345938Y3891127D01*
X5335422Y3900322D01*
X5323840Y3908094D01*
X5311343Y3914241D01*
X5298135Y3918762D01*
X5284419Y3921455D01*
X5270500Y3922369D01*
X5256580Y3921455D01*
X5242864Y3918762D01*
X5229656Y3914241D01*
X5217160Y3908094D01*
X5205577Y3900322D01*
X5195062Y3891127D01*
X5185867Y3880662D01*
X5178094Y3869029D01*
X5171948Y3856532D01*
X5167426Y3843324D01*
X5164734Y3829608D01*
X5163820Y3815689D01*
X5164734Y3801770D01*
X5167426Y3788105D01*
X5171948Y3774897D01*
X5178094Y3762349D01*
X5185867Y3750767D01*
X5195062Y3740251D01*
X5205577Y3731056D01*
X5212080Y3726738D01*
X5215026Y3723640D01*
X5216499Y3719576D01*
X5216144Y3715308D01*
X5214061Y3711549D01*
X5210606Y3709009D01*
X5206390Y3708095D01*
X4508703Y3708095D01*
X4504080Y3707892D01*
X4499711Y3707333D01*
X4495444Y3706368D01*
X4491228Y3705047D01*
X4487164Y3703370D01*
X4483252Y3701338D01*
X4479544Y3698951D01*
X4476038Y3696258D01*
X4472635Y3693160D01*
X4049420Y3269945D01*
X4046677Y3268014D01*
X4043375Y3267049D01*
X4039971Y3267252D01*
X4030522Y3269386D01*
X4016654Y3270758D01*
X4002786Y3270300D01*
X3989070Y3268065D01*
X3975709Y3264103D01*
X3963009Y3258464D01*
X3951122Y3251301D01*
X3940251Y3242614D01*
X3930599Y3232607D01*
X3922268Y3221482D01*
X3915460Y3209391D01*
X3910228Y3196488D01*
X3906723Y3183026D01*
X3904945Y3169259D01*
X3904945Y3155340D01*
X3906723Y3141573D01*
X3910228Y3128111D01*
X3915460Y3115208D01*
X3922268Y3103118D01*
X3930599Y3091992D01*
X3940251Y3081985D01*
X3951122Y3073298D01*
X3963009Y3066135D01*
X3975709Y3060496D01*
X3989070Y3056534D01*
X4002786Y3054299D01*
G37*
G36*
X5820054Y3295142D02*
G01*
X5833922Y3296513D01*
X5847486Y3299612D01*
X5860491Y3304387D01*
X5872835Y3310839D01*
X5884265Y3318764D01*
X5894527Y3328111D01*
X5903569Y3338728D01*
X5911138Y3350361D01*
X5917184Y3362909D01*
X5921552Y3376066D01*
X5924194Y3389731D01*
X5925108Y3403600D01*
X5924194Y3417468D01*
X5921552Y3431133D01*
X5917184Y3444290D01*
X5911138Y3456838D01*
X5903569Y3468471D01*
X5894527Y3479088D01*
X5884265Y3488436D01*
X5872835Y3496360D01*
X5860491Y3502812D01*
X5847486Y3507587D01*
X5833922Y3510686D01*
X5820054Y3512058D01*
X5806186Y3511600D01*
X5792470Y3509365D01*
X5779109Y3505403D01*
X5766409Y3499764D01*
X5754522Y3492601D01*
X5743651Y3483914D01*
X5733999Y3473907D01*
X5725668Y3462782D01*
X5718860Y3450691D01*
X5713628Y3437788D01*
X5710123Y3424326D01*
X5708345Y3410559D01*
X5708345Y3396640D01*
X5710123Y3382873D01*
X5713628Y3369411D01*
X5718860Y3356508D01*
X5725668Y3344418D01*
X5733999Y3333292D01*
X5743651Y3323285D01*
X5754522Y3314598D01*
X5766409Y3307435D01*
X5779109Y3301796D01*
X5792470Y3297834D01*
X5806186Y3295599D01*
G37*
G36*
X8360054Y3295142D02*
G01*
X8373922Y3296513D01*
X8387486Y3299612D01*
X8400491Y3304387D01*
X8412835Y3310839D01*
X8424265Y3318764D01*
X8434527Y3328111D01*
X8443569Y3338728D01*
X8449919Y3348482D01*
X8452154Y3350920D01*
X8455101Y3352546D01*
X8458403Y3353104D01*
X9332315Y3353104D01*
X9335871Y3352444D01*
X9338970Y3350615D01*
X9340596Y3349193D01*
X9354667Y3339439D01*
X9369755Y3331260D01*
X9385604Y3324809D01*
X9402114Y3320186D01*
X9418980Y3317341D01*
X9436100Y3316427D01*
X9453219Y3317341D01*
X9470085Y3320186D01*
X9486595Y3324809D01*
X9502444Y3331260D01*
X9517532Y3339439D01*
X9531604Y3349193D01*
X9544507Y3360470D01*
X9556140Y3373069D01*
X9566249Y3386836D01*
X9574834Y3401669D01*
X9581743Y3417366D01*
X9586823Y3433724D01*
X9590125Y3450539D01*
X9591548Y3467608D01*
X9591040Y3484727D01*
X9588703Y3501694D01*
X9584486Y3518306D01*
X9578492Y3534359D01*
X9570770Y3549650D01*
X9561372Y3563975D01*
X9550501Y3577234D01*
X9538208Y3589172D01*
X9524695Y3599687D01*
X9510115Y3608628D01*
X9494621Y3615944D01*
X9478416Y3621532D01*
X9461703Y3625291D01*
X9444685Y3627170D01*
X9427514Y3627170D01*
X9410496Y3625291D01*
X9393783Y3621532D01*
X9377578Y3615944D01*
X9362084Y3608628D01*
X9347504Y3599687D01*
X9333992Y3589172D01*
X9321698Y3577234D01*
X9310827Y3563975D01*
X9301429Y3549650D01*
X9293707Y3534359D01*
X9287713Y3518306D01*
X9283496Y3501694D01*
X9281160Y3484727D01*
X9280652Y3467608D01*
X9280855Y3465118D01*
X9280347Y3460953D01*
X9278213Y3457397D01*
X9274810Y3454958D01*
X9270746Y3454095D01*
X8458403Y3454095D01*
X8455101Y3454654D01*
X8452154Y3456279D01*
X8449919Y3458718D01*
X8443569Y3468471D01*
X8434527Y3479088D01*
X8424265Y3488436D01*
X8412835Y3496360D01*
X8400491Y3502812D01*
X8387486Y3507587D01*
X8373922Y3510686D01*
X8360054Y3512058D01*
X8346186Y3511600D01*
X8332470Y3509365D01*
X8319109Y3505403D01*
X8306409Y3499764D01*
X8294522Y3492601D01*
X8283651Y3483914D01*
X8273999Y3473907D01*
X8265668Y3462782D01*
X8258860Y3450691D01*
X8253628Y3437788D01*
X8250123Y3424326D01*
X8248345Y3410559D01*
X8248345Y3396640D01*
X8250123Y3382873D01*
X8253628Y3369411D01*
X8258860Y3356508D01*
X8265668Y3344418D01*
X8273999Y3333292D01*
X8283651Y3323285D01*
X8294522Y3314598D01*
X8306409Y3307435D01*
X8319109Y3301796D01*
X8332470Y3297834D01*
X8346186Y3295599D01*
G37*
G36*
X4016654Y3307842D02*
G01*
X4030522Y3309213D01*
X4044086Y3312312D01*
X4057091Y3317087D01*
X4069435Y3323539D01*
X4080865Y3331464D01*
X4091127Y3340811D01*
X4100169Y3351428D01*
X4107738Y3363061D01*
X4113784Y3375609D01*
X4118152Y3388766D01*
X4120794Y3402431D01*
X4121708Y3416300D01*
X4120794Y3430168D01*
X4118152Y3443833D01*
X4113784Y3456990D01*
X4107738Y3469538D01*
X4100169Y3481171D01*
X4091127Y3491788D01*
X4080865Y3501136D01*
X4069435Y3509060D01*
X4057091Y3515512D01*
X4044086Y3520287D01*
X4030522Y3523386D01*
X4016654Y3524758D01*
X4002786Y3524300D01*
X3989070Y3522065D01*
X3975709Y3518103D01*
X3963009Y3512464D01*
X3951122Y3505301D01*
X3940251Y3496614D01*
X3930599Y3486607D01*
X3922268Y3475482D01*
X3915460Y3463391D01*
X3910228Y3450488D01*
X3906723Y3437026D01*
X3904945Y3423259D01*
X3904945Y3409340D01*
X3906723Y3395573D01*
X3910228Y3382111D01*
X3915460Y3369208D01*
X3922268Y3357118D01*
X3930599Y3345992D01*
X3940251Y3335985D01*
X3951122Y3327298D01*
X3963009Y3320135D01*
X3975709Y3314496D01*
X3989070Y3310534D01*
X4002786Y3308299D01*
G37*
G36*
X1518564Y3317849D02*
G01*
X1529435Y3323539D01*
X1540865Y3331464D01*
X1551127Y3340811D01*
X1560169Y3351428D01*
X1567738Y3363061D01*
X1571548Y3370935D01*
X1518564Y3370935D01*
G37*
G36*
X1427835Y3317951D02*
G01*
X1427835Y3370935D01*
X1374749Y3370935D01*
X1375460Y3369208D01*
X1382268Y3357118D01*
X1390599Y3345992D01*
X1400251Y3335985D01*
X1411122Y3327298D01*
X1423009Y3320135D01*
G37*
G36*
X1374749Y3461664D02*
G01*
X1427835Y3461664D01*
X1427835Y3514648D01*
X1423009Y3512464D01*
X1411122Y3505301D01*
X1400251Y3496614D01*
X1390599Y3486607D01*
X1382268Y3475482D01*
X1375460Y3463391D01*
G37*
G36*
X1518564Y3461664D02*
G01*
X1571548Y3461664D01*
X1567738Y3469538D01*
X1560169Y3481171D01*
X1551127Y3491788D01*
X1540865Y3501136D01*
X1529435Y3509060D01*
X1518564Y3514750D01*
G37*
G36*
X1028700Y3542131D02*
G01*
X1043178Y3543046D01*
X1057402Y3545738D01*
X1071219Y3550208D01*
X1084326Y3556406D01*
X1096568Y3564178D01*
X1107744Y3573424D01*
X1117701Y3583990D01*
X1126185Y3595725D01*
X1133195Y3608425D01*
X1135176Y3613353D01*
X1137361Y3616756D01*
X1140663Y3618992D01*
X1144625Y3619804D01*
X1371447Y3619804D01*
X1374952Y3619144D01*
X1378051Y3617366D01*
X1380286Y3614623D01*
X1382268Y3611118D01*
X1390599Y3599992D01*
X1400251Y3589985D01*
X1411122Y3581298D01*
X1423009Y3574135D01*
X1435709Y3568496D01*
X1449070Y3564534D01*
X1462786Y3562299D01*
X1476654Y3561842D01*
X1490522Y3563213D01*
X1504086Y3566312D01*
X1517091Y3571087D01*
X1529435Y3577539D01*
X1540865Y3585464D01*
X1551127Y3594811D01*
X1560169Y3605428D01*
X1567738Y3617061D01*
X1573784Y3629609D01*
X1578152Y3642766D01*
X1580794Y3656431D01*
X1581708Y3670300D01*
X1580794Y3684168D01*
X1578152Y3697833D01*
X1573784Y3710990D01*
X1567738Y3723538D01*
X1560169Y3735171D01*
X1551127Y3745788D01*
X1540865Y3755136D01*
X1529435Y3763060D01*
X1517091Y3769512D01*
X1504086Y3774287D01*
X1490522Y3777386D01*
X1476654Y3778758D01*
X1462786Y3778300D01*
X1449070Y3776065D01*
X1435709Y3772103D01*
X1423009Y3766464D01*
X1411122Y3759301D01*
X1400251Y3750614D01*
X1390599Y3740607D01*
X1382268Y3729482D01*
X1380286Y3725976D01*
X1378051Y3723233D01*
X1374952Y3721455D01*
X1371447Y3720795D01*
X1130401Y3720795D01*
X1127302Y3721303D01*
X1124458Y3722725D01*
X1122222Y3725011D01*
X1117701Y3731209D01*
X1107744Y3741775D01*
X1096568Y3751021D01*
X1084326Y3758793D01*
X1071219Y3764991D01*
X1057402Y3769461D01*
X1043178Y3772154D01*
X1028700Y3773068D01*
X1014221Y3772154D01*
X999998Y3769461D01*
X986180Y3764991D01*
X973074Y3758793D01*
X960831Y3751021D01*
X949655Y3741775D01*
X939698Y3731209D01*
X931214Y3719474D01*
X924204Y3706774D01*
X918870Y3693312D01*
X915263Y3679240D01*
X913434Y3664864D01*
X913434Y3650335D01*
X915263Y3635959D01*
X918870Y3621887D01*
X924204Y3608425D01*
X931214Y3595725D01*
X939698Y3583990D01*
X949655Y3573424D01*
X960831Y3564178D01*
X973074Y3556406D01*
X986180Y3550208D01*
X999998Y3545738D01*
X1014221Y3543046D01*
G37*
G36*
X8360054Y3549142D02*
G01*
X8373922Y3550513D01*
X8387486Y3553612D01*
X8400491Y3558387D01*
X8412835Y3564839D01*
X8424265Y3572764D01*
X8434527Y3582111D01*
X8443569Y3592728D01*
X8451138Y3604361D01*
X8457184Y3616909D01*
X8461552Y3630066D01*
X8464194Y3643731D01*
X8465108Y3657600D01*
X8464194Y3671468D01*
X8461552Y3685133D01*
X8457184Y3698290D01*
X8451138Y3710838D01*
X8443569Y3722471D01*
X8434527Y3733088D01*
X8424265Y3742436D01*
X8412835Y3750360D01*
X8400491Y3756812D01*
X8387486Y3761587D01*
X8373922Y3764686D01*
X8360054Y3766058D01*
X8346186Y3765600D01*
X8332470Y3763365D01*
X8319109Y3759403D01*
X8306409Y3753764D01*
X8294522Y3746601D01*
X8283651Y3737914D01*
X8273999Y3727907D01*
X8265668Y3716782D01*
X8258860Y3704691D01*
X8253628Y3691788D01*
X8250123Y3678326D01*
X8248345Y3664559D01*
X8248345Y3650640D01*
X8250123Y3636873D01*
X8253628Y3623411D01*
X8258860Y3610508D01*
X8265668Y3598418D01*
X8273999Y3587292D01*
X8283651Y3577285D01*
X8294522Y3568598D01*
X8306409Y3561435D01*
X8319109Y3555796D01*
X8332470Y3551834D01*
X8346186Y3549599D01*
G37*
G36*
X4016654Y3561842D02*
G01*
X4030522Y3563213D01*
X4044086Y3566312D01*
X4057091Y3571087D01*
X4069435Y3577539D01*
X4080865Y3585464D01*
X4091127Y3594811D01*
X4100169Y3605428D01*
X4107738Y3617061D01*
X4113784Y3629609D01*
X4118152Y3642766D01*
X4120794Y3656431D01*
X4121708Y3670300D01*
X4120794Y3684168D01*
X4118152Y3697833D01*
X4113784Y3710990D01*
X4107738Y3723538D01*
X4100169Y3735171D01*
X4091127Y3745788D01*
X4080865Y3755136D01*
X4069435Y3763060D01*
X4057091Y3769512D01*
X4044086Y3774287D01*
X4030522Y3777386D01*
X4016654Y3778758D01*
X4002786Y3778300D01*
X3989070Y3776065D01*
X3975709Y3772103D01*
X3963009Y3766464D01*
X3951122Y3759301D01*
X3940251Y3750614D01*
X3930599Y3740607D01*
X3922268Y3729482D01*
X3915460Y3717391D01*
X3910228Y3704488D01*
X3906723Y3691026D01*
X3904945Y3677259D01*
X3904945Y3663340D01*
X3906723Y3649573D01*
X3910228Y3636111D01*
X3915460Y3623208D01*
X3922268Y3611118D01*
X3930599Y3599992D01*
X3940251Y3589985D01*
X3951122Y3581298D01*
X3963009Y3574135D01*
X3975709Y3568496D01*
X3989070Y3564534D01*
X4002786Y3562299D01*
G37*
G36*
X1028700Y3796131D02*
G01*
X1043178Y3797046D01*
X1057402Y3799738D01*
X1071219Y3804208D01*
X1084326Y3810406D01*
X1096568Y3818178D01*
X1107744Y3827424D01*
X1117701Y3837990D01*
X1126185Y3849725D01*
X1133195Y3862425D01*
X1135176Y3867353D01*
X1137361Y3870756D01*
X1140663Y3872992D01*
X1144625Y3873804D01*
X1371447Y3873804D01*
X1374952Y3873144D01*
X1378051Y3871366D01*
X1380286Y3868623D01*
X1382268Y3865118D01*
X1390599Y3853992D01*
X1400251Y3843985D01*
X1411122Y3835298D01*
X1423009Y3828135D01*
X1435709Y3822496D01*
X1449070Y3818534D01*
X1462786Y3816299D01*
X1476654Y3815842D01*
X1490522Y3817213D01*
X1504086Y3820312D01*
X1517091Y3825087D01*
X1529435Y3831539D01*
X1540865Y3839464D01*
X1551127Y3848811D01*
X1560169Y3859428D01*
X1567738Y3871061D01*
X1573784Y3883609D01*
X1578152Y3896766D01*
X1580794Y3910431D01*
X1581708Y3924300D01*
X1580794Y3938168D01*
X1578152Y3951833D01*
X1573784Y3964990D01*
X1567738Y3977538D01*
X1560169Y3989171D01*
X1551127Y3999788D01*
X1540865Y4009136D01*
X1529435Y4017060D01*
X1517091Y4023512D01*
X1504086Y4028287D01*
X1490522Y4031386D01*
X1476654Y4032758D01*
X1462786Y4032300D01*
X1449070Y4030065D01*
X1435709Y4026103D01*
X1423009Y4020464D01*
X1411122Y4013301D01*
X1400251Y4004614D01*
X1390599Y3994607D01*
X1382268Y3983482D01*
X1380286Y3979976D01*
X1378051Y3977233D01*
X1374952Y3975455D01*
X1371447Y3974795D01*
X1130401Y3974795D01*
X1127302Y3975303D01*
X1124458Y3976725D01*
X1122222Y3979011D01*
X1117701Y3985209D01*
X1107744Y3995775D01*
X1096568Y4005021D01*
X1084326Y4012793D01*
X1071219Y4018991D01*
X1057402Y4023461D01*
X1043178Y4026154D01*
X1028700Y4027068D01*
X1014221Y4026154D01*
X999998Y4023461D01*
X986180Y4018991D01*
X973074Y4012793D01*
X960831Y4005021D01*
X949655Y3995775D01*
X939698Y3985209D01*
X931214Y3973474D01*
X924204Y3960774D01*
X918870Y3947312D01*
X915263Y3933240D01*
X913434Y3918864D01*
X913434Y3904335D01*
X915263Y3889959D01*
X918870Y3875887D01*
X924204Y3862425D01*
X931214Y3849725D01*
X939698Y3837990D01*
X949655Y3827424D01*
X960831Y3818178D01*
X973074Y3810406D01*
X986180Y3804208D01*
X999998Y3799738D01*
X1014221Y3797046D01*
G37*
G36*
X8360054Y3803142D02*
G01*
X8373922Y3804513D01*
X8387486Y3807612D01*
X8400491Y3812387D01*
X8412835Y3818839D01*
X8424265Y3826764D01*
X8434527Y3836111D01*
X8443569Y3846728D01*
X8451138Y3858361D01*
X8457184Y3870909D01*
X8461552Y3884066D01*
X8464194Y3897731D01*
X8465108Y3911600D01*
X8464194Y3925468D01*
X8461552Y3939133D01*
X8457184Y3952290D01*
X8451138Y3964838D01*
X8443569Y3976471D01*
X8434527Y3987088D01*
X8424265Y3996436D01*
X8412835Y4004360D01*
X8400491Y4010812D01*
X8387486Y4015587D01*
X8373922Y4018686D01*
X8360054Y4020058D01*
X8346186Y4019600D01*
X8332470Y4017365D01*
X8319109Y4013403D01*
X8306409Y4007764D01*
X8294522Y4000601D01*
X8283651Y3991914D01*
X8273999Y3981907D01*
X8265668Y3970782D01*
X8258860Y3958691D01*
X8253628Y3945788D01*
X8250123Y3932326D01*
X8248345Y3918559D01*
X8248345Y3904640D01*
X8250123Y3890873D01*
X8253628Y3877411D01*
X8258860Y3864508D01*
X8265668Y3852418D01*
X8273999Y3841292D01*
X8283651Y3831285D01*
X8294522Y3822598D01*
X8306409Y3815435D01*
X8319109Y3809796D01*
X8332470Y3805834D01*
X8346186Y3803599D01*
G37*
G36*
X5820054Y3803142D02*
G01*
X5833922Y3804513D01*
X5847486Y3807612D01*
X5860491Y3812387D01*
X5872835Y3818839D01*
X5884265Y3826764D01*
X5894527Y3836111D01*
X5903569Y3846728D01*
X5911138Y3858361D01*
X5917184Y3870909D01*
X5921552Y3884066D01*
X5924194Y3897731D01*
X5925108Y3911600D01*
X5924194Y3925468D01*
X5921552Y3939133D01*
X5917184Y3952290D01*
X5911138Y3964838D01*
X5903569Y3976471D01*
X5894527Y3987088D01*
X5884265Y3996436D01*
X5872835Y4004360D01*
X5860491Y4010812D01*
X5847486Y4015587D01*
X5833922Y4018686D01*
X5820054Y4020058D01*
X5806186Y4019600D01*
X5792470Y4017365D01*
X5790387Y4016756D01*
X5786780Y4016349D01*
X5783275Y4017264D01*
X5780328Y4019296D01*
X5492597Y4307027D01*
X5489143Y4310176D01*
X5485688Y4312869D01*
X5481980Y4315206D01*
X5478068Y4317238D01*
X5473954Y4318965D01*
X5469788Y4320286D01*
X5465470Y4321200D01*
X5461101Y4321810D01*
X5456478Y4322013D01*
X4588256Y4322013D01*
X4585157Y4322470D01*
X4582312Y4323892D01*
X4580077Y4326128D01*
X4572558Y4336389D01*
X4563211Y4346041D01*
X4552645Y4354322D01*
X4541113Y4361180D01*
X4538522Y4362297D01*
X4535271Y4364482D01*
X4533087Y4367784D01*
X4532325Y4371695D01*
X4533138Y4375556D01*
X4535322Y4378858D01*
X4538624Y4381042D01*
X4542485Y4381804D01*
X5059273Y4381804D01*
X5062778Y4381144D01*
X5065877Y4379366D01*
X5070652Y4375302D01*
X5080050Y4369511D01*
X5090261Y4365294D01*
X5101031Y4362704D01*
X5112054Y4361840D01*
X5123078Y4362704D01*
X5133848Y4365294D01*
X5144058Y4369511D01*
X5153456Y4375302D01*
X5161889Y4382465D01*
X5169052Y4390898D01*
X5174843Y4400296D01*
X5179060Y4410506D01*
X5181650Y4421276D01*
X5182514Y4432300D01*
X5181650Y4443323D01*
X5179060Y4454093D01*
X5174843Y4464304D01*
X5169052Y4473702D01*
X5161889Y4482134D01*
X5153456Y4489297D01*
X5144058Y4495088D01*
X5133848Y4499305D01*
X5123078Y4501896D01*
X5112054Y4502759D01*
X5101031Y4501896D01*
X5090261Y4499305D01*
X5080050Y4495088D01*
X5070652Y4489297D01*
X5065877Y4485233D01*
X5062778Y4483455D01*
X5059273Y4482795D01*
X4115003Y4482795D01*
X4111701Y4483354D01*
X4108754Y4484979D01*
X4106519Y4487418D01*
X4100169Y4497171D01*
X4091127Y4507788D01*
X4080865Y4517136D01*
X4069435Y4525060D01*
X4057091Y4531512D01*
X4044086Y4536287D01*
X4030522Y4539386D01*
X4016654Y4540758D01*
X4002786Y4540300D01*
X3989070Y4538065D01*
X3975709Y4534103D01*
X3963009Y4528464D01*
X3951122Y4521301D01*
X3940251Y4512614D01*
X3930599Y4502607D01*
X3922268Y4491482D01*
X3915460Y4479391D01*
X3910228Y4466488D01*
X3906723Y4453026D01*
X3904945Y4439259D01*
X3904945Y4425340D01*
X3906723Y4411573D01*
X3910228Y4398111D01*
X3915460Y4385208D01*
X3922268Y4373118D01*
X3930599Y4361992D01*
X3940251Y4351985D01*
X3951122Y4343298D01*
X3963009Y4336135D01*
X3975709Y4330496D01*
X3989070Y4326534D01*
X4002786Y4324299D01*
X4016654Y4323842D01*
X4030522Y4325213D01*
X4044086Y4328312D01*
X4057091Y4333087D01*
X4069435Y4339539D01*
X4080865Y4347464D01*
X4091127Y4356811D01*
X4100169Y4367428D01*
X4106519Y4377182D01*
X4108754Y4379620D01*
X4111701Y4381246D01*
X4115003Y4381804D01*
X4449114Y4381804D01*
X4452975Y4381042D01*
X4456277Y4378858D01*
X4458462Y4375556D01*
X4459274Y4371695D01*
X4458512Y4367784D01*
X4456328Y4364482D01*
X4453077Y4362297D01*
X4450486Y4361180D01*
X4438954Y4354322D01*
X4428388Y4346041D01*
X4419041Y4336389D01*
X4411116Y4325569D01*
X4404664Y4313783D01*
X4399838Y4301286D01*
X4396740Y4288231D01*
X4395368Y4274870D01*
X4395825Y4261459D01*
X4398060Y4248200D01*
X4402023Y4235399D01*
X4407662Y4223207D01*
X4414926Y4211878D01*
X4423562Y4201668D01*
X4433519Y4192625D01*
X4444593Y4185056D01*
X4456582Y4179011D01*
X4469231Y4174591D01*
X4482388Y4171899D01*
X4495800Y4171035D01*
X4509211Y4171899D01*
X4522368Y4174591D01*
X4535017Y4179011D01*
X4547006Y4185056D01*
X4558080Y4192625D01*
X4568037Y4201668D01*
X4576673Y4211878D01*
X4579518Y4216298D01*
X4581753Y4218787D01*
X4584750Y4220413D01*
X4588052Y4220972D01*
X5431586Y4220972D01*
X5435447Y4220210D01*
X5438749Y4218025D01*
X5708954Y3947820D01*
X5710986Y3944924D01*
X5711901Y3941521D01*
X5711596Y3938066D01*
X5710123Y3932326D01*
X5708345Y3918559D01*
X5708345Y3904640D01*
X5710123Y3890873D01*
X5713628Y3877411D01*
X5718860Y3864508D01*
X5725668Y3852418D01*
X5733999Y3841292D01*
X5743651Y3831285D01*
X5754522Y3822598D01*
X5766409Y3815435D01*
X5779109Y3809796D01*
X5792470Y3805834D01*
X5806186Y3803599D01*
G37*
G36*
X4016654Y3815842D02*
G01*
X4030522Y3817213D01*
X4044086Y3820312D01*
X4057091Y3825087D01*
X4069435Y3831539D01*
X4080865Y3839464D01*
X4091127Y3848811D01*
X4100169Y3859428D01*
X4107738Y3871061D01*
X4113784Y3883609D01*
X4118152Y3896766D01*
X4120794Y3910431D01*
X4121708Y3924300D01*
X4120794Y3938168D01*
X4118152Y3951833D01*
X4113784Y3964990D01*
X4107738Y3977538D01*
X4100169Y3989171D01*
X4091127Y3999788D01*
X4080865Y4009136D01*
X4069435Y4017060D01*
X4057091Y4023512D01*
X4044086Y4028287D01*
X4030522Y4031386D01*
X4016654Y4032758D01*
X4002786Y4032300D01*
X3989070Y4030065D01*
X3975709Y4026103D01*
X3963009Y4020464D01*
X3951122Y4013301D01*
X3940251Y4004614D01*
X3930599Y3994607D01*
X3922268Y3983482D01*
X3915460Y3971391D01*
X3910228Y3958488D01*
X3906723Y3945026D01*
X3904945Y3931259D01*
X3904945Y3917340D01*
X3906723Y3903573D01*
X3910228Y3890111D01*
X3915460Y3877208D01*
X3922268Y3865118D01*
X3930599Y3853992D01*
X3940251Y3843985D01*
X3951122Y3835298D01*
X3963009Y3828135D01*
X3975709Y3822496D01*
X3989070Y3818534D01*
X4002786Y3816299D01*
G37*
G36*
X9367266Y3932631D02*
G01*
X9367266Y4003040D01*
X9296755Y4003040D01*
X9297365Y4001668D01*
X9305950Y3986834D01*
X9316059Y3973068D01*
X9327692Y3960469D01*
X9340596Y3949192D01*
X9354667Y3939438D01*
G37*
G36*
X9504934Y3932631D02*
G01*
X9517532Y3939438D01*
X9531604Y3949192D01*
X9544507Y3960469D01*
X9556140Y3973068D01*
X9566249Y3986834D01*
X9574834Y4001668D01*
X9575444Y4003040D01*
X9504934Y4003040D01*
G37*
G36*
X1028700Y4050131D02*
G01*
X1043178Y4051046D01*
X1057402Y4053738D01*
X1071219Y4058208D01*
X1084326Y4064406D01*
X1096568Y4072178D01*
X1107744Y4081424D01*
X1117701Y4091990D01*
X1126185Y4103725D01*
X1133195Y4116425D01*
X1135176Y4121353D01*
X1137361Y4124756D01*
X1140663Y4126992D01*
X1144625Y4127804D01*
X1371447Y4127804D01*
X1374952Y4127144D01*
X1378051Y4125366D01*
X1380286Y4122623D01*
X1382268Y4119118D01*
X1390599Y4107992D01*
X1400251Y4097985D01*
X1411122Y4089298D01*
X1423009Y4082135D01*
X1435709Y4076496D01*
X1449070Y4072534D01*
X1462786Y4070299D01*
X1476654Y4069842D01*
X1490522Y4071213D01*
X1504086Y4074312D01*
X1517091Y4079087D01*
X1529435Y4085539D01*
X1540865Y4093464D01*
X1551127Y4102811D01*
X1560169Y4113428D01*
X1567738Y4125061D01*
X1573784Y4137609D01*
X1578152Y4150766D01*
X1580794Y4164431D01*
X1581708Y4178300D01*
X1580794Y4192168D01*
X1578152Y4205833D01*
X1573784Y4218990D01*
X1567738Y4231538D01*
X1560169Y4243171D01*
X1551127Y4253788D01*
X1540865Y4263136D01*
X1529435Y4271060D01*
X1517091Y4277512D01*
X1504086Y4282287D01*
X1490522Y4285386D01*
X1476654Y4286758D01*
X1462786Y4286300D01*
X1449070Y4284065D01*
X1435709Y4280103D01*
X1423009Y4274464D01*
X1411122Y4267301D01*
X1400251Y4258614D01*
X1390599Y4248607D01*
X1382268Y4237482D01*
X1380286Y4233976D01*
X1378051Y4231233D01*
X1374952Y4229455D01*
X1371447Y4228795D01*
X1130401Y4228795D01*
X1127302Y4229303D01*
X1124458Y4230725D01*
X1122222Y4233011D01*
X1117701Y4239209D01*
X1107744Y4249775D01*
X1096568Y4259021D01*
X1084326Y4266793D01*
X1071219Y4272991D01*
X1057402Y4277461D01*
X1043178Y4280154D01*
X1028700Y4281068D01*
X1014221Y4280154D01*
X999998Y4277461D01*
X986180Y4272991D01*
X973074Y4266793D01*
X960831Y4259021D01*
X949655Y4249775D01*
X939698Y4239209D01*
X931214Y4227474D01*
X924204Y4214774D01*
X918870Y4201312D01*
X915263Y4187240D01*
X913434Y4172864D01*
X913434Y4158335D01*
X915263Y4143959D01*
X918870Y4129887D01*
X924204Y4116425D01*
X931214Y4103725D01*
X939698Y4091990D01*
X949655Y4081424D01*
X960831Y4072178D01*
X973074Y4064406D01*
X986180Y4058208D01*
X999998Y4053738D01*
X1014221Y4051046D01*
G37*
G36*
X5820054Y4057142D02*
G01*
X5833922Y4058513D01*
X5847486Y4061612D01*
X5860491Y4066387D01*
X5872835Y4072839D01*
X5884265Y4080764D01*
X5894527Y4090111D01*
X5903569Y4100728D01*
X5911138Y4112361D01*
X5917184Y4124909D01*
X5921552Y4138066D01*
X5924194Y4151731D01*
X5925108Y4165600D01*
X5924194Y4179468D01*
X5921552Y4193133D01*
X5917184Y4206290D01*
X5911138Y4218838D01*
X5903569Y4230471D01*
X5894527Y4241088D01*
X5884265Y4250436D01*
X5872835Y4258360D01*
X5860491Y4264812D01*
X5847486Y4269587D01*
X5833922Y4272686D01*
X5820054Y4274058D01*
X5806186Y4273600D01*
X5792470Y4271365D01*
X5779109Y4267403D01*
X5766409Y4261764D01*
X5754522Y4254601D01*
X5743651Y4245914D01*
X5733999Y4235907D01*
X5725668Y4224782D01*
X5718860Y4212691D01*
X5713628Y4199788D01*
X5710123Y4186326D01*
X5708345Y4172559D01*
X5708345Y4158640D01*
X5710123Y4144873D01*
X5713628Y4131411D01*
X5718860Y4118508D01*
X5725668Y4106418D01*
X5733999Y4095292D01*
X5743651Y4085285D01*
X5754522Y4076598D01*
X5766409Y4069435D01*
X5779109Y4063796D01*
X5792470Y4059834D01*
X5806186Y4057599D01*
G37*
G36*
X8401964Y4067149D02*
G01*
X8412835Y4072839D01*
X8424265Y4080764D01*
X8434527Y4090111D01*
X8443569Y4100728D01*
X8451138Y4112361D01*
X8454948Y4120235D01*
X8401964Y4120235D01*
G37*
G36*
X8311235Y4067251D02*
G01*
X8311235Y4120235D01*
X8258149Y4120235D01*
X8258860Y4118508D01*
X8265668Y4106418D01*
X8273999Y4095292D01*
X8283651Y4085285D01*
X8294522Y4076598D01*
X8306409Y4069435D01*
G37*
G36*
X4016654Y4069842D02*
G01*
X4030522Y4071213D01*
X4044086Y4074312D01*
X4057091Y4079087D01*
X4069435Y4085539D01*
X4080865Y4093464D01*
X4091127Y4102811D01*
X4100169Y4113428D01*
X4107738Y4125061D01*
X4113784Y4137609D01*
X4118152Y4150766D01*
X4120794Y4164431D01*
X4121708Y4178300D01*
X4120794Y4192168D01*
X4118152Y4205833D01*
X4113784Y4218990D01*
X4107738Y4231538D01*
X4100169Y4243171D01*
X4091127Y4253788D01*
X4080865Y4263136D01*
X4069435Y4271060D01*
X4057091Y4277512D01*
X4044086Y4282287D01*
X4030522Y4285386D01*
X4016654Y4286758D01*
X4002786Y4286300D01*
X3989070Y4284065D01*
X3975709Y4280103D01*
X3963009Y4274464D01*
X3951122Y4267301D01*
X3940251Y4258614D01*
X3937762Y4256024D01*
X3934460Y4253738D01*
X3930548Y4252925D01*
X3926586Y4253687D01*
X3923284Y4255922D01*
X3855516Y4323638D01*
X3853484Y4326585D01*
X3852570Y4330039D01*
X3852062Y4336288D01*
X3849471Y4347057D01*
X3845255Y4357268D01*
X3839464Y4366666D01*
X3832301Y4375099D01*
X3823868Y4382262D01*
X3814470Y4388053D01*
X3804259Y4392269D01*
X3793490Y4394860D01*
X3782466Y4395724D01*
X3771442Y4394860D01*
X3760673Y4392269D01*
X3750462Y4388053D01*
X3741064Y4382262D01*
X3732631Y4375099D01*
X3725468Y4366666D01*
X3719677Y4357268D01*
X3715461Y4347057D01*
X3712870Y4336288D01*
X3712006Y4325264D01*
X3712870Y4314240D01*
X3715461Y4303471D01*
X3719677Y4293260D01*
X3725468Y4283862D01*
X3732631Y4275429D01*
X3741064Y4268266D01*
X3750462Y4262475D01*
X3760673Y4258259D01*
X3771442Y4255668D01*
X3777691Y4255160D01*
X3781145Y4254246D01*
X3784092Y4252214D01*
X3893565Y4142740D01*
X3896969Y4139641D01*
X3900474Y4136948D01*
X3904183Y4134561D01*
X3907993Y4132579D01*
X3913225Y4130548D01*
X3916172Y4128719D01*
X3918356Y4126077D01*
X3922268Y4119118D01*
X3930599Y4107992D01*
X3940251Y4097985D01*
X3951122Y4089298D01*
X3963009Y4082135D01*
X3975709Y4076496D01*
X3989070Y4072534D01*
X4002786Y4070299D01*
G37*
G36*
X9296958Y4140758D02*
G01*
X9367266Y4140758D01*
X9367266Y4211066D01*
X9362084Y4208627D01*
X9347504Y4199686D01*
X9333992Y4189171D01*
X9321698Y4177233D01*
X9310827Y4163974D01*
X9301429Y4149648D01*
G37*
G36*
X9504934Y4140758D02*
G01*
X9575241Y4140758D01*
X9570770Y4149648D01*
X9561372Y4163974D01*
X9550501Y4177233D01*
X9538208Y4189171D01*
X9524695Y4199686D01*
X9510115Y4208627D01*
X9504934Y4211066D01*
G37*
G36*
X8258149Y4210964D02*
G01*
X8311235Y4210964D01*
X8311235Y4263948D01*
X8306409Y4261764D01*
X8294522Y4254601D01*
X8283651Y4245914D01*
X8273999Y4235907D01*
X8265668Y4224782D01*
X8258860Y4212691D01*
G37*
G36*
X8401964Y4210964D02*
G01*
X8454948Y4210964D01*
X8451138Y4218838D01*
X8443569Y4230471D01*
X8434527Y4241088D01*
X8424265Y4250436D01*
X8412835Y4258360D01*
X8401964Y4264050D01*
G37*
G36*
X1028700Y4304131D02*
G01*
X1043178Y4305046D01*
X1057402Y4307738D01*
X1071219Y4312208D01*
X1084326Y4318406D01*
X1096568Y4326178D01*
X1107744Y4335424D01*
X1117701Y4345990D01*
X1126185Y4357725D01*
X1133195Y4370425D01*
X1135176Y4375353D01*
X1137361Y4378756D01*
X1140663Y4380992D01*
X1144625Y4381804D01*
X1371447Y4381804D01*
X1374952Y4381144D01*
X1378051Y4379366D01*
X1380286Y4376623D01*
X1382268Y4373118D01*
X1390599Y4361992D01*
X1400251Y4351985D01*
X1411122Y4343298D01*
X1423009Y4336135D01*
X1435709Y4330496D01*
X1449070Y4326534D01*
X1462786Y4324299D01*
X1476654Y4323842D01*
X1490522Y4325213D01*
X1504086Y4328312D01*
X1517091Y4333087D01*
X1529435Y4339539D01*
X1540865Y4347464D01*
X1551127Y4356811D01*
X1560169Y4367428D01*
X1567738Y4379061D01*
X1573784Y4391609D01*
X1578152Y4404766D01*
X1580794Y4418431D01*
X1581708Y4432300D01*
X1580794Y4446168D01*
X1578152Y4459833D01*
X1573784Y4472990D01*
X1567738Y4485538D01*
X1560169Y4497171D01*
X1551127Y4507788D01*
X1540865Y4517136D01*
X1529435Y4525060D01*
X1517091Y4531512D01*
X1504086Y4536287D01*
X1490522Y4539386D01*
X1476654Y4540758D01*
X1462786Y4540300D01*
X1449070Y4538065D01*
X1435709Y4534103D01*
X1423009Y4528464D01*
X1411122Y4521301D01*
X1400251Y4512614D01*
X1390599Y4502607D01*
X1382268Y4491482D01*
X1380286Y4487976D01*
X1378051Y4485233D01*
X1374952Y4483455D01*
X1371447Y4482795D01*
X1130401Y4482795D01*
X1127302Y4483303D01*
X1124458Y4484725D01*
X1122222Y4487011D01*
X1117701Y4493209D01*
X1107744Y4503775D01*
X1096568Y4513021D01*
X1084326Y4520793D01*
X1071219Y4526991D01*
X1057402Y4531461D01*
X1043178Y4534154D01*
X1028700Y4535068D01*
X1014221Y4534154D01*
X999998Y4531461D01*
X986180Y4526991D01*
X973074Y4520793D01*
X960831Y4513021D01*
X949655Y4503775D01*
X939698Y4493209D01*
X931214Y4481474D01*
X924204Y4468774D01*
X918870Y4455312D01*
X915263Y4441240D01*
X913434Y4426864D01*
X913434Y4412335D01*
X915263Y4397959D01*
X918870Y4383887D01*
X924204Y4370425D01*
X931214Y4357725D01*
X939698Y4345990D01*
X949655Y4335424D01*
X960831Y4326178D01*
X973074Y4318406D01*
X986180Y4312208D01*
X999998Y4307738D01*
X1014221Y4305046D01*
G37*
G36*
X5820054Y4311142D02*
G01*
X5833922Y4312513D01*
X5847486Y4315612D01*
X5860491Y4320387D01*
X5872835Y4326839D01*
X5884265Y4334764D01*
X5894527Y4344111D01*
X5903569Y4354728D01*
X5911138Y4366361D01*
X5917184Y4378909D01*
X5921552Y4392066D01*
X5924194Y4405731D01*
X5925108Y4419600D01*
X5924194Y4433468D01*
X5921552Y4447133D01*
X5917184Y4460290D01*
X5911138Y4472838D01*
X5903569Y4484471D01*
X5894527Y4495088D01*
X5884265Y4504436D01*
X5872835Y4512360D01*
X5860491Y4518812D01*
X5847486Y4523587D01*
X5833922Y4526686D01*
X5820054Y4528058D01*
X5806186Y4527600D01*
X5792470Y4525365D01*
X5779109Y4521403D01*
X5766409Y4515764D01*
X5754522Y4508601D01*
X5743651Y4499914D01*
X5733999Y4489907D01*
X5725668Y4478782D01*
X5718860Y4466691D01*
X5713628Y4453788D01*
X5710123Y4440326D01*
X5708345Y4426559D01*
X5708345Y4412640D01*
X5710123Y4398873D01*
X5713628Y4385411D01*
X5718860Y4372508D01*
X5725668Y4360418D01*
X5733999Y4349292D01*
X5743651Y4339285D01*
X5754522Y4330598D01*
X5766409Y4323435D01*
X5779109Y4317796D01*
X5792470Y4313834D01*
X5806186Y4311599D01*
G37*
G36*
X8360054Y4311142D02*
G01*
X8373922Y4312513D01*
X8387486Y4315612D01*
X8400491Y4320387D01*
X8412835Y4326839D01*
X8424265Y4334764D01*
X8434527Y4344111D01*
X8443569Y4354728D01*
X8451138Y4366361D01*
X8457184Y4378909D01*
X8461552Y4392066D01*
X8464194Y4405731D01*
X8465108Y4419600D01*
X8464194Y4433468D01*
X8461552Y4447133D01*
X8457184Y4460290D01*
X8451138Y4472838D01*
X8443569Y4484471D01*
X8434527Y4495088D01*
X8424265Y4504436D01*
X8412835Y4512360D01*
X8400491Y4518812D01*
X8387486Y4523587D01*
X8373922Y4526686D01*
X8360054Y4528058D01*
X8346186Y4527600D01*
X8332470Y4525365D01*
X8319109Y4521403D01*
X8306409Y4515764D01*
X8294522Y4508601D01*
X8283651Y4499914D01*
X8273999Y4489907D01*
X8265668Y4478782D01*
X8258860Y4466691D01*
X8253628Y4453788D01*
X8250123Y4440326D01*
X8248345Y4426559D01*
X8248345Y4412640D01*
X8250123Y4398873D01*
X8253628Y4385411D01*
X8258860Y4372508D01*
X8265668Y4360418D01*
X8273999Y4349292D01*
X8283651Y4339285D01*
X8294522Y4330598D01*
X8306409Y4323435D01*
X8319109Y4317796D01*
X8332470Y4313834D01*
X8346186Y4311599D01*
G37*
G36*
X1028700Y4558131D02*
G01*
X1043178Y4559046D01*
X1057402Y4561738D01*
X1071219Y4566208D01*
X1084326Y4572406D01*
X1096568Y4580178D01*
X1107744Y4589424D01*
X1117701Y4599990D01*
X1126185Y4611725D01*
X1133195Y4624425D01*
X1135176Y4629353D01*
X1137361Y4632756D01*
X1140663Y4634992D01*
X1144625Y4635804D01*
X1371447Y4635804D01*
X1374952Y4635144D01*
X1378051Y4633366D01*
X1380286Y4630623D01*
X1382268Y4627118D01*
X1390599Y4615992D01*
X1400251Y4605985D01*
X1411122Y4597298D01*
X1423009Y4590135D01*
X1435709Y4584496D01*
X1449070Y4580534D01*
X1462786Y4578299D01*
X1476654Y4577842D01*
X1490522Y4579213D01*
X1504086Y4582312D01*
X1517091Y4587087D01*
X1529435Y4593539D01*
X1540865Y4601464D01*
X1551127Y4610811D01*
X1560169Y4621428D01*
X1567738Y4633061D01*
X1573784Y4645609D01*
X1578152Y4658766D01*
X1580794Y4672431D01*
X1581708Y4686300D01*
X1580794Y4700168D01*
X1578152Y4713833D01*
X1573784Y4726990D01*
X1567738Y4739538D01*
X1560169Y4751171D01*
X1551127Y4761788D01*
X1540865Y4771136D01*
X1529435Y4779060D01*
X1517091Y4785512D01*
X1504086Y4790287D01*
X1490522Y4793386D01*
X1476654Y4794758D01*
X1462786Y4794300D01*
X1449070Y4792065D01*
X1435709Y4788103D01*
X1423009Y4782464D01*
X1411122Y4775301D01*
X1400251Y4766614D01*
X1390599Y4756607D01*
X1382268Y4745482D01*
X1380286Y4741976D01*
X1378051Y4739233D01*
X1374952Y4737455D01*
X1371447Y4736795D01*
X1130401Y4736795D01*
X1127302Y4737303D01*
X1124458Y4738725D01*
X1122222Y4741011D01*
X1117701Y4747209D01*
X1107744Y4757775D01*
X1096568Y4767021D01*
X1084326Y4774793D01*
X1071219Y4780991D01*
X1057402Y4785461D01*
X1043178Y4788154D01*
X1028700Y4789068D01*
X1014221Y4788154D01*
X999998Y4785461D01*
X986180Y4780991D01*
X973074Y4774793D01*
X960831Y4767021D01*
X949655Y4757775D01*
X939698Y4747209D01*
X931214Y4735474D01*
X924204Y4722774D01*
X918870Y4709312D01*
X915263Y4695240D01*
X913434Y4680864D01*
X913434Y4666335D01*
X915263Y4651959D01*
X918870Y4637887D01*
X924204Y4624425D01*
X931214Y4611725D01*
X939698Y4599990D01*
X949655Y4589424D01*
X960831Y4580178D01*
X973074Y4572406D01*
X986180Y4566208D01*
X999998Y4561738D01*
X1014221Y4559046D01*
G37*
G36*
X5820054Y4565142D02*
G01*
X5833922Y4566513D01*
X5847486Y4569612D01*
X5860491Y4574387D01*
X5872835Y4580839D01*
X5884265Y4588764D01*
X5894527Y4598111D01*
X5903569Y4608728D01*
X5911138Y4620361D01*
X5917184Y4632909D01*
X5921552Y4646066D01*
X5924194Y4659731D01*
X5925108Y4673600D01*
X5924194Y4687468D01*
X5921552Y4701133D01*
X5917184Y4714290D01*
X5911138Y4726838D01*
X5903569Y4738471D01*
X5894527Y4749088D01*
X5884265Y4758436D01*
X5872835Y4766360D01*
X5860491Y4772812D01*
X5847486Y4777587D01*
X5833922Y4780686D01*
X5820054Y4782058D01*
X5806186Y4781600D01*
X5792470Y4779365D01*
X5779109Y4775403D01*
X5766409Y4769764D01*
X5754522Y4762601D01*
X5743651Y4753914D01*
X5733999Y4743907D01*
X5725668Y4732782D01*
X5718860Y4720691D01*
X5713628Y4707788D01*
X5710123Y4694326D01*
X5708345Y4680559D01*
X5708345Y4666640D01*
X5710123Y4652873D01*
X5713628Y4639411D01*
X5718860Y4626508D01*
X5725668Y4614418D01*
X5733999Y4603292D01*
X5743651Y4593285D01*
X5754522Y4584598D01*
X5766409Y4577435D01*
X5779109Y4571796D01*
X5792470Y4567834D01*
X5806186Y4565599D01*
G37*
G36*
X8360054Y4565142D02*
G01*
X8373922Y4566513D01*
X8387486Y4569612D01*
X8400491Y4574387D01*
X8412835Y4580839D01*
X8424265Y4588764D01*
X8434527Y4598111D01*
X8443569Y4608728D01*
X8451138Y4620361D01*
X8457184Y4632909D01*
X8461552Y4646066D01*
X8464194Y4659731D01*
X8465108Y4673600D01*
X8464194Y4687468D01*
X8461552Y4701133D01*
X8457184Y4714290D01*
X8451138Y4726838D01*
X8443569Y4738471D01*
X8434527Y4749088D01*
X8424265Y4758436D01*
X8412835Y4766360D01*
X8400491Y4772812D01*
X8387486Y4777587D01*
X8373922Y4780686D01*
X8360054Y4782058D01*
X8346186Y4781600D01*
X8332470Y4779365D01*
X8319109Y4775403D01*
X8306409Y4769764D01*
X8294522Y4762601D01*
X8283651Y4753914D01*
X8273999Y4743907D01*
X8265668Y4732782D01*
X8258860Y4720691D01*
X8253628Y4707788D01*
X8250123Y4694326D01*
X8248345Y4680559D01*
X8248345Y4666640D01*
X8250123Y4652873D01*
X8253628Y4639411D01*
X8258860Y4626508D01*
X8265668Y4614418D01*
X8273999Y4603292D01*
X8283651Y4593285D01*
X8294522Y4584598D01*
X8306409Y4577435D01*
X8319109Y4571796D01*
X8332470Y4567834D01*
X8346186Y4565599D01*
G37*
G36*
X4016654Y4577842D02*
G01*
X4030522Y4579213D01*
X4044086Y4582312D01*
X4057091Y4587087D01*
X4069435Y4593539D01*
X4080865Y4601464D01*
X4091127Y4610811D01*
X4100169Y4621428D01*
X4106519Y4631182D01*
X4108754Y4633620D01*
X4111701Y4635246D01*
X4115003Y4635804D01*
X5110886Y4635804D01*
X5115509Y4636008D01*
X5119878Y4636566D01*
X5124145Y4637532D01*
X5128361Y4638852D01*
X5132425Y4640529D01*
X5136337Y4642561D01*
X5140045Y4644948D01*
X5143550Y4647641D01*
X5146954Y4650740D01*
X5235702Y4739487D01*
X5238394Y4741418D01*
X5241544Y4742383D01*
X5244846Y4742281D01*
X5256580Y4739944D01*
X5270500Y4739030D01*
X5284419Y4739944D01*
X5298135Y4742637D01*
X5311343Y4747158D01*
X5323840Y4753305D01*
X5335422Y4761077D01*
X5345938Y4770272D01*
X5355132Y4780737D01*
X5362905Y4792370D01*
X5369052Y4804867D01*
X5373573Y4818075D01*
X5376265Y4831791D01*
X5377180Y4845710D01*
X5376265Y4859629D01*
X5373573Y4873294D01*
X5369052Y4886502D01*
X5362905Y4899050D01*
X5355132Y4910632D01*
X5345938Y4921148D01*
X5335422Y4930343D01*
X5323840Y4938115D01*
X5311343Y4944262D01*
X5298135Y4948732D01*
X5284419Y4951476D01*
X5270500Y4952390D01*
X5256580Y4951476D01*
X5242864Y4948732D01*
X5229656Y4944262D01*
X5217160Y4938115D01*
X5205577Y4930343D01*
X5195062Y4921148D01*
X5185867Y4910632D01*
X5178094Y4899050D01*
X5171948Y4886502D01*
X5167426Y4873294D01*
X5164734Y4859629D01*
X5163820Y4845710D01*
X5164734Y4831791D01*
X5167071Y4820056D01*
X5167172Y4816754D01*
X5166207Y4813604D01*
X5164277Y4810912D01*
X5093157Y4739792D01*
X5089855Y4737557D01*
X5085943Y4736795D01*
X4115003Y4736795D01*
X4111701Y4737354D01*
X4108754Y4738979D01*
X4106519Y4741418D01*
X4100169Y4751171D01*
X4091127Y4761788D01*
X4080865Y4771136D01*
X4069435Y4779060D01*
X4057091Y4785512D01*
X4044086Y4790287D01*
X4030522Y4793386D01*
X4016654Y4794758D01*
X4002786Y4794300D01*
X3989070Y4792065D01*
X3975709Y4788103D01*
X3963009Y4782464D01*
X3951122Y4775301D01*
X3940251Y4766614D01*
X3930599Y4756607D01*
X3922268Y4745482D01*
X3915460Y4733391D01*
X3910228Y4720488D01*
X3906723Y4707026D01*
X3904945Y4693259D01*
X3904945Y4679340D01*
X3906723Y4665573D01*
X3910228Y4652111D01*
X3915460Y4639208D01*
X3922268Y4627118D01*
X3930599Y4615992D01*
X3940251Y4605985D01*
X3951122Y4597298D01*
X3963009Y4590135D01*
X3975709Y4584496D01*
X3989070Y4580534D01*
X4002786Y4578299D01*
G37*
G36*
X944219Y4812080D02*
G01*
X1113180Y4812080D01*
X1119632Y4812741D01*
X1125372Y4814468D01*
X1130604Y4817262D01*
X1135227Y4821072D01*
X1139037Y4825695D01*
X1141831Y4830927D01*
X1143558Y4836668D01*
X1144219Y4843119D01*
X1144219Y4866944D01*
X1144981Y4870805D01*
X1147165Y4874107D01*
X1150467Y4876342D01*
X1154379Y4877104D01*
X1163523Y4877104D01*
X1168146Y4877308D01*
X1172514Y4877866D01*
X1176832Y4878832D01*
X1180998Y4880152D01*
X1185113Y4881829D01*
X1188821Y4883759D01*
X1194765Y4887976D01*
X1197559Y4889296D01*
X1200607Y4889804D01*
X1371447Y4889804D01*
X1374952Y4889144D01*
X1378051Y4887366D01*
X1380286Y4884623D01*
X1382268Y4881118D01*
X1390599Y4869992D01*
X1400251Y4859985D01*
X1411122Y4851298D01*
X1423009Y4844135D01*
X1435709Y4838496D01*
X1449070Y4834534D01*
X1462786Y4832299D01*
X1476654Y4831842D01*
X1490522Y4833213D01*
X1504086Y4836312D01*
X1517091Y4841087D01*
X1529435Y4847539D01*
X1540865Y4855464D01*
X1551127Y4864811D01*
X1560169Y4875428D01*
X1567738Y4887061D01*
X1573784Y4899609D01*
X1578152Y4912766D01*
X1580794Y4926431D01*
X1581708Y4940300D01*
X1580794Y4954168D01*
X1578152Y4967833D01*
X1573784Y4980990D01*
X1567738Y4993538D01*
X1560169Y5005171D01*
X1551127Y5015788D01*
X1540865Y5025136D01*
X1529435Y5033060D01*
X1517091Y5039512D01*
X1504086Y5044287D01*
X1490522Y5047386D01*
X1476654Y5048758D01*
X1462786Y5048300D01*
X1449070Y5046065D01*
X1435709Y5042103D01*
X1423009Y5036464D01*
X1411122Y5029301D01*
X1400251Y5020614D01*
X1390599Y5010607D01*
X1382268Y4999482D01*
X1380286Y4995976D01*
X1378051Y4993233D01*
X1374952Y4991455D01*
X1371447Y4990795D01*
X1176680Y4990795D01*
X1172057Y4990592D01*
X1167688Y4990033D01*
X1163523Y4989118D01*
X1157681Y4987086D01*
X1153871Y4986528D01*
X1150162Y4987442D01*
X1147013Y4989677D01*
X1144930Y4992928D01*
X1144219Y4996688D01*
X1144219Y5012080D01*
X1143558Y5018532D01*
X1141831Y5024272D01*
X1139037Y5029504D01*
X1135227Y5034127D01*
X1130604Y5037937D01*
X1125372Y5040731D01*
X1119632Y5042458D01*
X1113180Y5043119D01*
X944219Y5043119D01*
X937768Y5042458D01*
X932027Y5040731D01*
X926795Y5037937D01*
X922172Y5034127D01*
X918362Y5029504D01*
X915568Y5024272D01*
X913841Y5018532D01*
X913180Y5012080D01*
X913180Y4843119D01*
X913841Y4836668D01*
X915568Y4830927D01*
X918362Y4825695D01*
X922172Y4821072D01*
X926795Y4817262D01*
X932027Y4814468D01*
X937768Y4812741D01*
G37*
G36*
X8360054Y4819142D02*
G01*
X8373922Y4820513D01*
X8387486Y4823612D01*
X8400491Y4828387D01*
X8412835Y4834839D01*
X8424265Y4842764D01*
X8434527Y4852111D01*
X8443569Y4862728D01*
X8451138Y4874361D01*
X8457184Y4886909D01*
X8461552Y4900066D01*
X8464194Y4913731D01*
X8465108Y4927600D01*
X8464194Y4941468D01*
X8461552Y4955133D01*
X8457184Y4968290D01*
X8451138Y4980838D01*
X8443569Y4992471D01*
X8434527Y5003088D01*
X8424265Y5012436D01*
X8412835Y5020360D01*
X8400491Y5026812D01*
X8387486Y5031587D01*
X8373922Y5034686D01*
X8360054Y5036058D01*
X8346186Y5035600D01*
X8332470Y5033365D01*
X8319109Y5029403D01*
X8306409Y5023764D01*
X8294522Y5016601D01*
X8283651Y5007914D01*
X8273999Y4997907D01*
X8265668Y4986782D01*
X8258860Y4974691D01*
X8253628Y4961788D01*
X8250123Y4948326D01*
X8248345Y4934559D01*
X8248345Y4920640D01*
X8250123Y4906873D01*
X8253628Y4893411D01*
X8258860Y4880508D01*
X8265668Y4868418D01*
X8273999Y4857292D01*
X8283651Y4847285D01*
X8294522Y4838598D01*
X8306409Y4831435D01*
X8319109Y4825796D01*
X8332470Y4821834D01*
X8346186Y4819599D01*
G37*
G36*
X5820054Y4819142D02*
G01*
X5833922Y4820513D01*
X5847486Y4823612D01*
X5860491Y4828387D01*
X5872835Y4834839D01*
X5884265Y4842764D01*
X5894527Y4852111D01*
X5903569Y4862728D01*
X5911138Y4874361D01*
X5917184Y4886909D01*
X5921552Y4900066D01*
X5924194Y4913731D01*
X5925108Y4927600D01*
X5924194Y4941468D01*
X5921552Y4955133D01*
X5917184Y4968290D01*
X5911138Y4980838D01*
X5903569Y4992471D01*
X5894527Y5003088D01*
X5884265Y5012436D01*
X5872835Y5020360D01*
X5860491Y5026812D01*
X5847486Y5031587D01*
X5833922Y5034686D01*
X5820054Y5036058D01*
X5806186Y5035600D01*
X5792470Y5033365D01*
X5779109Y5029403D01*
X5766409Y5023764D01*
X5754522Y5016601D01*
X5743651Y5007914D01*
X5733999Y4997907D01*
X5725668Y4986782D01*
X5718860Y4974691D01*
X5713628Y4961788D01*
X5710123Y4948326D01*
X5708345Y4934559D01*
X5708345Y4920640D01*
X5710123Y4906873D01*
X5713628Y4893411D01*
X5718860Y4880508D01*
X5725668Y4868418D01*
X5733999Y4857292D01*
X5743651Y4847285D01*
X5754522Y4838598D01*
X5766409Y4831435D01*
X5779109Y4825796D01*
X5792470Y4821834D01*
X5806186Y4819599D01*
G37*
G36*
X4016654Y4831842D02*
G01*
X4030522Y4833213D01*
X4044086Y4836312D01*
X4057091Y4841087D01*
X4069435Y4847539D01*
X4080865Y4855464D01*
X4091127Y4864811D01*
X4100169Y4875428D01*
X4107738Y4887061D01*
X4113784Y4899609D01*
X4118152Y4912766D01*
X4120794Y4926431D01*
X4121708Y4940300D01*
X4120794Y4954168D01*
X4118152Y4967833D01*
X4113784Y4980990D01*
X4107738Y4993538D01*
X4100169Y5005171D01*
X4091127Y5015788D01*
X4080865Y5025136D01*
X4069435Y5033060D01*
X4057091Y5039512D01*
X4044086Y5044287D01*
X4030522Y5047386D01*
X4016654Y5048758D01*
X4002786Y5048300D01*
X3989070Y5046065D01*
X3975709Y5042103D01*
X3963009Y5036464D01*
X3951122Y5029301D01*
X3940251Y5020614D01*
X3930599Y5010607D01*
X3922268Y4999482D01*
X3915460Y4987391D01*
X3910228Y4974488D01*
X3906723Y4961026D01*
X3904945Y4947259D01*
X3904945Y4933340D01*
X3906723Y4919573D01*
X3910228Y4906111D01*
X3915460Y4893208D01*
X3922268Y4881118D01*
X3930599Y4869992D01*
X3940251Y4859985D01*
X3951122Y4851298D01*
X3963009Y4844135D01*
X3975709Y4838496D01*
X3989070Y4834534D01*
X4002786Y4832299D01*
G37*
G36*
X9745878Y4991404D02*
G01*
X9761321Y4991404D01*
X9776663Y4993233D01*
X9791700Y4996840D01*
X9806228Y5002225D01*
X9819944Y5009286D01*
X9832797Y5017922D01*
X9844481Y5028031D01*
X9854946Y5039410D01*
X9863937Y5052009D01*
X9871405Y5065522D01*
X9877196Y5079847D01*
X9881311Y5094782D01*
X9883597Y5110073D01*
X9884054Y5125516D01*
X9882682Y5140909D01*
X9879482Y5156047D01*
X9874504Y5170678D01*
X9867900Y5184648D01*
X9859619Y5197703D01*
X9849866Y5209743D01*
X9838791Y5220512D01*
X9826498Y5229860D01*
X9813188Y5237734D01*
X9799015Y5243982D01*
X9784232Y5248503D01*
X9769043Y5251246D01*
X9753600Y5252161D01*
X9738156Y5251246D01*
X9722967Y5248503D01*
X9708184Y5243982D01*
X9694011Y5237734D01*
X9676942Y5227675D01*
X9673691Y5227167D01*
X9083548Y5227167D01*
X9079687Y5227929D01*
X9076385Y5230164D01*
X9070848Y5235702D01*
X9068409Y5239512D01*
X9064447Y5250738D01*
X9057843Y5264048D01*
X9049664Y5276392D01*
X9040012Y5287670D01*
X9029039Y5297678D01*
X9016949Y5306212D01*
X9003842Y5313273D01*
X8990025Y5318607D01*
X8975648Y5322214D01*
X8960916Y5324043D01*
X8946083Y5324043D01*
X8931351Y5322214D01*
X8916974Y5318607D01*
X8903157Y5313273D01*
X8890050Y5306212D01*
X8877960Y5297678D01*
X8866987Y5287670D01*
X8857335Y5276392D01*
X8849156Y5264048D01*
X8842552Y5250738D01*
X8837625Y5236768D01*
X8834424Y5222290D01*
X8833053Y5207508D01*
X8833510Y5192674D01*
X8835796Y5177993D01*
X8839860Y5163769D01*
X8845651Y5150104D01*
X8853068Y5137251D01*
X8862009Y5125415D01*
X8872321Y5114747D01*
X8883904Y5105450D01*
X8896502Y5097627D01*
X8909964Y5091430D01*
X8917381Y5089093D01*
X8919616Y5088077D01*
X8921496Y5086604D01*
X8960815Y5047284D01*
X8971432Y5037988D01*
X8982913Y5030317D01*
X8995257Y5024221D01*
X9008364Y5019751D01*
X9021876Y5017058D01*
X9035999Y5016144D01*
X9673945Y5016144D01*
X9676942Y5015687D01*
X9679635Y5014417D01*
X9687255Y5009286D01*
X9701022Y5002225D01*
X9715500Y4996840D01*
X9730536Y4993233D01*
G37*
G36*
X5270500Y5038699D02*
G01*
X5283911Y5039614D01*
X5297068Y5042306D01*
X5309717Y5046675D01*
X5321706Y5052720D01*
X5332780Y5060340D01*
X5342737Y5069332D01*
X5351373Y5079593D01*
X5358638Y5090922D01*
X5364276Y5103063D01*
X5368239Y5115915D01*
X5370474Y5129123D01*
X5370931Y5142534D01*
X5369610Y5155895D01*
X5366461Y5168950D01*
X5361635Y5181498D01*
X5355183Y5193284D01*
X5347258Y5204053D01*
X5337911Y5213705D01*
X5327345Y5222036D01*
X5315813Y5228894D01*
X5303469Y5234127D01*
X5290515Y5237683D01*
X5277205Y5239461D01*
X5263794Y5239461D01*
X5250484Y5237683D01*
X5237530Y5234127D01*
X5225186Y5228894D01*
X5213654Y5222036D01*
X5203088Y5213705D01*
X5193741Y5204053D01*
X5185816Y5193284D01*
X5179364Y5181498D01*
X5174538Y5168950D01*
X5171440Y5155895D01*
X5170068Y5142534D01*
X5170525Y5129123D01*
X5172760Y5115915D01*
X5176723Y5103063D01*
X5182362Y5090922D01*
X5189626Y5079593D01*
X5198262Y5069332D01*
X5208219Y5060340D01*
X5219293Y5052720D01*
X5231282Y5046675D01*
X5243931Y5042306D01*
X5257088Y5039614D01*
G37*
G36*
X5820054Y5073142D02*
G01*
X5833922Y5074513D01*
X5847486Y5077612D01*
X5860491Y5082387D01*
X5872835Y5088839D01*
X5884265Y5096764D01*
X5894527Y5106111D01*
X5903569Y5116728D01*
X5911138Y5128361D01*
X5917184Y5140909D01*
X5921552Y5154066D01*
X5924194Y5167731D01*
X5925108Y5181600D01*
X5924194Y5195468D01*
X5921552Y5209133D01*
X5917184Y5222290D01*
X5911138Y5234838D01*
X5903569Y5246471D01*
X5894527Y5257088D01*
X5884265Y5266436D01*
X5872835Y5274360D01*
X5860491Y5280812D01*
X5847486Y5285587D01*
X5833922Y5288686D01*
X5820054Y5290058D01*
X5806186Y5289600D01*
X5792470Y5287365D01*
X5779109Y5283403D01*
X5766409Y5277764D01*
X5754522Y5270601D01*
X5743651Y5261914D01*
X5733999Y5251907D01*
X5725668Y5240782D01*
X5718860Y5228691D01*
X5713628Y5215788D01*
X5710123Y5202326D01*
X5708345Y5188559D01*
X5708345Y5174640D01*
X5710123Y5160873D01*
X5713628Y5147411D01*
X5718860Y5134508D01*
X5725668Y5122418D01*
X5733999Y5111292D01*
X5743651Y5101285D01*
X5754522Y5092598D01*
X5766409Y5085435D01*
X5779109Y5079796D01*
X5792470Y5075834D01*
X5806186Y5073599D01*
G37*
G36*
X8360054Y5073142D02*
G01*
X8373922Y5074513D01*
X8387486Y5077612D01*
X8400491Y5082387D01*
X8412835Y5088839D01*
X8424265Y5096764D01*
X8434527Y5106111D01*
X8443569Y5116728D01*
X8451138Y5128361D01*
X8457184Y5140909D01*
X8461552Y5154066D01*
X8464194Y5167731D01*
X8465108Y5181600D01*
X8464194Y5195468D01*
X8461552Y5209133D01*
X8457184Y5222290D01*
X8451138Y5234838D01*
X8443569Y5246471D01*
X8434527Y5257088D01*
X8424265Y5266436D01*
X8412835Y5274360D01*
X8400491Y5280812D01*
X8387486Y5285587D01*
X8373922Y5288686D01*
X8360054Y5290058D01*
X8346186Y5289600D01*
X8332470Y5287365D01*
X8319109Y5283403D01*
X8306409Y5277764D01*
X8294522Y5270601D01*
X8283651Y5261914D01*
X8273999Y5251907D01*
X8265668Y5240782D01*
X8258860Y5228691D01*
X8253628Y5215788D01*
X8250123Y5202326D01*
X8248345Y5188559D01*
X8248345Y5174640D01*
X8250123Y5160873D01*
X8253628Y5147411D01*
X8258860Y5134508D01*
X8265668Y5122418D01*
X8273999Y5111292D01*
X8283651Y5101285D01*
X8294522Y5092598D01*
X8306409Y5085435D01*
X8319109Y5079796D01*
X8332470Y5075834D01*
X8346186Y5073599D01*
G37*
G36*
X1476654Y5085842D02*
G01*
X1490522Y5087213D01*
X1504086Y5090312D01*
X1517091Y5095087D01*
X1529435Y5101539D01*
X1540865Y5109464D01*
X1551127Y5118811D01*
X1560169Y5129428D01*
X1567738Y5141061D01*
X1573784Y5153609D01*
X1578152Y5166766D01*
X1580794Y5180431D01*
X1581708Y5194300D01*
X1580794Y5208168D01*
X1578152Y5221833D01*
X1573784Y5234990D01*
X1567738Y5247538D01*
X1560169Y5259171D01*
X1551127Y5269788D01*
X1540865Y5279136D01*
X1529435Y5287060D01*
X1517091Y5293512D01*
X1504086Y5298287D01*
X1490522Y5301386D01*
X1476654Y5302758D01*
X1462786Y5302300D01*
X1449070Y5300065D01*
X1435709Y5296103D01*
X1423009Y5290464D01*
X1411122Y5283301D01*
X1400251Y5274614D01*
X1390599Y5264607D01*
X1382268Y5253482D01*
X1375460Y5241391D01*
X1370228Y5228488D01*
X1366723Y5215026D01*
X1364945Y5201259D01*
X1364945Y5187340D01*
X1366723Y5173573D01*
X1370228Y5160111D01*
X1375460Y5147208D01*
X1382268Y5135118D01*
X1390599Y5123992D01*
X1400251Y5113985D01*
X1411122Y5105298D01*
X1423009Y5098135D01*
X1435709Y5092496D01*
X1449070Y5088534D01*
X1462786Y5086299D01*
G37*
G36*
X4058564Y5095849D02*
G01*
X4069435Y5101539D01*
X4080865Y5109464D01*
X4091127Y5118811D01*
X4100169Y5129428D01*
X4107738Y5141061D01*
X4111548Y5148935D01*
X4058564Y5148935D01*
G37*
G36*
X3967835Y5095951D02*
G01*
X3967835Y5148935D01*
X3914749Y5148935D01*
X3915460Y5147208D01*
X3922268Y5135118D01*
X3930599Y5123992D01*
X3940251Y5113985D01*
X3951122Y5105298D01*
X3963009Y5098135D01*
G37*
G36*
X3914749Y5239664D02*
G01*
X3967835Y5239664D01*
X3967835Y5292648D01*
X3963009Y5290464D01*
X3951122Y5283301D01*
X3940251Y5274614D01*
X3930599Y5264607D01*
X3922268Y5253482D01*
X3915460Y5241391D01*
G37*
G36*
X4058564Y5239664D02*
G01*
X4111548Y5239664D01*
X4107738Y5247538D01*
X4100169Y5259171D01*
X4091127Y5269788D01*
X4080865Y5279136D01*
X4069435Y5287060D01*
X4058564Y5292750D01*
G37*
G36*
X5820054Y5327142D02*
G01*
X5833922Y5328513D01*
X5847486Y5331612D01*
X5860491Y5336387D01*
X5872835Y5342839D01*
X5884265Y5350764D01*
X5894527Y5360111D01*
X5903569Y5370728D01*
X5911138Y5382361D01*
X5917184Y5394909D01*
X5921552Y5408066D01*
X5924194Y5421731D01*
X5925108Y5435600D01*
X5924194Y5449468D01*
X5921552Y5463133D01*
X5917184Y5476290D01*
X5911138Y5488838D01*
X5903569Y5500471D01*
X5894527Y5511088D01*
X5884265Y5520436D01*
X5872835Y5528360D01*
X5860491Y5534812D01*
X5847486Y5539587D01*
X5833922Y5542686D01*
X5820054Y5544058D01*
X5806186Y5543600D01*
X5792470Y5541365D01*
X5779109Y5537403D01*
X5766409Y5531764D01*
X5754522Y5524601D01*
X5743651Y5515914D01*
X5733999Y5505907D01*
X5725668Y5494782D01*
X5718860Y5482691D01*
X5713628Y5469788D01*
X5710123Y5456326D01*
X5708345Y5442559D01*
X5708345Y5428640D01*
X5710123Y5414873D01*
X5713628Y5401411D01*
X5718860Y5388508D01*
X5725668Y5376418D01*
X5733999Y5365292D01*
X5743651Y5355285D01*
X5754522Y5346598D01*
X5766409Y5339435D01*
X5779109Y5333796D01*
X5792470Y5329834D01*
X5806186Y5327599D01*
G37*
G36*
X8360054Y5327142D02*
G01*
X8373922Y5328513D01*
X8387486Y5331612D01*
X8400491Y5336387D01*
X8412835Y5342839D01*
X8424265Y5350764D01*
X8434527Y5360111D01*
X8443569Y5370728D01*
X8451138Y5382361D01*
X8457184Y5394909D01*
X8461552Y5408066D01*
X8464194Y5421731D01*
X8465108Y5435600D01*
X8464194Y5449468D01*
X8461552Y5463133D01*
X8457184Y5476290D01*
X8451138Y5488838D01*
X8443569Y5500471D01*
X8434527Y5511088D01*
X8424265Y5520436D01*
X8412835Y5528360D01*
X8400491Y5534812D01*
X8387486Y5539587D01*
X8373922Y5542686D01*
X8360054Y5544058D01*
X8346186Y5543600D01*
X8332470Y5541365D01*
X8319109Y5537403D01*
X8306409Y5531764D01*
X8294522Y5524601D01*
X8283651Y5515914D01*
X8273999Y5505907D01*
X8265668Y5494782D01*
X8258860Y5482691D01*
X8253628Y5469788D01*
X8250123Y5456326D01*
X8248345Y5442559D01*
X8248345Y5428640D01*
X8250123Y5414873D01*
X8253628Y5401411D01*
X8258860Y5388508D01*
X8265668Y5376418D01*
X8273999Y5365292D01*
X8283651Y5355285D01*
X8294522Y5346598D01*
X8306409Y5339435D01*
X8319109Y5333796D01*
X8332470Y5329834D01*
X8346186Y5327599D01*
G37*
G36*
X1476654Y5339842D02*
G01*
X1490522Y5341213D01*
X1504086Y5344312D01*
X1517091Y5349087D01*
X1529435Y5355539D01*
X1540865Y5363464D01*
X1551127Y5372811D01*
X1560169Y5383428D01*
X1567738Y5395061D01*
X1573784Y5407609D01*
X1578152Y5420766D01*
X1580794Y5434431D01*
X1581708Y5448300D01*
X1580794Y5462168D01*
X1578152Y5475833D01*
X1573784Y5488990D01*
X1567738Y5501538D01*
X1560169Y5513171D01*
X1551127Y5523788D01*
X1540865Y5533136D01*
X1529435Y5541060D01*
X1517091Y5547512D01*
X1504086Y5552287D01*
X1490522Y5555386D01*
X1476654Y5556758D01*
X1462786Y5556300D01*
X1449070Y5554065D01*
X1435709Y5550103D01*
X1423009Y5544464D01*
X1411122Y5537301D01*
X1400251Y5528614D01*
X1390599Y5518607D01*
X1382268Y5507482D01*
X1375460Y5495391D01*
X1370228Y5482488D01*
X1366723Y5469026D01*
X1364945Y5455259D01*
X1364945Y5441340D01*
X1366723Y5427573D01*
X1370228Y5414111D01*
X1375460Y5401208D01*
X1382268Y5389118D01*
X1390599Y5377992D01*
X1400251Y5367985D01*
X1411122Y5359298D01*
X1423009Y5352135D01*
X1435709Y5346496D01*
X1449070Y5342534D01*
X1462786Y5340299D01*
G37*
G36*
X4016654Y5339842D02*
G01*
X4030522Y5341213D01*
X4044086Y5344312D01*
X4057091Y5349087D01*
X4069435Y5355539D01*
X4080865Y5363464D01*
X4091127Y5372811D01*
X4100169Y5383428D01*
X4106519Y5393182D01*
X4108754Y5395620D01*
X4111701Y5397246D01*
X4115003Y5397804D01*
X4279696Y5397804D01*
X4284319Y5398008D01*
X4288688Y5398566D01*
X4292955Y5399532D01*
X4297172Y5400852D01*
X4301236Y5402529D01*
X4305147Y5404561D01*
X4308856Y5406948D01*
X4312361Y5409641D01*
X4315764Y5412740D01*
X4796739Y5893714D01*
X4799787Y5895797D01*
X4803394Y5896660D01*
X4807051Y5896203D01*
X4809998Y5895238D01*
X4824222Y5892546D01*
X4838700Y5891631D01*
X4853178Y5892546D01*
X4867402Y5895238D01*
X4881219Y5899708D01*
X4894326Y5905906D01*
X4906568Y5913678D01*
X4917744Y5922924D01*
X4927701Y5933490D01*
X4936185Y5945225D01*
X4943195Y5957925D01*
X4948529Y5971387D01*
X4952136Y5985459D01*
X4953965Y5999835D01*
X4953965Y6014364D01*
X4952136Y6028740D01*
X4948529Y6042812D01*
X4943195Y6056274D01*
X4936185Y6068974D01*
X4927701Y6080709D01*
X4917744Y6091275D01*
X4906568Y6100521D01*
X4894326Y6108293D01*
X4881219Y6114491D01*
X4867402Y6118961D01*
X4853178Y6121654D01*
X4838700Y6122568D01*
X4824222Y6121654D01*
X4809998Y6118961D01*
X4796180Y6114491D01*
X4783074Y6108293D01*
X4770831Y6100521D01*
X4759655Y6091275D01*
X4749698Y6080709D01*
X4741214Y6068974D01*
X4734204Y6056274D01*
X4728870Y6042812D01*
X4725263Y6028740D01*
X4723434Y6014364D01*
X4723434Y5999835D01*
X4725263Y5985459D01*
X4727956Y5974842D01*
X4728260Y5971387D01*
X4727346Y5968034D01*
X4725314Y5965139D01*
X4261967Y5501792D01*
X4258665Y5499557D01*
X4254754Y5498795D01*
X4115003Y5498795D01*
X4111701Y5499354D01*
X4108754Y5500979D01*
X4106519Y5503418D01*
X4100169Y5513171D01*
X4091127Y5523788D01*
X4080865Y5533136D01*
X4069435Y5541060D01*
X4057091Y5547512D01*
X4044086Y5552287D01*
X4030522Y5555386D01*
X4016654Y5556758D01*
X4002786Y5556300D01*
X3989070Y5554065D01*
X3975709Y5550103D01*
X3963009Y5544464D01*
X3951122Y5537301D01*
X3940251Y5528614D01*
X3930599Y5518607D01*
X3922268Y5507482D01*
X3915460Y5495391D01*
X3910228Y5482488D01*
X3906723Y5469026D01*
X3904945Y5455259D01*
X3904945Y5441340D01*
X3906723Y5427573D01*
X3910228Y5414111D01*
X3915460Y5401208D01*
X3922268Y5389118D01*
X3930599Y5377992D01*
X3940251Y5367985D01*
X3951122Y5359298D01*
X3963009Y5352135D01*
X3975709Y5346496D01*
X3989070Y5342534D01*
X4002786Y5340299D01*
G37*
G36*
X9809937Y5505043D02*
G01*
X9819944Y5510174D01*
X9832797Y5518810D01*
X9844481Y5528919D01*
X9854946Y5540298D01*
X9863937Y5552897D01*
X9871303Y5566206D01*
X9809937Y5566206D01*
G37*
G36*
X9697262Y5505043D02*
G01*
X9697262Y5566206D01*
X9635896Y5566206D01*
X9643262Y5552897D01*
X9652254Y5540298D01*
X9662718Y5528919D01*
X9674402Y5518810D01*
X9687255Y5510174D01*
G37*
G36*
X5739079Y5581091D02*
G01*
X5894120Y5581091D01*
X5900521Y5581700D01*
X5906262Y5583478D01*
X5911545Y5586272D01*
X5916117Y5590082D01*
X5919927Y5594654D01*
X5922721Y5599938D01*
X5924499Y5605678D01*
X5925108Y5612079D01*
X5925108Y5628944D01*
X5925870Y5632805D01*
X5928106Y5636107D01*
X5931408Y5638342D01*
X5935268Y5639104D01*
X5944412Y5639104D01*
X5949035Y5639308D01*
X5953404Y5639866D01*
X5957722Y5640832D01*
X5961888Y5642152D01*
X5966002Y5643829D01*
X5969914Y5645861D01*
X5973622Y5648248D01*
X5977077Y5650941D01*
X5980531Y5654040D01*
X6137656Y5811164D01*
X6140958Y5813399D01*
X6144818Y5814161D01*
X9047429Y5814161D01*
X9050934Y5813501D01*
X9054033Y5811723D01*
X9058808Y5807659D01*
X9068206Y5801868D01*
X9078417Y5797651D01*
X9089186Y5795060D01*
X9100210Y5794197D01*
X9111234Y5795060D01*
X9122003Y5797651D01*
X9132214Y5801868D01*
X9141612Y5807659D01*
X9150045Y5814822D01*
X9157208Y5823254D01*
X9162999Y5832652D01*
X9167215Y5842863D01*
X9169806Y5853633D01*
X9170670Y5864656D01*
X9169806Y5875680D01*
X9167215Y5886450D01*
X9162999Y5896660D01*
X9157208Y5906058D01*
X9150045Y5914491D01*
X9141612Y5921654D01*
X9132214Y5927445D01*
X9122003Y5931662D01*
X9111234Y5934252D01*
X9100210Y5935116D01*
X9089186Y5934252D01*
X9078417Y5931662D01*
X9068206Y5927445D01*
X9058808Y5921654D01*
X9054033Y5917590D01*
X9050934Y5915812D01*
X9047429Y5915152D01*
X6119926Y5915152D01*
X6115304Y5914948D01*
X6110935Y5914390D01*
X6106617Y5913424D01*
X6102451Y5912104D01*
X6098336Y5910427D01*
X6094425Y5908395D01*
X6090716Y5906008D01*
X6087262Y5903315D01*
X6083808Y5900216D01*
X5942431Y5758840D01*
X5939282Y5756706D01*
X5935573Y5755894D01*
X5931763Y5756503D01*
X5928512Y5758484D01*
X5926175Y5761482D01*
X5925159Y5765190D01*
X5924448Y5773623D01*
X5922721Y5779262D01*
X5919927Y5784545D01*
X5916117Y5789117D01*
X5911545Y5792927D01*
X5906262Y5795721D01*
X5900521Y5797499D01*
X5894120Y5798108D01*
X5739079Y5798108D01*
X5732678Y5797499D01*
X5726938Y5795721D01*
X5721654Y5792927D01*
X5717082Y5789117D01*
X5713272Y5784545D01*
X5710478Y5779262D01*
X5708700Y5773521D01*
X5708091Y5767120D01*
X5708091Y5612079D01*
X5708700Y5605678D01*
X5710478Y5599938D01*
X5713272Y5594654D01*
X5717082Y5590082D01*
X5721654Y5586272D01*
X5726938Y5583478D01*
X5732678Y5581700D01*
G37*
G36*
X8401964Y5591149D02*
G01*
X8412835Y5596839D01*
X8424265Y5604764D01*
X8434527Y5614111D01*
X8443569Y5624728D01*
X8451138Y5636361D01*
X8454948Y5644235D01*
X8401964Y5644235D01*
G37*
G36*
X8311235Y5591251D02*
G01*
X8311235Y5644235D01*
X8258149Y5644235D01*
X8258860Y5642508D01*
X8265668Y5630418D01*
X8273999Y5619292D01*
X8283651Y5609285D01*
X8294522Y5600598D01*
X8306409Y5593435D01*
G37*
G36*
X4016654Y5593842D02*
G01*
X4030522Y5595213D01*
X4044086Y5598312D01*
X4057091Y5603087D01*
X4069435Y5609539D01*
X4080865Y5617464D01*
X4091127Y5626811D01*
X4100169Y5637428D01*
X4107738Y5649061D01*
X4113784Y5661609D01*
X4118152Y5674766D01*
X4120794Y5688431D01*
X4121708Y5702300D01*
X4120794Y5716168D01*
X4118152Y5729833D01*
X4113784Y5742990D01*
X4107738Y5755538D01*
X4100169Y5767171D01*
X4091127Y5777788D01*
X4080865Y5787136D01*
X4069435Y5795060D01*
X4057091Y5801512D01*
X4044086Y5806287D01*
X4030522Y5809386D01*
X4016654Y5810758D01*
X4002786Y5810300D01*
X3989070Y5808065D01*
X3975709Y5804103D01*
X3963009Y5798464D01*
X3951122Y5791301D01*
X3940251Y5782614D01*
X3930599Y5772607D01*
X3922268Y5761482D01*
X3915460Y5749391D01*
X3910228Y5736488D01*
X3906723Y5723026D01*
X3904945Y5709259D01*
X3904945Y5695340D01*
X3906723Y5681573D01*
X3910228Y5668111D01*
X3915460Y5655208D01*
X3922268Y5643118D01*
X3930599Y5631992D01*
X3940251Y5621985D01*
X3951122Y5613298D01*
X3963009Y5606135D01*
X3975709Y5600496D01*
X3989070Y5596534D01*
X4002786Y5594299D01*
G37*
G36*
X9809937Y5678881D02*
G01*
X9871049Y5678881D01*
X9867900Y5685536D01*
X9859619Y5698591D01*
X9849866Y5710631D01*
X9838791Y5721400D01*
X9826498Y5730748D01*
X9813188Y5738622D01*
X9809937Y5740044D01*
G37*
G36*
X9636150Y5678881D02*
G01*
X9697262Y5678881D01*
X9697262Y5740044D01*
X9694011Y5738622D01*
X9680702Y5730748D01*
X9668408Y5721400D01*
X9657334Y5710631D01*
X9647580Y5698591D01*
X9639350Y5685536D01*
G37*
G36*
X8258149Y5734964D02*
G01*
X8311235Y5734964D01*
X8311235Y5787948D01*
X8306409Y5785764D01*
X8294522Y5778601D01*
X8283651Y5769914D01*
X8273999Y5759907D01*
X8265668Y5748782D01*
X8258860Y5736691D01*
G37*
G36*
X8401964Y5734964D02*
G01*
X8454948Y5734964D01*
X8451138Y5742838D01*
X8443569Y5754471D01*
X8434527Y5765088D01*
X8424265Y5774436D01*
X8412835Y5782360D01*
X8401964Y5788050D01*
G37*
G36*
X1476654Y5847842D02*
G01*
X1490522Y5849213D01*
X1504086Y5852312D01*
X1517091Y5857087D01*
X1529435Y5863539D01*
X1540865Y5871464D01*
X1551127Y5880811D01*
X1560169Y5891428D01*
X1567738Y5903061D01*
X1573784Y5915609D01*
X1578152Y5928766D01*
X1580794Y5942431D01*
X1581708Y5956300D01*
X1580794Y5970168D01*
X1578152Y5983833D01*
X1573784Y5996990D01*
X1567738Y6009538D01*
X1560169Y6021171D01*
X1551127Y6031788D01*
X1540865Y6041136D01*
X1529435Y6049060D01*
X1517091Y6055512D01*
X1504086Y6060287D01*
X1490522Y6063386D01*
X1476654Y6064758D01*
X1462786Y6064300D01*
X1449070Y6062065D01*
X1435709Y6058103D01*
X1423009Y6052464D01*
X1411122Y6045301D01*
X1400251Y6036614D01*
X1390599Y6026607D01*
X1382268Y6015482D01*
X1375460Y6003391D01*
X1370228Y5990488D01*
X1366723Y5977026D01*
X1364945Y5963259D01*
X1364945Y5949340D01*
X1366723Y5935573D01*
X1370228Y5922111D01*
X1375460Y5909208D01*
X1382268Y5897118D01*
X1390599Y5885992D01*
X1400251Y5875985D01*
X1411122Y5867298D01*
X1423009Y5860135D01*
X1435709Y5854496D01*
X1449070Y5850534D01*
X1462786Y5848299D01*
G37*
G36*
X4016654Y5847842D02*
G01*
X4030522Y5849213D01*
X4044086Y5852312D01*
X4057091Y5857087D01*
X4069435Y5863539D01*
X4080865Y5871464D01*
X4091127Y5880811D01*
X4100169Y5891428D01*
X4107738Y5903061D01*
X4113784Y5915609D01*
X4118152Y5928766D01*
X4120794Y5942431D01*
X4121708Y5956300D01*
X4120794Y5970168D01*
X4118152Y5983833D01*
X4113784Y5996990D01*
X4107738Y6009538D01*
X4100169Y6021171D01*
X4091127Y6031788D01*
X4080865Y6041136D01*
X4069435Y6049060D01*
X4057091Y6055512D01*
X4044086Y6060287D01*
X4030522Y6063386D01*
X4016654Y6064758D01*
X4002786Y6064300D01*
X3989070Y6062065D01*
X3975709Y6058103D01*
X3963009Y6052464D01*
X3951122Y6045301D01*
X3940251Y6036614D01*
X3930599Y6026607D01*
X3922268Y6015482D01*
X3915460Y6003391D01*
X3910228Y5990488D01*
X3906723Y5977026D01*
X3904945Y5963259D01*
X3904945Y5949340D01*
X3906723Y5935573D01*
X3910228Y5922111D01*
X3915460Y5909208D01*
X3922268Y5897118D01*
X3930599Y5885992D01*
X3940251Y5875985D01*
X3951122Y5867298D01*
X3963009Y5860135D01*
X3975709Y5854496D01*
X3989070Y5850534D01*
X4002786Y5848299D01*
G37*
G36*
X8953500Y5953302D02*
G01*
X8968282Y5954217D01*
X8982913Y5956960D01*
X8997035Y5961430D01*
X9010497Y5967628D01*
X9023096Y5975451D01*
X9034678Y5984748D01*
X9044990Y5995416D01*
X9053931Y6007252D01*
X9060281Y6018225D01*
X9062516Y6020917D01*
X9065615Y6022695D01*
X9069070Y6023305D01*
X9312097Y6023305D01*
X9316720Y6023508D01*
X9321088Y6024067D01*
X9325356Y6025032D01*
X9329572Y6026353D01*
X9333636Y6028029D01*
X9337548Y6030061D01*
X9341256Y6032449D01*
X9344761Y6035141D01*
X9348165Y6038240D01*
X9830003Y6520078D01*
X9833000Y6522161D01*
X9836505Y6523024D01*
X9840112Y6522618D01*
X9843312Y6521704D01*
X9857282Y6519418D01*
X9871456Y6518960D01*
X9885527Y6520332D01*
X9899345Y6523481D01*
X9912604Y6528358D01*
X9925151Y6534912D01*
X9936784Y6543040D01*
X9947249Y6552539D01*
X9956444Y6563309D01*
X9964166Y6575196D01*
X9970312Y6587947D01*
X9974783Y6601358D01*
X9977475Y6615277D01*
X9978390Y6629400D01*
X9977475Y6643522D01*
X9974783Y6657441D01*
X9970312Y6670852D01*
X9964166Y6683603D01*
X9956444Y6695490D01*
X9947249Y6706260D01*
X9936784Y6715759D01*
X9925151Y6723888D01*
X9912604Y6730441D01*
X9899345Y6735318D01*
X9885527Y6738467D01*
X9871456Y6739839D01*
X9857282Y6739381D01*
X9843312Y6737096D01*
X9829749Y6733082D01*
X9816795Y6727342D01*
X9804704Y6720027D01*
X9793630Y6711188D01*
X9783775Y6701028D01*
X9775291Y6689699D01*
X9768332Y6677355D01*
X9763048Y6664198D01*
X9759442Y6650532D01*
X9757664Y6636461D01*
X9757664Y6622338D01*
X9759442Y6608267D01*
X9761270Y6601307D01*
X9761575Y6597802D01*
X9760661Y6594449D01*
X9758629Y6591553D01*
X9294368Y6127292D01*
X9291066Y6125057D01*
X9287154Y6124295D01*
X9068968Y6124295D01*
X9065310Y6125006D01*
X9062161Y6126937D01*
X9059875Y6129934D01*
X9057843Y6134049D01*
X9049664Y6146393D01*
X9040012Y6157671D01*
X9029039Y6167678D01*
X9016949Y6176264D01*
X9003842Y6183274D01*
X8990025Y6188608D01*
X8975648Y6192266D01*
X8960916Y6194044D01*
X8946083Y6194044D01*
X8931351Y6192266D01*
X8916974Y6188608D01*
X8903157Y6183274D01*
X8890050Y6176264D01*
X8877960Y6167678D01*
X8866987Y6157671D01*
X8857335Y6146393D01*
X8849156Y6134049D01*
X8842552Y6120790D01*
X8837625Y6106769D01*
X8834424Y6092291D01*
X8833053Y6077508D01*
X8833510Y6062675D01*
X8835796Y6048044D01*
X8839860Y6033770D01*
X8845651Y6020104D01*
X8853068Y6007252D01*
X8862009Y5995416D01*
X8872321Y5984748D01*
X8883904Y5975451D01*
X8896502Y5967628D01*
X8909964Y5961430D01*
X8924086Y5956960D01*
X8938717Y5954217D01*
G37*
G36*
X5229148Y6097778D02*
G01*
X5229148Y6147866D01*
X5179161Y6147866D01*
X5182362Y6140907D01*
X5189626Y6129578D01*
X5198262Y6119368D01*
X5208219Y6110325D01*
X5219293Y6102756D01*
G37*
G36*
X5311851Y6097778D02*
G01*
X5321706Y6102756D01*
X5332780Y6110325D01*
X5342737Y6119368D01*
X5351373Y6129578D01*
X5358638Y6140907D01*
X5361838Y6147866D01*
X5311851Y6147866D01*
G37*
G36*
X1476654Y6101842D02*
G01*
X1490522Y6103213D01*
X1504086Y6106312D01*
X1517091Y6111087D01*
X1529435Y6117539D01*
X1540865Y6125464D01*
X1551127Y6134811D01*
X1560169Y6145428D01*
X1567738Y6157061D01*
X1573784Y6169609D01*
X1578152Y6182766D01*
X1580794Y6196431D01*
X1581708Y6210300D01*
X1580794Y6224168D01*
X1578152Y6237833D01*
X1573784Y6250990D01*
X1567738Y6263538D01*
X1560169Y6275171D01*
X1551127Y6285788D01*
X1540865Y6295136D01*
X1529435Y6303060D01*
X1517091Y6309512D01*
X1504086Y6314287D01*
X1490522Y6317386D01*
X1476654Y6318758D01*
X1462786Y6318300D01*
X1449070Y6316065D01*
X1435709Y6312103D01*
X1423009Y6306464D01*
X1411122Y6299301D01*
X1400251Y6290614D01*
X1390599Y6280607D01*
X1382268Y6269482D01*
X1375460Y6257391D01*
X1370228Y6244488D01*
X1366723Y6231026D01*
X1364945Y6217259D01*
X1364945Y6203340D01*
X1366723Y6189573D01*
X1370228Y6176111D01*
X1375460Y6163208D01*
X1382268Y6151118D01*
X1390599Y6139992D01*
X1400251Y6129985D01*
X1411122Y6121298D01*
X1423009Y6114135D01*
X1435709Y6108496D01*
X1449070Y6104534D01*
X1462786Y6102299D01*
G37*
G36*
X4016654Y6101842D02*
G01*
X4030522Y6103213D01*
X4044086Y6106312D01*
X4057091Y6111087D01*
X4069435Y6117539D01*
X4080865Y6125464D01*
X4091127Y6134811D01*
X4100169Y6145428D01*
X4106519Y6155182D01*
X4108754Y6157620D01*
X4111701Y6159246D01*
X4115003Y6159804D01*
X4780991Y6159804D01*
X4785360Y6158839D01*
X4796180Y6153708D01*
X4809998Y6149238D01*
X4824222Y6146546D01*
X4838700Y6145631D01*
X4853178Y6146546D01*
X4867402Y6149238D01*
X4881219Y6153708D01*
X4894326Y6159906D01*
X4906568Y6167678D01*
X4917744Y6176924D01*
X4927701Y6187490D01*
X4936185Y6199225D01*
X4943195Y6211925D01*
X4948529Y6225387D01*
X4952136Y6239459D01*
X4953965Y6253835D01*
X4953965Y6268364D01*
X4952136Y6282740D01*
X4948529Y6296812D01*
X4943195Y6310274D01*
X4936185Y6322974D01*
X4927701Y6334709D01*
X4917744Y6345275D01*
X4906568Y6354521D01*
X4894326Y6362293D01*
X4881219Y6368491D01*
X4867402Y6372961D01*
X4853178Y6375654D01*
X4838700Y6376568D01*
X4824222Y6375654D01*
X4809998Y6372961D01*
X4796180Y6368491D01*
X4783074Y6362293D01*
X4770831Y6354521D01*
X4759655Y6345275D01*
X4749698Y6334709D01*
X4741214Y6322974D01*
X4734204Y6310274D01*
X4728870Y6296812D01*
X4725263Y6282740D01*
X4723587Y6269685D01*
X4722520Y6266230D01*
X4720234Y6263335D01*
X4717135Y6261455D01*
X4713528Y6260795D01*
X4115003Y6260795D01*
X4111701Y6261354D01*
X4108754Y6262979D01*
X4106519Y6265418D01*
X4100169Y6275171D01*
X4091127Y6285788D01*
X4080865Y6295136D01*
X4069435Y6303060D01*
X4057091Y6309512D01*
X4044086Y6314287D01*
X4030522Y6317386D01*
X4016654Y6318758D01*
X4002786Y6318300D01*
X3989070Y6316065D01*
X3975709Y6312103D01*
X3963009Y6306464D01*
X3951122Y6299301D01*
X3940251Y6290614D01*
X3930599Y6280607D01*
X3922268Y6269482D01*
X3915460Y6257391D01*
X3910228Y6244488D01*
X3906723Y6231026D01*
X3904945Y6217259D01*
X3904945Y6203340D01*
X3906723Y6189573D01*
X3910228Y6176111D01*
X3915460Y6163208D01*
X3922268Y6151118D01*
X3930599Y6139992D01*
X3940251Y6129985D01*
X3951122Y6121298D01*
X3963009Y6114135D01*
X3975709Y6108496D01*
X3989070Y6104534D01*
X4002786Y6102299D01*
G37*
G36*
X5179009Y6230569D02*
G01*
X5229148Y6230569D01*
X5229148Y6280556D01*
X5225186Y6278880D01*
X5213654Y6272022D01*
X5203088Y6263741D01*
X5193741Y6254089D01*
X5185816Y6243269D01*
G37*
G36*
X5311851Y6230569D02*
G01*
X5361990Y6230569D01*
X5355183Y6243269D01*
X5347258Y6254089D01*
X5337911Y6263741D01*
X5327345Y6272022D01*
X5315813Y6278880D01*
X5311851Y6280556D01*
G37*
G36*
X1476654Y6355842D02*
G01*
X1490522Y6357213D01*
X1504086Y6360312D01*
X1517091Y6365087D01*
X1529435Y6371539D01*
X1540865Y6379464D01*
X1551127Y6388811D01*
X1560169Y6399428D01*
X1567738Y6411061D01*
X1573784Y6423609D01*
X1578152Y6436766D01*
X1580794Y6450431D01*
X1581708Y6464300D01*
X1580794Y6478168D01*
X1578152Y6491833D01*
X1573784Y6504990D01*
X1567738Y6517538D01*
X1560169Y6529171D01*
X1551127Y6539788D01*
X1540865Y6549135D01*
X1529435Y6557060D01*
X1517091Y6563512D01*
X1504086Y6568287D01*
X1490522Y6571386D01*
X1476654Y6572758D01*
X1462786Y6572300D01*
X1449070Y6570065D01*
X1435709Y6566103D01*
X1423009Y6560464D01*
X1411122Y6553301D01*
X1400251Y6544614D01*
X1390599Y6534607D01*
X1382268Y6523481D01*
X1375460Y6511391D01*
X1370228Y6498488D01*
X1366723Y6485026D01*
X1364945Y6471259D01*
X1364945Y6457340D01*
X1366723Y6443573D01*
X1370228Y6430111D01*
X1375460Y6417208D01*
X1382268Y6405118D01*
X1390599Y6393992D01*
X1400251Y6383985D01*
X1411122Y6375298D01*
X1423009Y6368135D01*
X1435709Y6362496D01*
X1449070Y6358534D01*
X1462786Y6356299D01*
G37*
G36*
X4016654Y6355842D02*
G01*
X4030522Y6357213D01*
X4044086Y6360312D01*
X4057091Y6365087D01*
X4069435Y6371539D01*
X4080865Y6379464D01*
X4091127Y6388811D01*
X4100169Y6399428D01*
X4107738Y6411061D01*
X4113784Y6423609D01*
X4118152Y6436766D01*
X4120794Y6450431D01*
X4121708Y6464300D01*
X4120794Y6478168D01*
X4118152Y6491833D01*
X4113784Y6504990D01*
X4107738Y6517538D01*
X4100169Y6529171D01*
X4091127Y6539788D01*
X4080865Y6549135D01*
X4069435Y6557060D01*
X4057091Y6563512D01*
X4044086Y6568287D01*
X4030522Y6571386D01*
X4016654Y6572758D01*
X4002786Y6572300D01*
X3989070Y6570065D01*
X3975709Y6566103D01*
X3963009Y6560464D01*
X3951122Y6553301D01*
X3940251Y6544614D01*
X3930599Y6534607D01*
X3922268Y6523481D01*
X3915460Y6511391D01*
X3910228Y6498488D01*
X3906723Y6485026D01*
X3904945Y6471259D01*
X3904945Y6457340D01*
X3906723Y6443573D01*
X3910228Y6430111D01*
X3915460Y6417208D01*
X3922268Y6405118D01*
X3930599Y6393992D01*
X3940251Y6383985D01*
X3951122Y6375298D01*
X3963009Y6368135D01*
X3975709Y6362496D01*
X3989070Y6358534D01*
X4002786Y6356299D01*
G37*
G36*
X4887569Y6410706D02*
G01*
X4894326Y6413906D01*
X4906568Y6421678D01*
X4917744Y6430924D01*
X4927701Y6441490D01*
X4936185Y6453225D01*
X4943348Y6466230D01*
X4887569Y6466230D01*
G37*
G36*
X4789830Y6410706D02*
G01*
X4789830Y6466230D01*
X4734052Y6466230D01*
X4741214Y6453225D01*
X4749698Y6441490D01*
X4759655Y6430924D01*
X4770831Y6421678D01*
X4783074Y6413906D01*
G37*
G36*
X9406229Y6529222D02*
G01*
X9417151Y6534912D01*
X9428784Y6543040D01*
X9439249Y6552539D01*
X9448444Y6563309D01*
X9456166Y6575196D01*
X9459976Y6583070D01*
X9406229Y6583070D01*
G37*
G36*
X9313570Y6529324D02*
G01*
X9313570Y6583070D01*
X9259722Y6583070D01*
X9260332Y6581444D01*
X9267291Y6569100D01*
X9275775Y6557772D01*
X9285630Y6547612D01*
X9296704Y6538772D01*
X9308795Y6531457D01*
G37*
G36*
X4887569Y6563969D02*
G01*
X4943348Y6563969D01*
X4936185Y6576974D01*
X4927701Y6588709D01*
X4917744Y6599275D01*
X4906568Y6608521D01*
X4894326Y6616293D01*
X4887569Y6619494D01*
G37*
G36*
X4734052Y6563969D02*
G01*
X4789830Y6563969D01*
X4789830Y6619494D01*
X4783074Y6616293D01*
X4770831Y6608521D01*
X4759655Y6599275D01*
X4749698Y6588709D01*
X4741214Y6576974D01*
G37*
G36*
X1395679Y6609791D02*
G01*
X1550720Y6609791D01*
X1557121Y6610400D01*
X1562862Y6612178D01*
X1568145Y6614972D01*
X1572717Y6618782D01*
X1576527Y6623354D01*
X1579321Y6628638D01*
X1581099Y6634378D01*
X1581708Y6640779D01*
X1581708Y6657644D01*
X1582470Y6661505D01*
X1584706Y6664807D01*
X1588008Y6667042D01*
X1591868Y6667804D01*
X1601012Y6667804D01*
X1605635Y6668008D01*
X1610004Y6668566D01*
X1614322Y6669531D01*
X1618488Y6670852D01*
X1622602Y6672529D01*
X1626514Y6674561D01*
X1630222Y6676948D01*
X1633677Y6679641D01*
X1637131Y6682740D01*
X2022652Y7068312D01*
X2025954Y7070496D01*
X2029866Y7071258D01*
X5572150Y7071258D01*
X5576773Y7071461D01*
X5581142Y7072071D01*
X5585460Y7072985D01*
X5589625Y7074306D01*
X5593740Y7076033D01*
X5597652Y7078065D01*
X5601360Y7080402D01*
X5604814Y7083094D01*
X5608269Y7086244D01*
X5761939Y7239914D01*
X5764834Y7241946D01*
X5768187Y7242860D01*
X5771642Y7242556D01*
X5782259Y7239863D01*
X5796635Y7238034D01*
X5811164Y7238034D01*
X5825540Y7239863D01*
X5839612Y7243470D01*
X5853074Y7248804D01*
X5865774Y7255814D01*
X5877509Y7264298D01*
X5888075Y7274255D01*
X5897321Y7285431D01*
X5905093Y7297674D01*
X5911291Y7310780D01*
X5915761Y7324598D01*
X5918454Y7338822D01*
X5919368Y7353300D01*
X5918454Y7367778D01*
X5915761Y7382002D01*
X5911291Y7395819D01*
X5905093Y7408925D01*
X5897321Y7421168D01*
X5888075Y7432344D01*
X5877509Y7442301D01*
X5865774Y7450785D01*
X5853074Y7457795D01*
X5839612Y7463129D01*
X5825540Y7466736D01*
X5811164Y7468565D01*
X5796635Y7468565D01*
X5782259Y7466736D01*
X5768187Y7463129D01*
X5754725Y7457795D01*
X5742025Y7450785D01*
X5730290Y7442301D01*
X5719724Y7432344D01*
X5710478Y7421168D01*
X5702706Y7408925D01*
X5696508Y7395819D01*
X5692038Y7382002D01*
X5689346Y7367778D01*
X5688431Y7353300D01*
X5689346Y7338822D01*
X5692038Y7324598D01*
X5693003Y7321651D01*
X5693460Y7317994D01*
X5692597Y7314387D01*
X5690514Y7311339D01*
X5669381Y7290206D01*
X5666028Y7287971D01*
X5662066Y7287259D01*
X5658154Y7288123D01*
X5654852Y7290409D01*
X5652719Y7293864D01*
X5652058Y7297826D01*
X5653024Y7301738D01*
X5657291Y7310780D01*
X5661761Y7324598D01*
X5664454Y7338822D01*
X5665368Y7353300D01*
X5664454Y7367778D01*
X5661761Y7382002D01*
X5657291Y7395819D01*
X5651093Y7408925D01*
X5643321Y7421168D01*
X5634075Y7432344D01*
X5623509Y7442301D01*
X5611774Y7450785D01*
X5599074Y7457795D01*
X5585612Y7463129D01*
X5571540Y7466736D01*
X5557164Y7468565D01*
X5542635Y7468565D01*
X5528259Y7466736D01*
X5514187Y7463129D01*
X5500725Y7457795D01*
X5488025Y7450785D01*
X5476290Y7442301D01*
X5465724Y7432344D01*
X5456478Y7421168D01*
X5448706Y7408925D01*
X5442508Y7395819D01*
X5438038Y7382002D01*
X5435346Y7367778D01*
X5434431Y7353300D01*
X5435346Y7338822D01*
X5438038Y7324598D01*
X5442508Y7310780D01*
X5448706Y7297674D01*
X5456478Y7285431D01*
X5465724Y7274255D01*
X5476290Y7264298D01*
X5488025Y7255814D01*
X5500725Y7248804D01*
X5514187Y7243470D01*
X5528259Y7239863D01*
X5542635Y7238034D01*
X5557164Y7238034D01*
X5571540Y7239863D01*
X5585612Y7243470D01*
X5599074Y7248804D01*
X5600700Y7249718D01*
X5604662Y7250938D01*
X5608726Y7250480D01*
X5612333Y7248398D01*
X5614771Y7245146D01*
X5615736Y7241133D01*
X5615025Y7237069D01*
X5612790Y7233615D01*
X5554421Y7175246D01*
X5551119Y7173061D01*
X5547258Y7172299D01*
X2004923Y7172299D01*
X2000300Y7172096D01*
X1995932Y7171486D01*
X1991664Y7170572D01*
X1987448Y7169251D01*
X1983384Y7167524D01*
X1979472Y7165492D01*
X1975764Y7163155D01*
X1972259Y7160463D01*
X1968855Y7157313D01*
X1599031Y6787540D01*
X1595882Y6785406D01*
X1592173Y6784594D01*
X1588363Y6785203D01*
X1585112Y6787184D01*
X1582775Y6790181D01*
X1581759Y6793890D01*
X1581048Y6802323D01*
X1579321Y6807962D01*
X1576527Y6813245D01*
X1572717Y6817817D01*
X1568145Y6821627D01*
X1562862Y6824421D01*
X1557121Y6826199D01*
X1550720Y6826808D01*
X1395679Y6826808D01*
X1389278Y6826199D01*
X1383538Y6824421D01*
X1378254Y6821627D01*
X1373682Y6817817D01*
X1369872Y6813245D01*
X1367078Y6807962D01*
X1365300Y6802221D01*
X1364691Y6795820D01*
X1364691Y6640779D01*
X1365300Y6634378D01*
X1367078Y6628638D01*
X1369872Y6623354D01*
X1373682Y6618782D01*
X1378254Y6614972D01*
X1383538Y6612178D01*
X1389278Y6610400D01*
G37*
G36*
X4058564Y6619849D02*
G01*
X4069435Y6625539D01*
X4080865Y6633464D01*
X4091127Y6642811D01*
X4100169Y6653428D01*
X4107738Y6665061D01*
X4111548Y6672935D01*
X4058564Y6672935D01*
G37*
G36*
X3967835Y6619951D02*
G01*
X3967835Y6672935D01*
X3914749Y6672935D01*
X3915460Y6671208D01*
X3922268Y6659118D01*
X3930599Y6647992D01*
X3940251Y6637985D01*
X3951122Y6629298D01*
X3963009Y6622135D01*
G37*
G36*
X4754219Y6653580D02*
G01*
X4923180Y6653580D01*
X4929632Y6654241D01*
X4935372Y6655968D01*
X4940604Y6658762D01*
X4945227Y6662572D01*
X4949037Y6667195D01*
X4951831Y6672427D01*
X4953558Y6678168D01*
X4954727Y6682994D01*
X4956962Y6685940D01*
X4960162Y6687921D01*
X4963820Y6688581D01*
X6340144Y6688632D01*
X6352082Y6689953D01*
X6361226Y6692239D01*
X6363716Y6693052D01*
X6372402Y6696659D01*
X6374739Y6697827D01*
X6382816Y6702704D01*
X6384950Y6704228D01*
X6392214Y6710222D01*
X6757314Y7075220D01*
X6760311Y7077303D01*
X6763816Y7078167D01*
X6770522Y7078624D01*
X6784441Y7081316D01*
X6797852Y7085787D01*
X6810603Y7091934D01*
X6822490Y7099655D01*
X6829094Y7105243D01*
X6832142Y7107072D01*
X6835648Y7107681D01*
X7278928Y7107732D01*
X7290866Y7109053D01*
X7300010Y7111339D01*
X7302500Y7112152D01*
X7311186Y7115759D01*
X7313574Y7116927D01*
X7321600Y7121804D01*
X7323785Y7123328D01*
X7330998Y7129322D01*
X7497978Y7296200D01*
X7501280Y7298385D01*
X7505141Y7299198D01*
X8405469Y7299248D01*
X8414816Y7300112D01*
X8417407Y7300569D01*
X8426551Y7302804D01*
X8429040Y7303617D01*
X8437727Y7307224D01*
X8448141Y7313269D01*
X8450275Y7314793D01*
X8457539Y7320788D01*
X8568029Y7431227D01*
X8571585Y7433513D01*
X8575802Y7434173D01*
X8585200Y7433614D01*
X8599728Y7434478D01*
X8614003Y7437120D01*
X8627922Y7441438D01*
X8641181Y7447381D01*
X8653627Y7454950D01*
X8665108Y7463891D01*
X8675370Y7474203D01*
X8684361Y7485634D01*
X8691880Y7498080D01*
X8697823Y7511389D01*
X8702192Y7525258D01*
X8704783Y7539583D01*
X8705697Y7554417D01*
X8705697Y7633766D01*
X8704783Y7648600D01*
X8702192Y7662925D01*
X8697823Y7676845D01*
X8691880Y7690103D01*
X8684361Y7702550D01*
X8675370Y7713980D01*
X8665108Y7724292D01*
X8653627Y7733233D01*
X8641181Y7740802D01*
X8627922Y7746746D01*
X8614003Y7751064D01*
X8599728Y7753705D01*
X8585200Y7754569D01*
X8570671Y7753705D01*
X8556345Y7751064D01*
X8542477Y7746746D01*
X8529218Y7740802D01*
X8516721Y7733233D01*
X8505291Y7724292D01*
X8494979Y7713980D01*
X8486038Y7702550D01*
X8478520Y7690103D01*
X8472525Y7676845D01*
X8468004Y7662164D01*
X8466480Y7658862D01*
X8466632Y7654442D01*
X8465566Y7648600D01*
X8464702Y7633766D01*
X8464702Y7559802D01*
X8463889Y7555941D01*
X8461705Y7552639D01*
X8435797Y7526731D01*
X8432495Y7524496D01*
X8428634Y7523734D01*
X8382558Y7523734D01*
X8382558Y7477658D01*
X8381746Y7473797D01*
X8379561Y7470495D01*
X8372246Y7463180D01*
X8368944Y7460996D01*
X8365083Y7460183D01*
X8290001Y7460183D01*
X8286089Y7460996D01*
X8282838Y7463180D01*
X8280603Y7466482D01*
X8279841Y7470343D01*
X8279841Y7523734D01*
X8207857Y7523734D01*
X8203946Y7524496D01*
X8200694Y7526731D01*
X8198459Y7530033D01*
X8197697Y7533894D01*
X8197697Y7656271D01*
X8198459Y7660182D01*
X8200694Y7663484D01*
X8203946Y7665669D01*
X8207857Y7666431D01*
X8279841Y7666431D01*
X8279841Y7743850D01*
X8275218Y7741767D01*
X8262721Y7734249D01*
X8251291Y7725257D01*
X8240979Y7714996D01*
X8232038Y7703566D01*
X8224520Y7691069D01*
X8218525Y7677810D01*
X8217560Y7674711D01*
X8215579Y7671104D01*
X8212328Y7668615D01*
X8208365Y7667599D01*
X8204352Y7668209D01*
X8200847Y7670342D01*
X8198510Y7673695D01*
X8197697Y7677708D01*
X8197697Y7724597D01*
X8197037Y7731048D01*
X8195309Y7736738D01*
X8192516Y7742021D01*
X8188706Y7746644D01*
X8184134Y7750403D01*
X8178850Y7753248D01*
X8173110Y7754975D01*
X8166709Y7755585D01*
X7987690Y7755585D01*
X7981238Y7754975D01*
X7975549Y7753248D01*
X7970266Y7750403D01*
X7965643Y7746644D01*
X7961884Y7742021D01*
X7959039Y7736738D01*
X7957312Y7731048D01*
X7956702Y7724597D01*
X7956702Y7470343D01*
X7955889Y7466482D01*
X7953705Y7463180D01*
X7950403Y7460996D01*
X7946542Y7460183D01*
X7570266Y7460183D01*
X7566609Y7460894D01*
X7563459Y7462824D01*
X7561224Y7465822D01*
X7560157Y7469378D01*
X7560513Y7473086D01*
X7561072Y7475169D01*
X7562850Y7488072D01*
X7562850Y7501128D01*
X7561072Y7514031D01*
X7557566Y7526578D01*
X7552385Y7538516D01*
X7545628Y7549642D01*
X7537399Y7559751D01*
X7527848Y7568692D01*
X7517231Y7576159D01*
X7505649Y7582153D01*
X7497622Y7585049D01*
X7495438Y7586370D01*
X7494219Y7586319D01*
X7480604Y7589215D01*
X7467600Y7590078D01*
X7454595Y7589215D01*
X7440980Y7586319D01*
X7439761Y7586370D01*
X7437577Y7585049D01*
X7429550Y7582153D01*
X7417968Y7576159D01*
X7407351Y7568692D01*
X7397800Y7559751D01*
X7389571Y7549642D01*
X7382814Y7538516D01*
X7377633Y7526578D01*
X7374128Y7514031D01*
X7372350Y7501128D01*
X7372350Y7488072D01*
X7374128Y7475169D01*
X7377633Y7462621D01*
X7382814Y7450683D01*
X7385608Y7446060D01*
X7386726Y7443520D01*
X7387081Y7440777D01*
X7387081Y7417257D01*
X7386320Y7413345D01*
X7384135Y7410043D01*
X7245756Y7271664D01*
X7242454Y7269480D01*
X7238542Y7268718D01*
X6835851Y7268718D01*
X6832041Y7269429D01*
X6816699Y7280808D01*
X6804355Y7287768D01*
X6791198Y7293051D01*
X6777532Y7296658D01*
X6763461Y7298436D01*
X6749338Y7298436D01*
X6735267Y7296658D01*
X6721602Y7293051D01*
X6708444Y7287768D01*
X6696100Y7280808D01*
X6684772Y7272324D01*
X6674612Y7262469D01*
X6665772Y7251395D01*
X6658457Y7239304D01*
X6652717Y7226350D01*
X6648703Y7212787D01*
X6646418Y7198817D01*
X6646316Y7195870D01*
X6645503Y7192162D01*
X6643370Y7189012D01*
X6306921Y6852564D01*
X6303619Y6850380D01*
X6299758Y6849618D01*
X4963820Y6849618D01*
X4960162Y6850278D01*
X4956962Y6852259D01*
X4954727Y6855206D01*
X4953558Y6860031D01*
X4951831Y6865772D01*
X4949037Y6871004D01*
X4945227Y6875627D01*
X4940604Y6879437D01*
X4935372Y6882231D01*
X4929632Y6883958D01*
X4923180Y6884619D01*
X4754219Y6884619D01*
X4747768Y6883958D01*
X4742027Y6882231D01*
X4736795Y6879437D01*
X4732172Y6875627D01*
X4728362Y6871004D01*
X4725568Y6865772D01*
X4723841Y6860031D01*
X4723180Y6853580D01*
X4723180Y6684619D01*
X4723841Y6678168D01*
X4725568Y6672427D01*
X4728362Y6667195D01*
X4732172Y6662572D01*
X4736795Y6658762D01*
X4742027Y6655968D01*
X4747768Y6654241D01*
G37*
G36*
X9406229Y6675729D02*
G01*
X9459976Y6675729D01*
X9456166Y6683603D01*
X9448444Y6695490D01*
X9439249Y6706260D01*
X9428784Y6715759D01*
X9417151Y6723888D01*
X9406229Y6729577D01*
G37*
G36*
X9259722Y6675729D02*
G01*
X9313570Y6675729D01*
X9313570Y6729475D01*
X9308795Y6727342D01*
X9296704Y6720027D01*
X9285630Y6711188D01*
X9275775Y6701028D01*
X9267291Y6689699D01*
X9260332Y6677355D01*
G37*
G36*
X3914749Y6763664D02*
G01*
X3967835Y6763664D01*
X3967835Y6816648D01*
X3963009Y6814464D01*
X3951122Y6807301D01*
X3940251Y6798614D01*
X3930599Y6788607D01*
X3922268Y6777481D01*
X3915460Y6765391D01*
G37*
G36*
X4058564Y6763664D02*
G01*
X4111548Y6763664D01*
X4107738Y6771538D01*
X4100169Y6783171D01*
X4091127Y6793788D01*
X4080865Y6803136D01*
X4069435Y6811060D01*
X4058564Y6816750D01*
G37*
G36*
X4449419Y7237780D02*
G01*
X4618380Y7237780D01*
X4624832Y7238441D01*
X4630572Y7240168D01*
X4635804Y7242962D01*
X4640427Y7246772D01*
X4644237Y7251395D01*
X4647031Y7256627D01*
X4648758Y7262368D01*
X4649419Y7268819D01*
X4649419Y7437780D01*
X4648758Y7444231D01*
X4647031Y7449972D01*
X4644237Y7455204D01*
X4640427Y7459827D01*
X4635804Y7463637D01*
X4630572Y7466431D01*
X4624832Y7468158D01*
X4618380Y7468819D01*
X4449419Y7468819D01*
X4442968Y7468158D01*
X4437227Y7466431D01*
X4431995Y7463637D01*
X4427372Y7459827D01*
X4423562Y7455204D01*
X4420768Y7449972D01*
X4419041Y7444231D01*
X4418380Y7437780D01*
X4418380Y7268819D01*
X4419041Y7262368D01*
X4420768Y7256627D01*
X4423562Y7251395D01*
X4427372Y7246772D01*
X4431995Y7242962D01*
X4437227Y7240168D01*
X4442968Y7238441D01*
G37*
G36*
X4780635Y7238034D02*
G01*
X4795164Y7238034D01*
X4809540Y7239863D01*
X4823612Y7243470D01*
X4837074Y7248804D01*
X4849774Y7255814D01*
X4861509Y7264298D01*
X4872075Y7274255D01*
X4881321Y7285431D01*
X4889093Y7297674D01*
X4895291Y7310780D01*
X4899761Y7324598D01*
X4902454Y7338822D01*
X4903368Y7353300D01*
X4902454Y7367778D01*
X4899761Y7382002D01*
X4895291Y7395819D01*
X4889093Y7408925D01*
X4881321Y7421168D01*
X4872075Y7432344D01*
X4861509Y7442301D01*
X4849774Y7450785D01*
X4837074Y7457795D01*
X4823612Y7463129D01*
X4809540Y7466736D01*
X4795164Y7468565D01*
X4780635Y7468565D01*
X4766259Y7466736D01*
X4752187Y7463129D01*
X4738725Y7457795D01*
X4726025Y7450785D01*
X4714290Y7442301D01*
X4703724Y7432344D01*
X4694478Y7421168D01*
X4686706Y7408925D01*
X4680508Y7395819D01*
X4676038Y7382002D01*
X4673346Y7367778D01*
X4672431Y7353300D01*
X4673346Y7338822D01*
X4676038Y7324598D01*
X4680508Y7310780D01*
X4686706Y7297674D01*
X4694478Y7285431D01*
X4703724Y7274255D01*
X4714290Y7264298D01*
X4726025Y7255814D01*
X4738725Y7248804D01*
X4752187Y7243470D01*
X4766259Y7239863D01*
G37*
G36*
X5288635Y7238034D02*
G01*
X5303164Y7238034D01*
X5317540Y7239863D01*
X5331612Y7243470D01*
X5345074Y7248804D01*
X5357774Y7255814D01*
X5369509Y7264298D01*
X5380075Y7274255D01*
X5389321Y7285431D01*
X5397093Y7297674D01*
X5403291Y7310780D01*
X5407761Y7324598D01*
X5410454Y7338822D01*
X5411368Y7353300D01*
X5410454Y7367778D01*
X5407761Y7382002D01*
X5403291Y7395819D01*
X5397093Y7408925D01*
X5389321Y7421168D01*
X5380075Y7432344D01*
X5369509Y7442301D01*
X5357774Y7450785D01*
X5345074Y7457795D01*
X5331612Y7463129D01*
X5317540Y7466736D01*
X5303164Y7468565D01*
X5288635Y7468565D01*
X5274259Y7466736D01*
X5260187Y7463129D01*
X5246725Y7457795D01*
X5234025Y7450785D01*
X5222290Y7442301D01*
X5211724Y7432344D01*
X5202478Y7421168D01*
X5194706Y7408925D01*
X5188508Y7395819D01*
X5184038Y7382002D01*
X5181346Y7367778D01*
X5180431Y7353300D01*
X5181346Y7338822D01*
X5184038Y7324598D01*
X5188508Y7310780D01*
X5194706Y7297674D01*
X5202478Y7285431D01*
X5211724Y7274255D01*
X5222290Y7264298D01*
X5234025Y7255814D01*
X5246725Y7248804D01*
X5260187Y7243470D01*
X5274259Y7239863D01*
G37*
G36*
X5034635Y7238034D02*
G01*
X5049164Y7238034D01*
X5063540Y7239863D01*
X5077612Y7243470D01*
X5091074Y7248804D01*
X5103774Y7255814D01*
X5115509Y7264298D01*
X5126075Y7274255D01*
X5135321Y7285431D01*
X5143093Y7297674D01*
X5149291Y7310780D01*
X5153761Y7324598D01*
X5156454Y7338822D01*
X5157368Y7353300D01*
X5156454Y7367778D01*
X5153761Y7382002D01*
X5149291Y7395819D01*
X5143093Y7408925D01*
X5135321Y7421168D01*
X5126075Y7432344D01*
X5115509Y7442301D01*
X5103774Y7450785D01*
X5091074Y7457795D01*
X5077612Y7463129D01*
X5063540Y7466736D01*
X5049164Y7468565D01*
X5034635Y7468565D01*
X5020259Y7466736D01*
X5006187Y7463129D01*
X4992725Y7457795D01*
X4980025Y7450785D01*
X4968290Y7442301D01*
X4957724Y7432344D01*
X4948478Y7421168D01*
X4940706Y7408925D01*
X4934508Y7395819D01*
X4930038Y7382002D01*
X4927346Y7367778D01*
X4926431Y7353300D01*
X4927346Y7338822D01*
X4930038Y7324598D01*
X4934508Y7310780D01*
X4940706Y7297674D01*
X4948478Y7285431D01*
X4957724Y7274255D01*
X4968290Y7264298D01*
X4980025Y7255814D01*
X4992725Y7248804D01*
X5006187Y7243470D01*
X5020259Y7239863D01*
G37*
G36*
X6106769Y7248652D02*
G01*
X6119774Y7255814D01*
X6131509Y7264298D01*
X6142075Y7274255D01*
X6151321Y7285431D01*
X6159093Y7297674D01*
X6162294Y7304430D01*
X6106769Y7304430D01*
G37*
G36*
X6009030Y7248652D02*
G01*
X6009030Y7304430D01*
X5953506Y7304430D01*
X5956706Y7297674D01*
X5964478Y7285431D01*
X5973724Y7274255D01*
X5984290Y7264298D01*
X5996025Y7255814D01*
G37*
G36*
X9643872Y7359650D02*
G01*
X9656927Y7359650D01*
X9669830Y7361428D01*
X9682378Y7364933D01*
X9694316Y7370114D01*
X9705441Y7376871D01*
X9715550Y7385100D01*
X9724491Y7394651D01*
X9731959Y7405268D01*
X9737953Y7416850D01*
X9742322Y7429144D01*
X9745014Y7441895D01*
X9745878Y7454900D01*
X9745014Y7467904D01*
X9742322Y7480655D01*
X9737953Y7492949D01*
X9731959Y7504531D01*
X9724491Y7515148D01*
X9715550Y7524699D01*
X9705441Y7532928D01*
X9694316Y7539685D01*
X9682378Y7544866D01*
X9669830Y7548372D01*
X9656927Y7550150D01*
X9643872Y7550150D01*
X9630968Y7548372D01*
X9618421Y7544866D01*
X9606483Y7539685D01*
X9595358Y7532928D01*
X9585248Y7524699D01*
X9576308Y7515148D01*
X9568840Y7504531D01*
X9562846Y7492949D01*
X9559950Y7484922D01*
X9558629Y7482738D01*
X9558680Y7481519D01*
X9555784Y7467904D01*
X9554921Y7454900D01*
X9555784Y7441895D01*
X9558680Y7428280D01*
X9558629Y7427061D01*
X9559950Y7424877D01*
X9562846Y7416850D01*
X9568840Y7405268D01*
X9576308Y7394651D01*
X9585248Y7385100D01*
X9595358Y7376871D01*
X9606483Y7370114D01*
X9618421Y7364933D01*
X9630968Y7361428D01*
G37*
G36*
X9489236Y7367930D02*
G01*
X9494316Y7370114D01*
X9505442Y7376871D01*
X9515551Y7385100D01*
X9524492Y7394651D01*
X9531959Y7405268D01*
X9537547Y7416038D01*
X9489236Y7416038D01*
G37*
G36*
X9411563Y7367930D02*
G01*
X9411563Y7416038D01*
X9363252Y7416038D01*
X9368840Y7405268D01*
X9376308Y7394651D01*
X9385249Y7385100D01*
X9395358Y7376871D01*
X9406483Y7370114D01*
G37*
G36*
X5953506Y7402169D02*
G01*
X6009030Y7402169D01*
X6009030Y7457948D01*
X5996025Y7450785D01*
X5984290Y7442301D01*
X5973724Y7432344D01*
X5964478Y7421168D01*
X5956706Y7408925D01*
G37*
G36*
X6106769Y7402169D02*
G01*
X6162294Y7402169D01*
X6159093Y7408925D01*
X6151321Y7421168D01*
X6142075Y7432344D01*
X6131509Y7442301D01*
X6119774Y7450785D01*
X6106769Y7457948D01*
G37*
G36*
X9363252Y7493762D02*
G01*
X9411563Y7493762D01*
X9411563Y7541869D01*
X9406483Y7539685D01*
X9395358Y7532928D01*
X9385249Y7524699D01*
X9376308Y7515148D01*
X9368840Y7504531D01*
G37*
G36*
X9489236Y7493762D02*
G01*
X9537547Y7493762D01*
X9531959Y7504531D01*
X9524492Y7515148D01*
X9515551Y7524699D01*
X9505442Y7532928D01*
X9494316Y7539685D01*
X9489236Y7541869D01*
G37*
G36*
X6802729Y7596124D02*
G01*
X6810603Y7599934D01*
X6822490Y7607655D01*
X6833260Y7616850D01*
X6842759Y7627315D01*
X6850888Y7638948D01*
X6856577Y7649870D01*
X6802729Y7649870D01*
G37*
G36*
X6710070Y7596124D02*
G01*
X6710070Y7649870D01*
X6656222Y7649870D01*
X6661912Y7638948D01*
X6670040Y7627315D01*
X6679539Y7616850D01*
X6690309Y7607655D01*
X6702196Y7599934D01*
G37*
G36*
X7428738Y7607452D02*
G01*
X7428738Y7655763D01*
X7380630Y7655763D01*
X7382814Y7650683D01*
X7389571Y7639558D01*
X7397800Y7629448D01*
X7407351Y7620508D01*
X7417968Y7613040D01*
G37*
G36*
X7506462Y7607452D02*
G01*
X7517231Y7613040D01*
X7527848Y7620508D01*
X7537399Y7629448D01*
X7545628Y7639558D01*
X7552385Y7650683D01*
X7554569Y7655763D01*
X7506462Y7655763D01*
G37*
G36*
X8382558Y7666431D02*
G01*
X8447379Y7666431D01*
X8443823Y7677810D01*
X8437880Y7691069D01*
X8430361Y7703566D01*
X8421370Y7714996D01*
X8411108Y7725257D01*
X8399627Y7734249D01*
X8387181Y7741767D01*
X8382558Y7743850D01*
G37*
G36*
X7380630Y7733436D02*
G01*
X7428738Y7733436D01*
X7428738Y7781747D01*
X7417968Y7776159D01*
X7407351Y7768691D01*
X7397800Y7759750D01*
X7389571Y7749641D01*
X7382814Y7738516D01*
G37*
G36*
X7506462Y7733436D02*
G01*
X7554569Y7733436D01*
X7552385Y7738516D01*
X7545628Y7749641D01*
X7537399Y7759750D01*
X7527848Y7768691D01*
X7517231Y7776159D01*
X7506462Y7781747D01*
G37*
G36*
X6656324Y7742529D02*
G01*
X6710070Y7742529D01*
X6710070Y7796377D01*
X6708444Y7795768D01*
X6696100Y7788808D01*
X6684772Y7780324D01*
X6674612Y7770469D01*
X6665772Y7759395D01*
X6658457Y7747304D01*
G37*
G36*
X6802729Y7742529D02*
G01*
X6856475Y7742529D01*
X6854342Y7747304D01*
X6847027Y7759395D01*
X6838188Y7770469D01*
X6828028Y7780324D01*
X6816699Y7788808D01*
X6804355Y7795768D01*
X6802729Y7796377D01*
G37*

%LPD*%
D10*
X5816600Y2387600D02*
G01*
X7594600Y4165600D01*
X8356600Y4165600D01*
D11*
X4013200Y4432300D02*
G01*
X5112054Y4432300D01*
X8356600Y3149600D02*
G01*
X8647429Y2858770D01*
X8647429Y1766570D01*
X8890000Y1524000D01*
X8356600Y3403600D02*
G01*
X9367799Y3403600D01*
X9436100Y3471900D01*
X1601241Y6718300D02*
G01*
X2004720Y7121779D01*
X5572379Y7121779D01*
X5803900Y7353300D01*
X1473200Y6718300D02*
G01*
X1601241Y6718300D01*
X1473200Y4940300D02*
G01*
X1176451Y4940300D01*
X1163751Y4927600D01*
X1028700Y4927600D02*
G01*
X1163751Y4927600D01*
X1473200Y4686300D02*
G01*
X1041400Y4686300D01*
X1028700Y4673600D01*
X1473200Y4432300D02*
G01*
X1041400Y4432300D01*
X1028700Y4419600D01*
X1473200Y4178300D02*
G01*
X1041400Y4178300D01*
X1028700Y4165600D01*
X1473200Y3924300D02*
G01*
X1041400Y3924300D01*
X1028700Y3911600D01*
X1473200Y3670300D02*
G01*
X1041400Y3670300D01*
X1028700Y3657600D01*
X1473200Y3162300D02*
G01*
X1270000Y3162300D01*
X1028700Y3403600D01*
X8890000Y1016000D02*
G01*
X9044762Y1016000D01*
X9082862Y977900D01*
X9537700Y977900D02*
G01*
X9082857Y977900D01*
X4495800Y3221507D02*
G01*
X4845786Y3221507D01*
X4854193Y3213100D01*
X5029200Y3213100D02*
G01*
X4854193Y3213100D01*
X4013200Y6210300D02*
G01*
X4787900Y6210300D01*
X4838700Y6261100D01*
X4013200Y5448300D02*
G01*
X4279900Y5448300D01*
X4838700Y6007100D01*
X5816600Y3657600D02*
G01*
X4508500Y3657600D01*
X4013200Y3162300D01*
X5816600Y3149600D02*
G01*
X4671237Y2004237D01*
X3968191Y2004237D01*
X2743225Y3229203D01*
X2743225Y4432274D01*
X1473200Y5702300D01*
D10*
X5816600Y1117600D02*
G01*
X5384038Y1550162D01*
X2069338Y1550162D01*
X1473200Y2146300D01*
X4838700Y6769100D02*
G01*
X6337300Y6769100D01*
X6756400Y7188200D01*
X7467600Y7379690D02*
G01*
X8402624Y7379690D01*
X8585225Y7562291D01*
X8585225Y7594117D01*
X6756400Y7188200D02*
G01*
X7276109Y7188200D01*
X7467600Y7379690D01*
X7467600Y7379690D02*
G01*
X7467600Y7494600D01*
D11*
X5816600Y3911600D02*
G01*
X5456707Y4271492D01*
X4495800Y4271492D01*
X5270500Y4845710D02*
G01*
X5111089Y4686300D01*
X4013200Y4686300D01*
X9867900Y6629400D02*
G01*
X9312300Y6073800D01*
X8953500Y6073800D01*
D12*
X9753600Y5121655D02*
G01*
X9035643Y5121655D01*
X8953500Y5203799D01*
D11*
X4013200Y4178300D02*
G01*
X3929430Y4178300D01*
X3782466Y4325264D01*
X8890000Y1778000D02*
G01*
X8740622Y1927377D01*
X8740622Y2136622D01*
X8890000Y2286000D01*
X5816600Y5689600D02*
G01*
X5944641Y5689600D01*
X5944641Y5689600D02*
G01*
X6119698Y5864656D01*
X9100210Y5864656D01*
D10*
X5270500Y6189192D02*
G01*
X4944592Y6515100D01*
X4838700Y6515100D01*
X6922109Y7694599D02*
G01*
X7467600Y7694599D01*
X8356600Y5689600D02*
G01*
X9686543Y5689600D01*
X9753600Y5622544D01*
X8356600Y4165600D02*
G01*
X9342399Y4165600D01*
X9436100Y4071899D01*
X4013200Y6718300D02*
G01*
X4216400Y6515100D01*
X4838700Y6515100D01*
X6756400Y7696200D02*
G01*
X6920509Y7696200D01*
X6922109Y7694599D01*
X6922109Y7694599D02*
G01*
X6922109Y7694574D01*
X6902678Y7675143D01*
X6379743Y7675143D01*
X6057900Y7353300D01*
X9450400Y7454900D02*
G01*
X9088323Y7816977D01*
X8523706Y7816977D01*
X8359876Y7653146D01*
X8359876Y7653146D02*
G01*
X8331200Y7624470D01*
X8331200Y7595108D01*
X7467600Y7694599D02*
G01*
X7578293Y7805293D01*
X8207730Y7805293D01*
X8359876Y7653146D01*
D13*
G01*
X8331187Y7595095D03*
G01*
X8585212Y7594104D03*
D14*
G01*
X8077187Y7595095D03*
D15*
G01*
X1563103Y1244600D03*
G01*
X2323096Y1244600D03*
D16*
G01*
X9436100Y4071899D03*
G01*
X9436100Y3471900D03*
D15*
G01*
X8953500Y6073800D03*
G01*
X8953500Y5203799D03*
D17*
G01*
X4533900Y7353300D03*
D18*
G01*
X4787900Y7353300D03*
G01*
X5041900Y7353300D03*
G01*
X5295900Y7353300D03*
G01*
X5549900Y7353300D03*
G01*
X5803900Y7353300D03*
G01*
X6057900Y7353300D03*
D17*
G01*
X1028700Y4927600D03*
D18*
G01*
X1028700Y4673600D03*
G01*
X1028700Y4419600D03*
G01*
X1028700Y4165600D03*
G01*
X1028700Y3911600D03*
G01*
X1028700Y3657600D03*
G01*
X1028700Y3403600D03*
D19*
G01*
X9537700Y977900D03*
D20*
G01*
X9791700Y977900D03*
D17*
G01*
X8890000Y2286000D03*
D18*
G01*
X8890000Y2032000D03*
G01*
X8890000Y1778000D03*
G01*
X8890000Y1524000D03*
G01*
X8890000Y1270000D03*
G01*
X8890000Y1016000D03*
D20*
G01*
X9753600Y5121655D03*
G01*
X9753600Y5622544D03*
D21*
G01*
X5029200Y3213100D03*
D22*
G01*
X5029200Y2705100D03*
G01*
X5029200Y2959100D03*
D23*
G01*
X9650399Y7454900D03*
G01*
X9450400Y7454900D03*
G01*
X7467600Y7494600D03*
G01*
X7467600Y7694599D03*
D24*
G01*
X9359900Y6629400D03*
G01*
X9867900Y6629400D03*
G01*
X6756400Y7696200D03*
G01*
X6756400Y7188200D03*
D19*
G01*
X5003800Y1181100D03*
D20*
G01*
X5003800Y927100D03*
D17*
G01*
X4838700Y6769100D03*
D18*
G01*
X4838700Y6515100D03*
G01*
X4838700Y6261100D03*
G01*
X4838700Y6007100D03*
D25*
G01*
X4495800Y4271492D03*
G01*
X4495800Y3221507D03*
D26*
G01*
X5270500Y4845710D03*
G01*
X5270500Y3815689D03*
D27*
G01*
X4013200Y2146300D03*
G01*
X4013200Y2400300D03*
G01*
X4013200Y2654300D03*
G01*
X4013200Y2908300D03*
G01*
X4013200Y3162300D03*
G01*
X4013200Y3416300D03*
G01*
X4013200Y3670300D03*
G01*
X4013200Y3924300D03*
G01*
X4013200Y4178300D03*
G01*
X4013200Y4432300D03*
G01*
X4013200Y4686300D03*
G01*
X4013200Y4940300D03*
G01*
X4013200Y5194300D03*
G01*
X4013200Y5448300D03*
G01*
X4013200Y5702300D03*
G01*
X4013200Y5956300D03*
G01*
X4013200Y6210300D03*
G01*
X4013200Y6464300D03*
G01*
X4013200Y6718300D03*
G01*
X1473200Y2400300D03*
G01*
X1473200Y2654300D03*
G01*
X1473200Y2908300D03*
G01*
X1473200Y3162300D03*
G01*
X1473200Y3416300D03*
G01*
X1473200Y3670300D03*
G01*
X1473200Y3924300D03*
G01*
X1473200Y4178300D03*
G01*
X1473200Y4432300D03*
G01*
X1473200Y4686300D03*
G01*
X1473200Y4940300D03*
G01*
X1473200Y5194300D03*
G01*
X1473200Y5448300D03*
G01*
X1473200Y5702300D03*
G01*
X1473200Y5956300D03*
G01*
X1473200Y6210300D03*
G01*
X1473200Y2146300D03*
G01*
X1473200Y6464300D03*
D28*
G01*
X1473200Y6718300D03*
D27*
G01*
X8356600Y1117600D03*
G01*
X8356600Y1371600D03*
G01*
X8356600Y1625600D03*
G01*
X8356600Y1879600D03*
G01*
X8356600Y2133600D03*
G01*
X8356600Y2387600D03*
G01*
X8356600Y2641600D03*
G01*
X8356600Y2895600D03*
G01*
X8356600Y3149600D03*
G01*
X8356600Y3403600D03*
G01*
X8356600Y3657600D03*
G01*
X8356600Y3911600D03*
G01*
X8356600Y4165600D03*
G01*
X8356600Y4419600D03*
G01*
X8356600Y4673600D03*
G01*
X8356600Y4927600D03*
G01*
X8356600Y5181600D03*
G01*
X8356600Y5435600D03*
G01*
X8356600Y5689600D03*
G01*
X5816600Y1371600D03*
G01*
X5816600Y1625600D03*
G01*
X5816600Y1879600D03*
G01*
X5816600Y2133600D03*
G01*
X5816600Y2387600D03*
G01*
X5816600Y2641600D03*
G01*
X5816600Y2895600D03*
G01*
X5816600Y3149600D03*
G01*
X5816600Y3403600D03*
G01*
X5816600Y3657600D03*
G01*
X5816600Y3911600D03*
G01*
X5816600Y4165600D03*
G01*
X5816600Y4419600D03*
G01*
X5816600Y4673600D03*
G01*
X5816600Y4927600D03*
G01*
X5816600Y5181600D03*
G01*
X5816600Y1117600D03*
G01*
X5816600Y5435600D03*
D28*
G01*
X5816600Y5689600D03*
D25*
G01*
X5270500Y6189192D03*
G01*
X5270500Y5139207D03*
D29*
G01*
X9100210Y5864656D03*
G01*
X5112054Y4432300D03*
G01*
X3782466Y4325264D03*
M02*
