G04 Layer: BottomSilkscreenLayer*
G04 EasyEDA v6.5.42, 2024-05-17 21:31:13*
G04 769aaf71c92945059be5244369ba5b2e,402e7a3c64b14fc3a01af8f95a806a1f,10*
G04 Gerber Generator version 0.2*
G04 Scale: 100 percent, Rotated: No, Reflected: No *
G04 Dimensions in millimeters *
G04 leading zeros omitted , absolute positions ,4 integer and 5 decimal *
%FSLAX45Y45*%
%MOMM*%

%ADD10C,0.2032*%

%LPD*%
D10*
X3276600Y714154D02*
G01*
X3361037Y714154D01*
X3391997Y714154D02*
G01*
X3476431Y714154D01*
X3579632Y714154D02*
G01*
X3664069Y714154D01*
X3695029Y714154D02*
G01*
X3779464Y714154D01*
X3276600Y828454D02*
G01*
X3361037Y828454D01*
X3391997Y828454D02*
G01*
X3476431Y828454D01*
X3579632Y828454D02*
G01*
X3664069Y828454D01*
X3695029Y828454D02*
G01*
X3779464Y828454D01*
X3276600Y942754D02*
G01*
X3361037Y942754D01*
X3391997Y942754D02*
G01*
X3476431Y942754D01*
X3579632Y942754D02*
G01*
X3664069Y942754D01*
X3695029Y942754D02*
G01*
X3779464Y942754D01*
X3520645Y556262D02*
G01*
X3506571Y560953D01*
X3497191Y575025D01*
X3492500Y598479D01*
X3492500Y612554D01*
X3497191Y636008D01*
X3506571Y650079D01*
X3520645Y654771D01*
X3530025Y654771D01*
X3544100Y650079D01*
X3553482Y636008D01*
X3558171Y612554D01*
X3558171Y598479D01*
X3553482Y575025D01*
X3544100Y560953D01*
X3530025Y556262D01*
X3520645Y556262D01*
X3469845Y657862D02*
G01*
X3455771Y662553D01*
X3446391Y676625D01*
X3441700Y700079D01*
X3441700Y714154D01*
X3446391Y737608D01*
X3455771Y751679D01*
X3469845Y756371D01*
X3479225Y756371D01*
X3493300Y751679D01*
X3502682Y737608D01*
X3507371Y714154D01*
X3507371Y700079D01*
X3502682Y676625D01*
X3493300Y662553D01*
X3479225Y657862D01*
X3469845Y657862D01*
X3566477Y657862D02*
G01*
X3552405Y662553D01*
X3543023Y676625D01*
X3538331Y700079D01*
X3538331Y714154D01*
X3543023Y737608D01*
X3552405Y751679D01*
X3566477Y756371D01*
X3575860Y756371D01*
X3589931Y751679D01*
X3599314Y737608D01*
X3604006Y714154D01*
X3604006Y700079D01*
X3599314Y676625D01*
X3589931Y662553D01*
X3575860Y657862D01*
X3566477Y657862D01*
X3469845Y772162D02*
G01*
X3455771Y776853D01*
X3446391Y790925D01*
X3441700Y814379D01*
X3441700Y828454D01*
X3446391Y851908D01*
X3455771Y865979D01*
X3469845Y870671D01*
X3479225Y870671D01*
X3493300Y865979D01*
X3502682Y851908D01*
X3507371Y828454D01*
X3507371Y814379D01*
X3502682Y790925D01*
X3493300Y776853D01*
X3479225Y772162D01*
X3469845Y772162D01*
X3566477Y772162D02*
G01*
X3552405Y776853D01*
X3543023Y790925D01*
X3538331Y814379D01*
X3538331Y828454D01*
X3543023Y851908D01*
X3552405Y865979D01*
X3566477Y870671D01*
X3575860Y870671D01*
X3589931Y865979D01*
X3599314Y851908D01*
X3604006Y828454D01*
X3604006Y814379D01*
X3599314Y790925D01*
X3589931Y776853D01*
X3575860Y772162D01*
X3566477Y772162D01*
X3469845Y886462D02*
G01*
X3455771Y891153D01*
X3446391Y905225D01*
X3441700Y928679D01*
X3441700Y942754D01*
X3446391Y966208D01*
X3455771Y980279D01*
X3469845Y984971D01*
X3479225Y984971D01*
X3493300Y980279D01*
X3502682Y966208D01*
X3507371Y942754D01*
X3507371Y928679D01*
X3502682Y905225D01*
X3493300Y891153D01*
X3479225Y886462D01*
X3469845Y886462D01*
X3566477Y886462D02*
G01*
X3552405Y891153D01*
X3543023Y905225D01*
X3538331Y928679D01*
X3538331Y942754D01*
X3543023Y966208D01*
X3552405Y980279D01*
X3566477Y984971D01*
X3575860Y984971D01*
X3589931Y980279D01*
X3599314Y966208D01*
X3604006Y942754D01*
X3604006Y928679D01*
X3599314Y905225D01*
X3589931Y891153D01*
X3575860Y886462D01*
X3566477Y886462D01*
X3474537Y1020099D02*
G01*
X3465154Y1029479D01*
X3455771Y1043553D01*
X3446391Y1062316D01*
X3441700Y1085771D01*
X3441700Y1104534D01*
X3446391Y1127988D01*
X3455771Y1146751D01*
X3465154Y1160825D01*
X3474537Y1170208D01*
X3577737Y1020099D02*
G01*
X3587117Y1029479D01*
X3596500Y1043553D01*
X3605880Y1062316D01*
X3610571Y1085771D01*
X3610571Y1104534D01*
X3605880Y1127988D01*
X3596500Y1146751D01*
X3587117Y1160825D01*
X3577737Y1170208D01*
X3619500Y1310637D02*
G01*
X3553828Y1198057D01*
X3438431Y1329400D02*
G01*
X3522868Y1179291D01*
X4402437Y969299D02*
G01*
X4318000Y1119408D01*
X4165600Y1120554D02*
G01*
X4250037Y1120554D01*
X4344565Y863600D02*
G01*
X4302345Y938654D01*
X4260128Y863600D01*
X4302345Y969614D02*
G01*
X4302345Y1054051D01*
X4302345Y1085009D02*
G01*
X4302345Y1169446D01*
X4358637Y1200406D02*
G01*
X4260128Y1200406D01*
X4358637Y1200406D02*
G01*
X4358637Y1233243D01*
X4353946Y1247315D01*
X4344565Y1256698D01*
X4335183Y1261389D01*
X4321111Y1266078D01*
X4297657Y1266078D01*
X4283583Y1261389D01*
X4274202Y1256698D01*
X4264820Y1247315D01*
X4260128Y1233243D01*
X4260128Y1200406D01*
X4316420Y1301729D02*
G01*
X4311728Y1297038D01*
X4307037Y1301729D01*
X4311728Y1306421D01*
X4316420Y1301729D01*
X4283583Y1301729D02*
G01*
X4278891Y1297038D01*
X4274202Y1301729D01*
X4278891Y1306421D01*
X4283583Y1301729D01*
X4344565Y1412435D02*
G01*
X4302345Y1337381D01*
X4260128Y1412435D01*
X4305300Y1564637D02*
G01*
X4305300Y1466128D01*
X4305300Y1466128D02*
G01*
X4249008Y1466128D01*
X4189902Y1564637D02*
G01*
X4199285Y1559948D01*
X4208668Y1550565D01*
X4213357Y1541183D01*
X4218048Y1527111D01*
X4218048Y1503657D01*
X4213357Y1489582D01*
X4208668Y1480202D01*
X4199285Y1470820D01*
X4189902Y1466128D01*
X4171139Y1466128D01*
X4161756Y1470820D01*
X4152376Y1480202D01*
X4147685Y1489582D01*
X4142993Y1503657D01*
X4142993Y1527111D01*
X4147685Y1541183D01*
X4152376Y1550565D01*
X4161756Y1559948D01*
X4171139Y1564637D01*
X4189902Y1564637D01*
X4083888Y1564637D02*
G01*
X4093270Y1559948D01*
X4102651Y1550565D01*
X4107342Y1541183D01*
X4112033Y1527111D01*
X4112033Y1503657D01*
X4107342Y1489582D01*
X4102651Y1480202D01*
X4093270Y1470820D01*
X4083888Y1466128D01*
X4065125Y1466128D01*
X4055742Y1470820D01*
X4046362Y1480202D01*
X4041670Y1489582D01*
X4036979Y1503657D01*
X4036979Y1527111D01*
X4041670Y1541183D01*
X4046362Y1550565D01*
X4055742Y1559948D01*
X4065125Y1564637D01*
X4083888Y1564637D01*
X4006019Y1564637D02*
G01*
X4006019Y1466128D01*
X3940347Y1564637D02*
G01*
X4006019Y1498965D01*
X3982565Y1522420D02*
G01*
X3940347Y1466128D01*
X3900004Y1484891D02*
G01*
X3904696Y1480202D01*
X3909387Y1484891D01*
X3904696Y1489582D01*
X3900004Y1484891D01*
X3900004Y1475511D01*
X3909387Y1466128D01*
X3759276Y1564637D02*
G01*
X3796804Y1466128D01*
X3759276Y1564637D02*
G01*
X3721750Y1466128D01*
X3782730Y1498965D02*
G01*
X3735821Y1498965D01*
X3618550Y1564637D02*
G01*
X3618550Y1466128D01*
X3618550Y1564637D02*
G01*
X3576330Y1564637D01*
X3562258Y1559948D01*
X3557567Y1555257D01*
X3552875Y1545874D01*
X3552875Y1536491D01*
X3557567Y1527111D01*
X3562258Y1522420D01*
X3576330Y1517728D01*
X3618550Y1517728D02*
G01*
X3576330Y1517728D01*
X3562258Y1513037D01*
X3557567Y1508348D01*
X3552875Y1498965D01*
X3552875Y1484891D01*
X3557567Y1475511D01*
X3562258Y1470820D01*
X3576330Y1466128D01*
X3618550Y1466128D01*
X3521915Y1564637D02*
G01*
X3521915Y1494274D01*
X3517226Y1480202D01*
X3507844Y1470820D01*
X3493770Y1466128D01*
X3484389Y1466128D01*
X3470315Y1470820D01*
X3460935Y1480202D01*
X3456244Y1494274D01*
X3456244Y1564637D01*
X3354920Y1541183D02*
G01*
X3359609Y1550565D01*
X3368992Y1559948D01*
X3378375Y1564637D01*
X3397138Y1564637D01*
X3406520Y1559948D01*
X3415901Y1550565D01*
X3420592Y1541183D01*
X3425283Y1527111D01*
X3425283Y1503657D01*
X3420592Y1489582D01*
X3415901Y1480202D01*
X3406520Y1470820D01*
X3397138Y1466128D01*
X3378375Y1466128D01*
X3368992Y1470820D01*
X3359609Y1480202D01*
X3354920Y1489582D01*
X3354920Y1503657D01*
X3378375Y1503657D02*
G01*
X3354920Y1503657D01*
X3319269Y1564637D02*
G01*
X3319269Y1498965D01*
X3319269Y1475511D02*
G01*
X3323960Y1470820D01*
X3319269Y1466128D01*
X3314578Y1470820D01*
X3319269Y1475511D01*
M02*
